<svg width="175" height="105" viewBox="0 0 175 105" fill="none" xmlns="http://www.w3.org/2000/svg">
<path d="M42.5182 24.8419C50.8825 21.2423 61.357 22.4552 71.1302 24.7725C79.6687 26.8544 88.109 29.7134 96.2676 33.1108C112.349 39.8838 127.476 49.1892 140.557 60.2807C147.904 66.5262 154.693 73.3652 160.563 80.6633C162.072 82.4968 159.068 83.9924 157.628 82.1452C147.511 69.6349 134.844 58.4608 120.647 49.3828C106.549 40.3541 90.9322 33.2815 74.8201 28.925C64.875 26.2289 53.4708 23.9621 44.7905 27.6936C43.9805 28.062 42.8148 27.8129 42.1663 27.0471C41.5868 26.2676 41.7082 25.2103 42.5182 24.8419Z" fill="#303030"/>
<path d="M122.664 69.4986C132.306 72.2533 141.988 74.9299 151.629 77.6846C152.771 78.0154 153.814 78.2961 154.956 78.6269C155.999 78.9076 157.129 79.3806 158.224 79.441C159.658 79.5736 159.706 78.1657 159.62 77.1342C159.473 73.1086 158.988 69.0107 158.643 64.8849C158.246 60.1401 157.919 55.3814 157.522 50.6367C157.349 48.5738 161.155 48.7211 161.257 50.798C161.637 55.3365 162.016 59.8749 162.326 64.4273C162.688 68.7594 163.22 73.1277 163.343 77.4377C163.37 79.1802 163.147 81.0427 161.619 82.0476C159.729 83.2648 157.108 82.5309 154.824 81.8693C149.75 80.4379 144.676 79.0064 139.602 77.5749C133.753 75.9489 127.974 74.3089 122.096 72.6188C119.742 71.9712 120.241 68.865 122.664 69.4986Z" fill="#303030"/>
<path d="M15.48 56.8071C15.48 57.1911 15.2987 57.6711 14.936 58.2471C14.5947 58.8018 14.1253 59.3458 13.528 59.8791C12.9307 60.4125 12.2373 60.8711 11.448 61.2551C10.6587 61.6178 9.83733 61.7991 8.984 61.7991C8.6 61.7991 8.19467 61.7351 7.768 61.6071C7.34133 61.4791 6.92533 61.2978 6.52 61.0631C6.11467 60.8071 5.752 60.5085 5.432 60.1671C5.112 59.8045 4.87733 59.3991 4.728 58.9511C4.6 59.0791 4.44 59.2925 4.248 59.5911C4.07733 59.8898 3.88533 60.1991 3.672 60.5191C3.45867 60.8178 3.224 61.0845 2.968 61.3191C2.712 61.5325 2.44533 61.6391 2.168 61.6391C1.89067 61.6391 1.656 61.5005 1.464 61.2231C1.29333 60.9245 1.15467 60.6045 1.048 60.2631C0.941333 59.9005 0.866667 59.5591 0.824 59.2391C0.781333 58.9191 0.76 58.7378 0.76 58.6951C0.76 58.4391 0.834667 57.9591 0.984 57.2551C1.13333 56.5298 1.35733 55.7831 1.656 55.0151C1.95467 54.2471 2.328 53.5645 2.776 52.9671C3.24533 52.3698 3.78933 52.0711 4.408 52.0711C4.64267 52.0711 4.792 52.1778 4.856 52.3911C4.94133 52.5831 4.984 52.7751 4.984 52.9671V53.9271C5.09067 54.0125 5.19733 54.0765 5.304 54.1191C5.432 54.1405 5.53867 54.1831 5.624 54.2471C5.73067 54.2898 5.80533 54.3645 5.848 54.4711C5.912 54.5778 5.944 54.7485 5.944 54.9831C5.944 55.1325 5.93333 55.2711 5.912 55.3991C5.89067 55.5058 5.88 55.6125 5.88 55.7191C5.88 56.2738 5.92267 56.8178 6.008 57.3511C6.09333 57.8845 6.264 58.3645 6.52 58.7911C6.776 59.1965 7.128 59.5378 7.576 59.8151C8.024 60.0711 8.62133 60.1991 9.368 60.1991C10.3067 60.1991 11.096 60.0071 11.736 59.6231C12.3973 59.2178 12.9413 58.7805 13.368 58.3111C13.816 57.8205 14.168 57.3831 14.424 56.9991C14.68 56.5938 14.8933 56.3911 15.064 56.3911C15.3413 56.3911 15.48 56.5298 15.48 56.8071ZM4.248 55.3991C4.248 55.3138 4.22667 55.2391 4.184 55.1751C4.14133 55.0898 4.12 55.0151 4.12 54.9511C4.12 54.8658 4.14133 54.7911 4.184 54.7271C4.22667 54.6631 4.248 54.5778 4.248 54.4711C4.248 54.4071 4.22667 54.3645 4.184 54.3431C4.14133 54.3005 4.12 54.2578 4.12 54.2151C3.928 54.2578 3.72533 54.4391 3.512 54.7591C3.32 55.0791 3.128 55.4525 2.936 55.8791C2.76533 56.3058 2.62667 56.7431 2.52 57.1911C2.41333 57.6178 2.36 57.9698 2.36 58.2471C2.36 58.3965 2.40267 58.6418 2.488 58.9831C2.57333 59.3245 2.66933 59.5485 2.776 59.6551C3.13867 58.9085 3.46933 58.1831 3.768 57.4791C4.088 56.7751 4.248 56.0818 4.248 55.3991ZM23.4898 57.0951C23.4898 58.0551 23.3724 58.8978 23.1378 59.6231C22.9244 60.3485 22.6578 60.9565 22.3378 61.4471C22.0178 61.9165 21.6871 62.2685 21.3458 62.5031C21.0258 62.7378 20.7591 62.8551 20.5458 62.8551C20.2471 62.8551 19.9591 62.7271 19.6818 62.4711C19.4044 62.1938 19.2658 61.9378 19.2658 61.7031C19.2658 61.3618 19.4044 61.1911 19.6818 61.1911C19.7884 61.1911 19.8951 61.2338 20.0018 61.3191C20.1084 61.3831 20.2044 61.4365 20.2898 61.4791C20.6524 61.1805 20.9938 60.6898 21.3138 60.0071C21.6551 59.3245 21.8258 58.3538 21.8258 57.0951C21.8258 56.5831 21.7724 56.1245 21.6658 55.7191C21.5591 55.3138 21.4311 54.9725 21.2818 54.6951C21.1538 54.4178 21.0151 54.2045 20.8658 54.0551C20.7164 53.9058 20.6098 53.8311 20.5458 53.8311C20.3324 53.8311 20.1191 54.0445 19.9058 54.4711C19.7138 54.8978 19.5431 55.3885 19.3938 55.9431C19.2444 56.4765 19.1164 57.0098 19.0098 57.5431C18.9244 58.0551 18.8818 58.4071 18.8818 58.5991C18.9031 58.7271 18.9244 58.8445 18.9458 58.9511C18.9671 59.0578 18.9884 59.1645 19.0098 59.2711C19.0311 59.3778 19.0418 59.4845 19.0418 59.5911C19.0418 59.9965 18.9031 60.3591 18.6258 60.6791C18.3484 60.9991 18.0818 61.1591 17.8258 61.1591C17.6978 61.1591 17.5911 61.0738 17.5058 60.9031C17.4418 60.7111 17.3884 60.4765 17.3458 60.1991C17.3031 59.9218 17.2604 59.6338 17.2178 59.3351C17.1964 59.0365 17.1644 58.7698 17.1218 58.5351C16.9511 58.1511 16.7271 57.5431 16.4498 56.7111C16.1724 55.8791 15.8738 54.9938 15.5538 54.0551C15.2551 53.0951 14.9671 52.1671 14.6898 51.2711C14.4337 50.3751 14.2417 49.6605 14.1137 49.1271C13.8151 47.9751 13.5911 46.9725 13.4417 46.1191C13.2711 45.2445 13.1431 44.4871 13.0577 43.8471C12.9511 43.1858 12.8871 42.6205 12.8657 42.1511C12.8444 41.6818 12.8337 41.2871 12.8337 40.9671C12.8337 40.7751 12.9191 40.6258 13.0897 40.5191C13.2391 40.4125 13.3777 40.3591 13.5057 40.3591C13.6977 40.3591 13.8364 40.4018 13.9217 40.4871C14.0071 40.5511 14.0711 40.7005 14.1137 40.9351C14.1351 41.1698 14.1671 41.5111 14.2097 41.9591C14.2311 42.4071 14.2844 43.0045 14.3697 43.7511C14.4124 44.1138 14.4871 44.6151 14.5938 45.2551C14.7218 45.8951 14.8818 46.6098 15.0738 47.3991C15.2658 48.1885 15.4684 49.0205 15.6818 49.8951C15.9164 50.7485 16.1511 51.5698 16.3858 52.3591C16.6418 53.1485 16.8871 53.8738 17.1218 54.5351C17.3778 55.1965 17.6124 55.7191 17.8258 56.1031C18.0178 55.3351 18.2524 54.6418 18.5298 54.0231C18.7644 53.5111 19.0524 53.0418 19.3938 52.6151C19.7351 52.1671 20.1511 51.9431 20.6418 51.9431C20.8338 51.9431 21.0898 52.0285 21.4098 52.1991C21.7298 52.3698 22.0391 52.6578 22.3378 53.0631C22.6578 53.4685 22.9244 54.0018 23.1378 54.6631C23.3724 55.3245 23.4898 56.1351 23.4898 57.0951ZM32.1955 56.5511C32.1955 57.0205 32.1315 57.4685 32.0035 57.8951C31.8755 58.3218 31.7048 58.6951 31.4915 59.0151C31.2782 59.3351 31.0222 59.5911 30.7235 59.7831C30.4462 59.9538 30.1368 60.0391 29.7955 60.0391C29.1982 60.0391 28.7288 59.8685 28.3875 59.5271C28.0462 59.1858 27.7795 58.7911 27.5875 58.3431C27.4168 57.8951 27.2995 57.4471 27.2355 56.9991C27.1928 56.5298 27.1715 56.1778 27.1715 55.9431C27.1715 55.5591 27.2248 55.1325 27.3315 54.6631C27.4595 54.1725 27.6195 53.7245 27.8115 53.3191C28.0248 52.9138 28.2595 52.5725 28.5155 52.2951C28.7715 52.0178 29.0382 51.8791 29.3155 51.8791C29.3795 51.8791 29.4755 51.9005 29.6035 51.9431C29.7528 51.9858 29.9022 52.0498 30.0515 52.1351C30.2008 52.2205 30.3288 52.3271 30.4355 52.4551C30.5635 52.5831 30.6488 52.7325 30.6915 52.9031C30.9262 52.9245 31.1608 53.0098 31.3955 53.1591C31.6302 53.3085 31.7582 53.4258 31.7795 53.5111C31.9502 54.0658 32.0568 54.6205 32.0995 55.1751C32.1635 55.7298 32.1955 56.1885 32.1955 56.5511ZM30.7555 55.9751C30.7555 55.6551 30.7235 55.3245 30.6595 54.9831C30.5955 54.6205 30.4675 54.2578 30.2755 53.8951C30.2328 53.9165 30.1795 53.9271 30.1155 53.9271C30.0302 53.9271 29.9555 53.9165 29.8915 53.8951C29.8488 53.8738 29.8062 53.8631 29.7635 53.8631C29.5075 53.8631 29.3048 53.9378 29.1555 54.0871C29.0062 54.2151 28.8888 54.3965 28.8035 54.6311C28.7395 54.8445 28.6968 55.0791 28.6755 55.3351C28.6542 55.5911 28.6435 55.8365 28.6435 56.0711C28.6435 56.3058 28.6542 56.5725 28.6755 56.8711C28.6968 57.1485 28.7395 57.4151 28.8035 57.6711C28.8888 57.9271 28.9955 58.1511 29.1235 58.3431C29.2515 58.5138 29.4222 58.5991 29.6355 58.5991C29.8488 58.5991 30.0302 58.4925 30.1795 58.2791C30.3288 58.0445 30.4462 57.7778 30.5315 57.4791C30.6168 57.1805 30.6702 56.8925 30.6915 56.6151C30.7342 56.3165 30.7555 56.1031 30.7555 55.9751ZM45.9643 58.1511C45.9643 58.3431 45.8363 58.5458 45.5803 58.7591C45.3243 58.9725 45.0256 59.1751 44.6843 59.3671C44.3429 59.5378 43.9909 59.6871 43.6283 59.8151C43.2869 59.9431 43.0309 60.0071 42.8603 60.0071C42.6683 60.0071 42.4549 59.9538 42.2203 59.8471C42.0069 59.7405 41.7936 59.6125 41.5803 59.4631C41.3883 59.3138 41.2176 59.1751 41.0683 59.0471C40.9189 58.9191 40.8229 58.8338 40.7803 58.7911C40.7163 58.8551 40.6203 58.9831 40.4923 59.1751C40.3643 59.3671 40.2043 59.5805 40.0123 59.8151C39.8416 60.0285 39.6496 60.2205 39.4363 60.3911C39.2443 60.5618 39.0416 60.6471 38.8283 60.6471C38.2736 60.6471 37.7936 60.3485 37.3883 59.7511C36.9829 59.1538 36.6416 58.4711 36.3643 57.7031C36.1083 56.9351 35.9056 56.1991 35.7563 55.4951C35.6283 54.7698 35.5643 54.2791 35.5643 54.0231C35.5643 53.8738 35.6389 53.7565 35.7883 53.6711C35.9589 53.5645 36.0869 53.5111 36.1723 53.5111C36.4709 53.5111 36.6736 53.6178 36.7803 53.8311C36.8869 54.0231 36.9403 54.2365 36.9403 54.4711C36.9403 54.6631 36.9936 55.0045 37.1003 55.4951C37.2283 55.9858 37.3776 56.4871 37.5483 56.9991C37.7189 57.5111 37.9003 57.9698 38.0923 58.3751C38.2843 58.7591 38.4549 58.9511 38.6043 58.9511C38.8816 58.9511 39.1163 58.7805 39.3083 58.4391C39.5216 58.0765 39.6923 57.6711 39.8203 57.2231C39.9483 56.7538 40.0443 56.3165 40.1083 55.9111C40.1723 55.4845 40.2043 55.2071 40.2043 55.0791C40.2043 55.0578 40.2043 54.9938 40.2043 54.8871C40.2256 54.7591 40.2469 54.6311 40.2683 54.5031C40.2896 54.3751 40.3003 54.2578 40.3003 54.1511C40.3216 54.0445 40.3323 53.9698 40.3323 53.9271C40.3323 53.7778 40.3003 53.6818 40.2363 53.6391C40.1723 53.5751 40.1403 53.4578 40.1403 53.2871C40.1403 53.1591 40.2043 53.0418 40.3323 52.9351C40.4603 52.8071 40.7376 52.7431 41.1643 52.7431C41.3349 52.7431 41.4629 52.7965 41.5483 52.9031C41.6549 52.9885 41.7296 53.0951 41.7723 53.2231C41.8149 53.3511 41.8363 53.4791 41.8363 53.6071C41.8576 53.7138 41.8683 53.7885 41.8683 53.8311C41.8683 53.8525 41.8576 54.0018 41.8363 54.2791C41.8149 54.5565 41.7936 54.8658 41.7723 55.2071C41.7723 55.5271 41.7616 55.8365 41.7403 56.1351C41.7189 56.4338 41.7083 56.6151 41.7083 56.6791C41.7083 56.7431 41.7403 56.8711 41.8043 57.0631C41.8683 57.2551 41.9429 57.4578 42.0283 57.6711C42.1349 57.8631 42.2523 58.0445 42.3802 58.2151C42.5083 58.3645 42.6469 58.4391 42.7963 58.4391C43.0523 58.4391 43.2869 58.4071 43.5003 58.3431C43.7349 58.2578 43.9483 58.1725 44.1403 58.0871C44.3536 57.9805 44.5456 57.8951 44.7163 57.8311C44.8869 57.7458 45.0469 57.7031 45.1963 57.7031C45.3883 57.7031 45.5589 57.7458 45.7083 57.8311C45.8789 57.9165 45.9643 58.0231 45.9643 58.1511ZM55.7288 48.9991C55.4514 49.3191 55.0568 49.6391 54.5448 49.9591C54.0328 50.2578 53.5208 50.5351 53.0088 50.7911C52.4968 51.0471 52.0488 51.2711 51.6648 51.4631C51.2808 51.6338 51.0888 51.7511 51.0888 51.8151C51.0888 51.8791 51.1314 52.0711 51.2168 52.3911C51.3021 52.7111 51.3981 53.0951 51.5048 53.5431C51.6328 53.9698 51.7608 54.4178 51.8888 54.8871C52.0168 55.3565 52.1234 55.7725 52.2088 56.1351C52.2514 56.3485 52.3048 56.6258 52.3688 56.9671C52.4328 57.3085 52.4861 57.6498 52.5288 57.9911C52.5928 58.3325 52.6461 58.6418 52.6888 58.9191C52.7314 59.1751 52.7528 59.3138 52.7528 59.3351C52.7528 59.6551 52.6994 59.9858 52.5928 60.3271C52.4861 60.6685 52.3154 60.8391 52.0808 60.8391C51.9528 60.8391 51.8354 60.7858 51.7288 60.6791C51.6221 60.5725 51.5261 60.4551 51.4408 60.3271C51.3554 60.1778 51.2914 60.0391 51.2488 59.9111C51.2061 59.7831 51.1848 59.6871 51.1848 59.6231C51.1848 59.5805 51.1848 59.5165 51.1848 59.4311C51.2061 59.3458 51.2168 59.2498 51.2168 59.1431C51.2168 58.7378 51.1528 58.1511 51.0248 57.3831C50.9821 57.1485 50.8968 56.7858 50.7688 56.2951C50.6408 55.8045 50.5128 55.3031 50.3848 54.7911C50.2354 54.1938 50.0648 53.5431 49.8728 52.8391C49.7874 52.5405 49.7341 52.3911 49.7128 52.3911C49.5634 52.3911 49.3074 52.4871 48.9448 52.6791C48.6034 52.8498 48.2088 53.0738 47.7608 53.3511C47.3128 53.6071 46.8434 53.8951 46.3528 54.2151C45.8621 54.5138 45.4034 54.8018 44.9767 55.0791C44.5501 55.3351 44.1874 55.5591 43.8887 55.7511C43.5687 55.9218 43.3767 56.0071 43.3127 56.0071C43.0354 56.0071 42.8114 55.9111 42.6407 55.7191C42.4701 55.5271 42.3847 55.3138 42.3847 55.0791C42.3847 54.9511 42.5661 54.7698 42.9287 54.5351C43.2701 54.2791 43.7074 54.0018 44.2407 53.7031C44.7527 53.4045 45.3181 53.0951 45.9367 52.7751C46.5341 52.4551 47.0888 52.1671 47.6008 51.9111C48.1341 51.6551 48.5714 51.4418 48.9128 51.2711C49.2754 51.1005 49.4568 51.0151 49.4568 51.0151C49.2648 50.0338 49.1048 49.1591 48.9768 48.3911C48.8701 47.7298 48.7634 47.1218 48.6568 46.5671C48.5714 46.0125 48.5288 45.7138 48.5288 45.6711C48.5288 45.3938 48.5821 45.1911 48.6888 45.0631C48.8168 44.9138 48.9554 44.8391 49.1048 44.8391C49.3394 44.8391 49.4888 44.9991 49.5528 45.3191C49.7874 46.4711 50.0008 47.4951 50.1927 48.3911C50.4061 49.2871 50.6088 50.0125 50.8008 50.5671C50.9928 50.5245 51.3234 50.4071 51.7928 50.2151C52.2621 50.0018 52.7528 49.7778 53.2648 49.5431C53.7768 49.3085 54.2354 49.1058 54.6408 48.9351C55.0674 48.7431 55.3128 48.6471 55.3767 48.6471C55.5048 48.6471 55.5794 48.6898 55.6008 48.7751C55.6434 48.8605 55.6861 48.9351 55.7288 48.9991ZM84.9255 60.4551C84.9255 60.6258 84.8722 60.7751 84.7655 60.9031C84.6588 61.0311 84.5308 61.1378 84.3815 61.2231C84.2322 61.2871 84.0722 61.3405 83.9015 61.3831C83.7522 61.4258 83.6242 61.4471 83.5175 61.4471C83.0695 61.4471 82.6855 61.2125 82.3655 60.7431C82.0455 60.2525 81.7788 59.7191 81.5655 59.1431C81.3522 58.5458 81.1922 57.9911 81.0855 57.4791C81.0002 56.9671 80.9575 56.6898 80.9575 56.6471C80.8295 56.8818 80.6908 57.2765 80.5415 57.8311C80.4135 58.3858 80.2535 58.9511 80.0615 59.5271C79.8695 60.0818 79.6242 60.5831 79.3255 61.0311C79.0482 61.4578 78.6855 61.6711 78.2375 61.6711C78.0242 61.6711 77.8215 61.5431 77.6295 61.2871C77.4375 61.0311 77.2562 60.7005 77.0855 60.2951C76.9148 59.8898 76.7442 59.4311 76.5735 58.9191C76.4242 58.4071 76.2642 57.9058 76.0935 57.4151C75.9442 56.9245 75.7948 56.4658 75.6455 56.0391C75.4962 55.5911 75.3468 55.2391 75.1975 54.9831C75.0695 55.3031 74.9522 55.7405 74.8455 56.2951C74.7602 56.8498 74.6855 57.4365 74.6215 58.0551C74.5575 58.6525 74.5042 59.2498 74.4615 59.8471C74.4188 60.4445 74.3975 60.9671 74.3975 61.4151C74.3975 61.7138 74.3122 61.9271 74.1415 62.0551C73.9922 62.1831 73.8322 62.2471 73.6615 62.2471C73.4268 62.2471 73.1922 62.0978 72.9575 61.7991C72.7228 61.4791 72.4882 61.0738 72.2535 60.5831C72.0188 60.0925 71.7948 59.5378 71.5815 58.9191C71.3895 58.3005 71.2082 57.6818 71.0375 57.0631C70.8882 56.4445 70.7708 55.8578 70.6855 55.3031C70.6002 54.7271 70.5575 54.2471 70.5575 53.8631C70.5575 53.5858 70.5682 53.3298 70.5895 53.0951C70.6108 52.9031 70.6215 52.7218 70.6215 52.5511C70.6428 52.3805 70.6535 52.2845 70.6535 52.2631C70.6535 52.1991 70.6322 52.1565 70.5895 52.1351C70.5682 52.1138 70.5575 52.0605 70.5575 51.9751C70.5575 51.9111 70.6322 51.8151 70.7815 51.6871C70.9522 51.5378 71.1228 51.4631 71.2935 51.4631C71.5922 51.4631 71.7842 51.5271 71.8695 51.6551C71.9762 51.7831 72.0295 51.9325 72.0295 52.1031C72.0295 52.1671 72.0188 52.2631 71.9975 52.3911C71.9975 52.5191 71.9975 52.8071 71.9975 53.2551C71.9975 53.5538 72.0508 54.0018 72.1575 54.5991C72.2642 55.1965 72.3922 55.8045 72.5415 56.4231C72.6908 57.0418 72.8402 57.6178 72.9895 58.1511C73.1602 58.6631 73.2988 58.9831 73.4055 59.1111C73.4482 59.0258 73.4695 58.9298 73.4695 58.8231C73.4908 58.6951 73.5122 58.5991 73.5335 58.5351L73.8855 55.9111C73.9708 55.2498 74.1415 54.5565 74.3975 53.8311C74.6748 53.0845 74.9628 52.5085 75.2615 52.1031C75.3682 51.9325 75.4855 51.8471 75.6135 51.8471C75.7415 51.8471 75.8588 51.9431 75.9655 52.1351C76.3282 52.7325 76.5948 53.3298 76.7655 53.9271C76.9575 54.5031 77.1175 55.0791 77.2455 55.6551C77.3948 56.2098 77.5548 56.7751 77.7255 57.3511C77.9175 57.9058 78.2055 58.4711 78.5895 59.0471C78.7602 58.7698 78.9735 58.3218 79.2295 57.7031C79.4855 57.0631 79.7415 56.4231 79.9975 55.7831C80.2748 55.1431 80.5308 54.5885 80.7655 54.1191C81.0002 53.6285 81.1815 53.3831 81.3095 53.3831C81.3735 53.3831 81.4802 53.3938 81.6295 53.4151C81.7788 53.4365 81.8855 53.4471 81.9495 53.4471C82.1415 53.4471 82.3015 53.6711 82.4295 54.1191C82.5575 54.5458 82.6642 55.0578 82.7495 55.6551C82.8562 56.2311 82.9522 56.8178 83.0375 57.4151C83.1442 57.9911 83.2615 58.4285 83.3895 58.7271C83.4748 58.9405 83.6028 59.1431 83.7735 59.3351C83.9442 59.5271 84.1148 59.7085 84.2855 59.8791C84.4988 60.0711 84.7122 60.2631 84.9255 60.4551ZM96.3948 60.1031C96.4161 60.1458 96.4268 60.2098 96.4268 60.2951C96.4268 60.4231 96.3308 60.6151 96.1388 60.8711C96.0748 60.9565 95.9361 61.0951 95.7228 61.2871C95.5094 61.4791 95.2214 61.6711 94.8588 61.8631C94.4961 62.0551 94.0481 62.2258 93.5148 62.3751C93.0028 62.5245 92.3948 62.5991 91.6908 62.5991C91.2001 62.5991 90.7201 62.4925 90.2508 62.2791C89.7814 62.0445 89.3654 61.7138 89.0028 61.2871C88.6401 60.8391 88.3414 60.2951 88.1068 59.6551C87.8721 58.9938 87.7548 58.2258 87.7548 57.3511C87.7548 56.5191 87.8614 55.7405 88.0748 55.0151C88.2881 54.2898 88.5548 53.6498 88.8748 53.0951C89.2161 52.5405 89.5894 52.1031 89.9948 51.7831C90.4001 51.4631 90.7948 51.3031 91.1788 51.3031C91.5201 51.3031 91.8614 51.3778 92.2028 51.5271C92.5654 51.6551 92.8854 51.8258 93.1628 52.0391C93.4614 52.2525 93.6961 52.4978 93.8668 52.7751C94.0374 53.0311 94.1228 53.2978 94.1228 53.5751C94.1228 53.8951 93.9734 54.2258 93.6748 54.5671C93.3974 54.9085 93.0561 55.2285 92.6508 55.5271C92.2454 55.8045 91.8401 56.0391 91.4348 56.2311C91.0294 56.4018 90.7094 56.4871 90.4748 56.4871C90.3468 56.4871 90.2294 56.4338 90.1228 56.3271C90.0374 56.1991 89.9948 56.0498 89.9948 55.8791C89.9948 55.5805 90.1228 55.3458 90.3788 55.1751C90.6561 55.0045 90.9548 54.8551 91.2748 54.7271C91.5948 54.5778 91.8828 54.4071 92.1388 54.2151C92.4161 54.0231 92.5548 53.7565 92.5548 53.4151C92.5548 53.3725 92.5014 53.2658 92.3948 53.0951C92.2881 52.9245 92.0001 52.8391 91.5308 52.8391C91.3174 52.8391 91.0721 52.9671 90.7948 53.2231C90.5174 53.4578 90.2508 53.7885 89.9948 54.2151C89.7388 54.6205 89.5254 55.1111 89.3548 55.6871C89.1841 56.2418 89.0988 56.8498 89.0988 57.5111C89.0988 58.0658 89.1948 58.5671 89.3868 59.0151C89.6001 59.4631 89.8668 59.8471 90.1868 60.1671C90.5068 60.4658 90.8801 60.7005 91.3068 60.8711C91.7334 61.0418 92.1708 61.1271 92.6188 61.1271C92.9388 61.1271 93.2801 61.0631 93.6428 60.9351C94.0268 60.7858 94.3788 60.6365 94.6988 60.4871C95.0401 60.3165 95.3281 60.1671 95.5628 60.0391C95.8188 59.8898 95.9788 59.8151 96.0428 59.8151C96.1068 59.8151 96.1708 59.8471 96.2348 59.9111C96.3201 59.9751 96.3734 60.0391 96.3948 60.1031Z" fill="black"/>
</svg>
