<svg width="292" height="190" viewBox="0 0 292 190" fill="none" xmlns="http://www.w3.org/2000/svg">
<path d="M150.928 97.189C141.632 92.0868 130.689 92.6817 120.625 94.6841C111.838 96.5035 103.251 99.2801 95.0277 102.738C78.8278 109.647 63.9485 119.728 51.4536 132.163C44.4378 139.166 38.0848 146.942 32.7611 155.355C31.3872 157.466 34.7513 159.546 36.0505 157.413C45.2334 142.995 57.2803 130.424 71.2024 120.542C85.0272 110.711 100.698 103.398 117.225 99.4417C127.426 96.9913 139.223 95.1884 148.87 100.478C149.773 100.997 150.977 100.791 151.57 99.9111C152.088 99.0084 151.83 97.7073 150.928 97.189Z" fill="#303030"/>
<path d="M71.8638 149.278C62.1339 151.789 52.3519 154.204 42.6219 156.715C41.4701 157.018 40.4157 157.269 39.2639 157.572C38.2095 157.823 37.0871 158.298 35.9513 158.279C34.4715 158.32 34.2524 156.623 34.2187 155.39C33.8894 150.561 33.9041 145.674 33.7695 140.741C33.6146 135.069 33.3851 129.373 33.2303 123.701C33.163 121.235 29.2102 121.096 29.3522 123.585C29.5003 129.011 29.6484 134.436 29.8711 139.885C30.0125 145.064 29.9819 150.273 30.3699 155.445C30.5504 157.538 31.007 159.797 32.7218 161.132C34.8393 162.752 37.4867 162.088 39.7902 161.482C44.9132 160.182 50.0361 158.882 55.1591 157.582C61.0672 156.113 66.9006 154.621 72.8314 153.077C75.2096 152.494 74.3167 148.717 71.8638 149.278Z" fill="#303030"/>
<path d="M15.2912 110.072C15.4066 110.416 15.3871 110.76 15.2327 111.104C15.0917 111.421 14.8697 111.732 14.5668 112.036C14.2773 112.314 13.9372 112.574 13.5464 112.818C13.1557 113.062 12.7784 113.278 12.4145 113.468C12.0438 113.637 11.7102 113.783 11.4136 113.905C11.1305 114 10.9484 114.061 10.8675 114.089C10.4226 114.238 10.055 114.283 9.76483 114.222C9.47461 114.162 9.2684 113.95 9.14618 113.586C9.10544 113.465 9.08161 113.36 9.07467 113.273C9.06095 113.165 9.12487 113.087 9.26644 113.04C9.32711 113.019 9.43502 113.006 9.59016 112.998C9.73852 112.971 9.85315 112.944 9.93404 112.917C10.0149 112.89 10.2643 112.795 10.6823 112.632C11.1136 112.442 11.5584 112.225 12.0166 111.981C12.4951 111.731 12.9026 111.47 13.2394 111.199C13.5895 110.902 13.7239 110.632 13.6424 110.389C13.6288 110.349 13.3757 110.299 12.8831 110.239C12.404 110.152 11.6649 109.995 10.666 109.768C9.88301 109.581 9.29218 109.329 8.89347 109.013C8.48797 108.676 8.1664 108.154 7.92876 107.447C7.77939 107.002 7.74818 106.607 7.83514 106.263C7.94232 105.912 8.13055 105.601 8.39981 105.331C8.6893 105.053 9.03621 104.813 9.44055 104.61C9.85832 104.38 10.3099 104.183 10.7953 104.02C10.8357 104.006 10.9638 103.986 11.1797 103.958C11.4157 103.924 11.6721 103.917 11.9487 103.937C12.2185 103.936 12.4682 103.976 12.6978 104.056C12.9408 104.11 13.0894 104.217 13.1437 104.379C13.1573 104.42 13.1372 104.494 13.0835 104.602C13.05 104.703 12.9897 104.892 12.9026 105.169C12.8351 105.169 12.7137 105.176 12.5383 105.19C12.3832 105.197 12.1977 105.214 11.9819 105.242C11.7795 105.242 11.5738 105.266 11.3647 105.314C11.1489 105.342 10.9803 105.376 10.859 105.416C10.3332 105.593 9.94241 105.837 9.68672 106.147C9.42425 106.438 9.38467 106.856 9.568 107.402C9.65626 107.665 9.83886 107.874 10.1158 108.029C10.4129 108.176 10.7573 108.297 11.1487 108.391C11.5334 108.464 11.9417 108.541 12.3737 108.621C12.819 108.674 13.2408 108.757 13.6391 108.871C14.0374 108.985 14.3818 109.139 14.6723 109.334C14.9762 109.502 15.1825 109.748 15.2912 110.072ZM22.4609 104.829C22.6103 105.274 22.6922 105.719 22.7067 106.164C22.7211 106.61 22.6782 107.018 22.5778 107.389C22.4774 107.76 22.3162 108.085 22.0941 108.362C21.8855 108.612 21.6194 108.791 21.2959 108.9C20.7296 109.09 20.2303 109.077 19.7981 108.862C19.3659 108.648 18.9875 108.358 18.6629 107.995C18.3585 107.624 18.1047 107.237 17.9014 106.833C17.7116 106.401 17.5794 106.074 17.5047 105.852C17.3825 105.488 17.2972 105.066 17.249 104.587C17.2142 104.082 17.2232 103.606 17.2763 103.161C17.3495 102.708 17.4633 102.31 17.6177 101.966C17.7722 101.621 17.9808 101.405 18.2437 101.317C18.3044 101.296 18.4022 101.286 18.5371 101.286C18.6923 101.279 18.8542 101.292 19.0229 101.325C19.1917 101.359 19.347 101.419 19.4888 101.506C19.6509 101.587 19.7793 101.701 19.8741 101.85C20.1034 101.795 20.353 101.801 20.623 101.868C20.893 101.935 21.0516 102.006 21.099 102.08C21.4374 102.551 21.715 103.043 21.932 103.555C22.1692 104.061 22.3455 104.485 22.4609 104.829ZM20.9125 104.742C20.8106 104.438 20.6751 104.135 20.5058 103.832C20.3297 103.508 20.0929 103.205 19.7955 102.922C19.7618 102.956 19.7146 102.983 19.654 103.004C19.5731 103.031 19.4989 103.045 19.4314 103.045C19.3842 103.038 19.3403 103.041 19.2999 103.055C19.0572 103.137 18.8888 103.272 18.7948 103.461C18.694 103.63 18.6405 103.839 18.6342 104.089C18.6415 104.311 18.6757 104.547 18.737 104.797C18.7982 105.046 18.8662 105.282 18.9409 105.505C19.0156 105.727 19.1105 105.977 19.2258 106.253C19.3343 106.509 19.4596 106.748 19.6018 106.971C19.7642 107.186 19.9366 107.365 20.119 107.506C20.2947 107.627 20.4836 107.653 20.6859 107.586C20.8881 107.518 21.0261 107.359 21.0997 107.109C21.1666 106.839 21.193 106.549 21.1788 106.239C21.1647 105.928 21.1236 105.638 21.0555 105.369C21.0009 105.072 20.9532 104.863 20.9125 104.742ZM40.2449 102.977C40.2992 103.139 40.2962 103.297 40.2358 103.452C40.1754 103.608 40.088 103.75 39.9736 103.878C39.8524 103.986 39.7177 104.088 39.5695 104.182C39.4415 104.27 39.3269 104.331 39.2258 104.365C38.8011 104.508 38.3624 104.408 37.9097 104.065C37.4501 103.701 37.0276 103.281 36.642 102.802C36.2497 102.304 35.9215 101.829 35.6574 101.378C35.4135 100.92 35.2848 100.67 35.2712 100.63C35.2246 100.893 35.2187 101.311 35.2537 101.885C35.3089 102.451 35.3371 103.038 35.3385 103.645C35.333 104.232 35.26 104.785 35.1194 105.305C34.9923 105.798 34.7164 106.116 34.2917 106.258C34.0894 106.326 33.8566 106.269 33.5931 106.088C33.3296 105.906 33.0524 105.65 32.7616 105.32C32.4708 104.99 32.1631 104.61 31.8383 104.179C31.5338 103.741 31.2226 103.317 30.9046 102.906C30.6069 102.488 30.3193 102.101 30.042 101.744C29.7578 101.367 29.5042 101.081 29.2812 100.886C29.2617 101.23 29.2896 101.682 29.365 102.241C29.4607 102.794 29.5766 103.374 29.7128 103.981C29.8423 104.568 29.9818 105.151 30.1315 105.731C30.2812 106.311 30.4273 106.813 30.5699 107.238C30.6649 107.521 30.6519 107.75 30.5309 107.926C30.4301 108.095 30.2987 108.206 30.1369 108.261C29.9145 108.335 29.6445 108.268 29.327 108.06C29.0027 107.831 28.6512 107.522 28.2726 107.131C27.8939 106.741 27.505 106.286 27.1059 105.768C26.727 105.242 26.3582 104.714 25.9995 104.181C25.661 103.642 25.3631 103.124 25.1056 102.625C24.8414 102.106 24.6482 101.665 24.526 101.301C24.4377 101.038 24.3663 100.792 24.3119 100.562C24.271 100.373 24.2234 100.198 24.1691 100.036C24.135 99.8678 24.1145 99.7734 24.1078 99.7532C24.0874 99.6925 24.0536 99.6588 24.0063 99.6522C23.9793 99.6388 23.9522 99.5916 23.9251 99.5107C23.9047 99.45 23.9449 99.3353 24.0458 99.1664C24.16 98.9705 24.2981 98.8454 24.4599 98.7911C24.743 98.696 24.9454 98.6956 25.067 98.7898C25.2089 98.8772 25.307 99.0018 25.3613 99.1635C25.3817 99.2242 25.4021 99.3186 25.4226 99.4468C25.4633 99.5681 25.555 99.8411 25.6976 100.266C25.7927 100.549 25.9858 100.957 26.277 101.489C26.5683 102.021 26.8831 102.557 27.2216 103.096C27.5601 103.635 27.8849 104.133 28.1963 104.592C28.521 105.023 28.7543 105.282 28.8962 105.369C28.9095 105.275 28.8991 105.177 28.8652 105.076C28.8447 104.948 28.8343 104.85 28.8342 104.782L28.3327 102.183C28.2032 101.529 28.1443 100.817 28.1561 100.048C28.1814 99.2519 28.2711 98.6142 28.4252 98.1349C28.472 97.9392 28.5561 97.8209 28.6774 97.7802C28.7988 97.7394 28.9406 97.7931 29.1028 97.9412C29.6367 98.392 30.0796 98.8734 30.4315 99.3854C30.7969 99.8703 31.1319 100.365 31.4365 100.871C31.7546 101.349 32.0863 101.834 32.4314 102.326C32.7899 102.791 33.2429 103.235 33.7902 103.659C33.8638 103.341 33.9234 102.849 33.9692 102.181C34.0082 101.493 34.0472 100.804 34.0862 100.116C34.1454 99.4212 34.2116 98.8139 34.2846 98.2943C34.3509 97.7545 34.4448 97.4642 34.5661 97.4234C34.6268 97.4031 34.7313 97.3792 34.8797 97.3519C35.028 97.3246 35.1325 97.3008 35.1932 97.2804C35.3752 97.2193 35.5982 97.3807 35.8621 97.7647C36.1193 98.1284 36.3833 98.5799 36.6543 99.119C36.9388 99.6311 37.2165 100.157 37.4875 100.696C37.772 101.208 38.0224 101.585 38.2388 101.828C38.3876 102.003 38.5734 102.154 38.7963 102.282C39.0192 102.409 39.2387 102.527 39.4548 102.634C39.7182 102.749 39.9815 102.863 40.2449 102.977ZM51.0057 98.9928C51.0395 99.0265 51.07 99.0838 51.0971 99.1647C51.1379 99.286 51.108 99.4986 51.0074 99.8024C50.9739 99.9036 50.8866 100.079 50.7455 100.329C50.6043 100.579 50.3924 100.853 50.1097 101.15C49.827 101.448 49.4566 101.752 48.9986 102.063C48.5607 102.368 48.0081 102.632 47.3407 102.856C46.8756 103.012 46.3866 103.064 45.8737 103.011C45.3541 102.938 44.8545 102.757 44.3749 102.468C43.8885 102.159 43.4322 101.738 43.0061 101.206C42.5731 100.654 42.2175 99.963 41.9391 99.1338C41.6743 98.345 41.5276 97.5729 41.499 96.8174C41.4704 96.0619 41.5195 95.3703 41.6463 94.7426C41.7934 94.1082 42.0081 93.5748 42.2905 93.1424C42.5729 92.71 42.8961 92.4327 43.2602 92.3105C43.5837 92.2019 43.9311 92.164 44.3022 92.197C44.6867 92.2029 45.0444 92.2628 45.3752 92.3768C45.7263 92.484 46.0268 92.6419 46.2769 92.8505C46.5201 93.0388 46.6859 93.2645 46.7742 93.5274C46.876 93.8307 46.8397 94.1917 46.6652 94.6104C46.5109 95.0222 46.2892 95.4342 46 95.8464C45.704 96.2383 45.3944 96.5898 45.0713 96.9008C44.7413 97.1916 44.4651 97.3743 44.2427 97.449C44.1213 97.4898 43.9931 97.4765 43.8581 97.4094C43.7364 97.3152 43.6484 97.1872 43.5941 97.0254C43.4991 96.7423 43.5457 96.4791 43.7341 96.2358C43.9427 95.9857 44.1783 95.7491 44.4409 95.5259C44.6968 95.2825 44.9155 95.029 45.097 94.7656C45.2988 94.4953 45.3454 94.1983 45.2368 93.8748C45.2232 93.8343 45.1387 93.7502 44.9833 93.6223C44.8278 93.4945 44.5276 93.5052 44.0827 93.6546C43.8805 93.7225 43.6886 93.9219 43.5072 94.2529C43.319 94.5636 43.1714 94.962 43.0645 95.4479C42.9508 95.9137 42.9048 96.4467 42.9263 97.0471C42.941 97.6272 43.0537 98.2308 43.2641 98.8577C43.4407 99.3835 43.6912 99.8282 44.0158 100.192C44.3607 100.549 44.7357 100.828 45.1409 101.029C45.5393 101.211 45.9679 101.314 46.4267 101.34C46.8855 101.366 47.3273 101.308 47.752 101.165C48.0553 101.064 48.3585 100.894 48.6616 100.657C48.9781 100.394 49.2643 100.14 49.5201 99.8966C49.7894 99.6262 50.0149 99.393 50.1966 99.197C50.3918 98.9739 50.5197 98.8522 50.5803 98.8318C50.641 98.8115 50.7119 98.8214 50.7929 98.8617C50.8942 98.8952 50.9651 98.9389 51.0057 98.9928ZM70.0091 88.866C70.1584 89.311 70.2404 89.756 70.2548 90.2013C70.2693 90.6465 70.2263 91.0547 70.1259 91.426C70.0255 91.7972 69.8643 92.1214 69.6423 92.3985C69.4337 92.6485 69.1676 92.8279 68.844 92.9365C68.2777 93.1266 67.7785 93.1142 67.3463 92.8993C66.914 92.6843 66.5356 92.395 66.211 92.0314C65.9066 91.661 65.6528 91.2737 65.4496 90.8694C65.2598 90.438 65.1275 90.1111 65.0528 89.8886C64.9306 89.5246 64.8454 89.1031 64.7971 88.6243C64.7623 88.1184 64.7714 87.6428 64.8244 87.1974C64.8976 86.7452 65.0115 86.347 65.1659 86.0026C65.3203 85.6582 65.529 85.4419 65.7919 85.3536C65.8525 85.3332 65.9503 85.3229 66.0853 85.3226C66.2404 85.3155 66.4024 85.3287 66.5711 85.362C66.7398 85.3954 66.8951 85.4558 67.037 85.5432C67.199 85.6238 67.3275 85.7382 67.4222 85.8864C67.6515 85.8319 67.9011 85.8381 68.1711 85.905C68.4411 85.9719 68.5998 86.0424 68.6472 86.1165C68.9855 86.588 69.2631 87.0799 69.4801 87.5921C69.7173 88.0976 69.8936 88.5222 70.0091 88.866ZM68.4606 88.7783C68.3588 88.4749 68.2232 88.1716 68.0539 87.8684C67.8778 87.545 67.641 87.2419 67.3436 86.9592C67.3099 86.993 67.2628 87.0201 67.2021 87.0405C67.1212 87.0676 67.047 87.0813 66.9796 87.0814C66.9323 87.0748 66.8885 87.0783 66.848 87.0918C66.6053 87.1733 66.437 87.3086 66.3429 87.4977C66.2421 87.6666 66.1886 87.8758 66.1824 88.1254C66.1896 88.3481 66.2238 88.5841 66.2851 88.8336C66.3463 89.0831 66.4143 89.319 66.489 89.5415C66.5637 89.7639 66.6587 90.0134 66.774 90.2897C66.8824 90.5458 67.0078 90.785 67.1499 91.0074C67.3123 91.2229 67.4847 91.4013 67.6672 91.5426C67.8428 91.6636 68.0318 91.6902 68.234 91.6223C68.4362 91.5544 68.5742 91.3956 68.6479 91.1458C68.7148 90.8758 68.7411 90.5857 68.727 90.2754C68.7128 89.9651 68.6717 89.6751 68.6036 89.4054C68.549 89.1087 68.5014 88.8996 68.4606 88.7783ZM77.8987 69.3059C77.9325 69.3395 77.9664 69.4069 78.0003 69.5081C78.0343 69.6092 78.0716 69.7204 78.1123 69.8417C78.1599 69.9833 78.1331 70.0711 78.0319 70.105C77.9915 70.1186 77.9375 70.1255 77.8701 70.1256C77.8026 70.1258 77.7453 70.1225 77.698 70.1159C77.2797 70.0763 76.7669 70.0234 76.1596 69.9573C75.5657 69.8641 74.9452 69.9261 74.298 70.1434C73.5699 70.3879 73.0751 70.8578 72.8135 71.5532C72.5519 72.2486 72.422 73.0011 72.4237 73.8106C72.4389 74.5932 72.5215 75.3418 72.6714 76.0566C72.8416 76.7646 72.9776 77.2703 73.0794 77.5736C73.1541 77.7961 73.3033 78.1398 73.5269 78.6048C73.764 79.0428 74.0281 79.4942 74.3191 79.9591C74.6102 80.424 74.908 80.8416 75.2123 81.212C75.5099 81.5621 75.7566 81.7606 75.9523 81.8074C76.0737 81.7667 76.2826 81.6853 76.5792 81.5632C76.896 81.4344 77.1555 81.336 77.3578 81.2681C77.7016 81.1526 78.0353 81.0743 78.3591 81.0332C78.6828 80.992 79.0064 80.9171 79.33 80.8085C79.4109 80.7813 79.5323 80.7406 79.6941 80.6862C79.8559 80.6319 80.021 80.5877 80.1896 80.5536C80.3784 80.5127 80.5437 80.5023 80.6854 80.5222C80.8203 80.5219 80.9014 80.5622 80.9285 80.6431C80.9625 80.7442 80.9222 80.859 80.8078 80.9874C80.6934 81.1158 80.5554 81.241 80.3937 81.3627C80.2253 81.4643 80.0535 81.5557 79.8783 81.6371C79.703 81.7184 79.5649 81.776 79.4637 81.81C79.3626 81.8439 79.2312 81.8881 79.0694 81.9424C78.9008 81.9765 78.712 82.0174 78.5029 82.065C78.3141 82.1059 78.1287 82.1569 77.9467 82.218C77.7781 82.2521 77.6332 82.2895 77.5118 82.3303C77.1882 82.4389 76.9996 82.5473 76.9458 82.6553C76.9055 82.7363 76.9193 82.878 76.9872 83.0802C77.0891 83.3836 77.3597 83.754 77.7992 84.1916C78.2521 84.6021 78.7387 85.0464 79.2592 85.5242C79.7797 86.0021 80.2767 86.5103 80.75 87.049C81.2437 87.5809 81.5787 88.1098 81.7553 88.6356C81.7892 88.7367 81.8234 88.939 81.8578 89.2425C81.9056 89.519 81.9265 89.8158 81.9204 90.1329C81.9346 90.4432 81.8981 90.7367 81.811 91.0135C81.7239 91.2903 81.5792 91.4626 81.377 91.5305C81.2152 91.5848 81.0499 91.5953 80.8812 91.5619C80.7259 91.5016 80.6109 91.3601 80.5362 91.1377C80.4276 90.8141 80.4066 90.4836 80.4734 90.1461C80.5603 89.8019 80.5495 89.468 80.4409 89.1444C80.3865 88.9826 80.214 88.7367 79.9232 88.4068C79.6526 88.0701 79.328 87.7065 78.9494 87.316C78.564 86.9053 78.1515 86.4812 77.7121 86.0436C77.2726 85.6061 76.8603 85.2157 76.475 84.8725C76.1032 84.5022 75.7888 84.2027 75.532 83.9739C75.2751 83.745 75.1332 83.6239 75.1062 83.6105C74.7492 83.8878 74.3822 84.1686 74.005 84.4528C73.6278 84.7369 73.3149 85.0783 73.0661 85.4768C72.9721 85.6659 72.8644 85.7808 72.743 85.8216C72.5408 85.8895 72.3215 85.8731 72.0852 85.7724C71.8691 85.6649 71.7271 85.5101 71.6592 85.3078C71.5845 85.0854 71.5874 84.8931 71.668 84.731C71.7621 84.5419 71.8596 84.3967 71.9606 84.2953C72.1086 84.133 72.3544 83.9267 72.6979 83.6764C73.0415 83.426 73.3918 83.1959 73.7489 82.986C73.8768 82.898 73.9981 82.8236 74.1127 82.7626C74.2204 82.6814 74.2573 82.5903 74.2234 82.4891C74.0948 82.3073 73.9155 82.0749 73.6856 81.7921C73.469 81.4822 73.222 81.1151 72.9445 80.6907C72.6872 80.2595 72.4231 79.7743 72.152 79.2352C71.8742 78.6758 71.6233 78.0625 71.3993 77.3951C71.1548 76.667 70.9777 75.8714 70.8679 75.0081C70.7783 74.138 70.8035 73.3082 70.9435 72.5186C71.0969 71.7019 71.3855 70.9862 71.8091 70.3714C72.226 69.7364 72.8289 69.2864 73.6176 69.0216C73.9816 68.8994 74.3997 68.8041 74.8718 68.7356C75.3371 68.6469 75.7755 68.6122 76.1871 68.6316C76.6121 68.6239 76.9798 68.6805 77.2904 68.8012C77.6144 68.895 77.8172 69.0632 77.8987 69.3059ZM103.745 74.5357C103.793 74.6772 103.773 74.819 103.685 74.9608C103.591 75.0824 103.473 75.2008 103.332 75.3157C103.191 75.4307 103.046 75.5356 102.898 75.6304C102.743 75.7049 102.614 75.7592 102.513 75.7931C102.21 75.895 102.001 75.9426 101.886 75.9361C101.772 75.9296 101.684 75.9366 101.623 75.9569C101.118 76.1267 100.727 76.3029 100.45 76.4857C100.174 76.6684 99.9757 76.8813 99.8548 77.1245C99.7541 77.3608 99.721 77.6307 99.7554 77.9342C99.8032 78.2107 99.8916 78.5411 100.021 78.9254C100.238 79.5725 100.431 80.0814 100.601 80.4521C100.79 80.816 100.946 81.1125 101.068 81.3416C101.21 81.5639 101.325 81.7391 101.413 81.8671C101.515 81.968 101.586 82.0792 101.627 82.2006C101.681 82.3623 101.648 82.5648 101.527 82.8079C101.426 83.0443 101.305 83.1862 101.163 83.2337C100.921 83.3152 100.627 83.1775 100.282 82.8207C99.9506 82.4369 99.6156 81.9755 99.2772 81.4365C98.9521 80.8706 98.6507 80.3079 98.3729 79.7486C98.0951 79.1892 97.9053 78.7579 97.8035 78.4545C97.688 78.1107 97.6097 77.7769 97.5686 77.4532C97.5206 77.1093 97.5098 76.8091 97.5363 76.5527C97.5559 76.276 97.6026 76.0466 97.6764 75.8642C97.7503 75.6819 97.8478 75.5704 97.9692 75.5297C98.0703 75.4957 98.1648 75.509 98.2526 75.5695C98.3337 75.6099 98.4114 75.6738 98.4858 75.7613C98.5534 75.8286 98.621 75.8959 98.6886 75.9633C98.7696 76.0036 98.8506 76.0101 98.9315 75.983C99.1135 75.9219 99.3762 75.7324 99.7196 75.4146C100.063 75.0968 100.528 74.8394 101.114 74.6425C101.66 74.4592 102.072 74.3436 102.348 74.2958C102.638 74.221 102.932 74.19 103.228 74.2028C103.296 74.2027 103.384 74.2295 103.492 74.2832C103.613 74.31 103.698 74.3941 103.745 74.5357ZM116.655 76.9526C116.689 76.9863 116.719 77.0436 116.746 77.1245C116.787 77.2458 116.757 77.4584 116.656 77.7622C116.623 77.8634 116.536 78.039 116.394 78.2889C116.253 78.5389 116.041 78.8125 115.759 79.11C115.476 79.4074 115.106 79.7118 114.648 80.0231C114.21 80.3276 113.657 80.5919 112.99 80.816C112.525 80.9721 112.036 81.0238 111.523 80.9709C111.003 80.8978 110.504 80.7168 110.024 80.4277C109.538 80.1184 109.081 79.6978 108.655 79.1658C108.222 78.6135 107.866 77.9228 107.588 77.0936C107.323 76.3049 107.177 75.5327 107.148 74.7772C107.119 74.0217 107.168 73.3301 107.295 72.7024C107.442 72.068 107.657 71.5346 107.94 71.1022C108.222 70.6698 108.545 70.3925 108.909 70.2703C109.233 70.1617 109.58 70.1238 109.951 70.1568C110.336 70.1627 110.693 70.2226 111.024 70.3366C111.375 70.4438 111.676 70.6017 111.926 70.8103C112.169 70.9986 112.335 71.2243 112.423 71.4872C112.525 71.7906 112.489 72.1516 112.314 72.5702C112.16 72.982 111.938 73.394 111.649 73.8062C111.353 74.1981 111.043 74.5496 110.72 74.8606C110.39 75.1514 110.114 75.3341 109.892 75.4088C109.77 75.4496 109.642 75.4363 109.507 75.3692C109.385 75.275 109.297 75.147 109.243 74.9852C109.148 74.7021 109.195 74.4389 109.383 74.1956C109.592 73.9455 109.827 73.7089 110.09 73.4857C110.346 73.2423 110.564 72.9889 110.746 72.7254C110.948 72.4551 110.994 72.1581 110.886 71.8346C110.872 71.7941 110.788 71.71 110.632 71.5821C110.477 71.4543 110.177 71.4651 109.732 71.6144C109.529 71.6823 109.338 71.8817 109.156 72.2127C108.968 72.5234 108.82 72.9218 108.714 73.4077C108.6 73.8735 108.554 74.4065 108.575 75.0069C108.59 75.587 108.703 76.1906 108.913 76.8175C109.09 77.3433 109.34 77.788 109.665 78.1516C110.01 78.5085 110.385 78.7876 110.79 78.9891C111.188 79.1704 111.617 79.2741 112.076 79.3001C112.535 79.3261 112.976 79.2678 113.401 79.1252C113.704 79.0233 114.008 78.854 114.311 78.6172C114.627 78.3535 114.913 78.0999 115.169 77.8565C115.438 77.586 115.664 77.3528 115.846 77.1568C116.041 76.9337 116.169 76.812 116.229 76.7916C116.29 76.7713 116.361 76.7812 116.442 76.8215C116.543 76.8551 116.614 76.8988 116.655 76.9526ZM126.75 70.9642C126.818 71.1665 126.859 71.389 126.873 71.6318C126.88 71.8544 126.877 72.0467 126.864 72.2086C126.844 72.2829 126.723 72.5598 126.501 73.0392C126.293 73.4917 126.001 73.9949 125.624 74.5489C125.268 75.0961 124.831 75.6367 124.312 76.1708C123.807 76.6778 123.272 77.0264 122.706 77.2165C122.362 77.332 121.988 77.3901 121.583 77.391C121.198 77.3851 120.81 77.3016 120.418 77.1405C120.02 76.9592 119.652 76.7003 119.314 76.3637C118.996 76.0203 118.739 75.5554 118.542 74.9689C118.216 73.9981 118.082 73.0641 118.141 72.1667C118.2 71.2693 118.313 70.5338 118.48 69.96C118.547 69.69 118.655 69.4064 118.802 69.1093C118.964 68.7851 119.125 68.4947 119.286 68.238C119.441 67.961 119.589 67.7313 119.73 67.5489C119.891 67.3596 120.013 67.2514 120.094 67.2243C120.276 67.1632 120.454 67.1594 120.63 67.213C120.826 67.2598 120.94 67.3338 120.974 67.4349C121.029 67.5967 121.026 67.7552 120.965 67.9105C120.918 68.0388 120.838 68.2009 120.723 68.3968C120.602 68.5724 120.468 68.8088 120.32 69.106C120.166 69.3829 120.025 69.734 119.897 70.1593C119.636 70.9897 119.503 71.7995 119.498 72.5888C119.506 73.3511 119.599 73.9952 119.775 74.521C119.952 75.0468 120.287 75.407 120.779 75.6016C121.286 75.7692 121.751 75.7817 122.176 75.6391C122.945 75.3811 123.564 74.9817 124.035 74.441C124.527 73.8935 124.913 73.3361 125.195 72.7688C125.478 72.2015 125.692 71.7018 125.84 71.2698C125.987 70.8377 126.122 70.6013 126.243 70.5605C126.466 70.4858 126.635 70.6204 126.75 70.9642ZM138.399 69.6523C138.433 69.686 138.464 69.7433 138.491 69.8242C138.532 69.9455 138.502 70.1581 138.401 70.4619C138.368 70.5631 138.28 70.7387 138.139 70.9886C137.998 71.2385 137.786 71.5122 137.503 71.8097C137.221 72.1071 136.85 72.4115 136.392 72.7228C135.954 73.0273 135.402 73.2916 134.734 73.5157C134.269 73.6718 133.78 73.7235 133.268 73.6706C132.748 73.5975 132.248 73.4165 131.769 73.1274C131.282 72.8181 130.826 72.3975 130.4 71.8654C129.967 71.3132 129.611 70.6225 129.333 69.7933C129.068 69.0045 128.921 68.2324 128.893 67.4769C128.864 66.7214 128.913 66.0298 129.04 65.4021C129.187 64.7677 129.402 64.2342 129.684 63.8019C129.967 63.3695 130.29 63.0922 130.654 62.97C130.978 62.8614 131.325 62.8235 131.696 62.8565C132.081 62.8624 132.438 62.9223 132.769 63.0363C133.12 63.1435 133.421 63.3014 133.671 63.51C133.914 63.6983 134.08 63.924 134.168 64.1869C134.27 64.4902 134.233 64.8512 134.059 65.2699C133.905 65.6817 133.683 66.0937 133.394 66.5059C133.098 66.8978 132.788 67.2493 132.465 67.5603C132.135 67.8511 131.859 68.0338 131.636 68.1085C131.515 68.1492 131.387 68.136 131.252 68.0689C131.13 67.9747 131.042 67.8467 130.988 67.6849C130.893 67.4018 130.939 67.1386 131.128 66.8953C131.336 66.6452 131.572 66.4086 131.835 66.1854C132.091 65.942 132.309 65.6885 132.491 65.4251C132.693 65.1548 132.739 64.8578 132.631 64.5343C132.617 64.4938 132.532 64.4097 132.377 64.2818C132.222 64.154 131.921 64.1647 131.476 64.3141C131.274 64.382 131.082 64.5814 130.901 64.9124C130.713 65.2231 130.565 65.6215 130.458 66.1074C130.345 66.5732 130.299 67.1062 130.32 67.7066C130.335 68.2867 130.447 68.8903 130.658 69.5172C130.834 70.043 131.085 70.4877 131.41 70.8513C131.754 71.2081 132.129 71.4873 132.535 71.6888C132.933 71.8701 133.362 71.9737 133.82 71.9997C134.279 72.0257 134.721 71.9674 135.146 71.8249C135.449 71.723 135.752 71.5537 136.055 71.3169C136.372 71.0532 136.658 70.7996 136.914 70.5561C137.183 70.2857 137.409 70.0525 137.59 69.8564C137.786 69.6334 137.913 69.5117 137.974 69.4913C138.035 69.471 138.106 69.4809 138.187 69.5212C138.288 69.5547 138.359 69.5984 138.399 69.6523ZM149.46 65.3315C149.5 65.4529 149.501 65.5878 149.461 65.7363C149.42 65.8848 149.357 66.03 149.269 66.1718C149.202 66.3069 149.111 66.4386 148.997 66.5671C148.896 66.6685 148.795 66.7362 148.694 66.7701C148.35 66.8855 147.881 66.9641 147.288 67.0059C146.707 67.0206 146.201 66.9205 145.769 66.7056C145.31 66.4772 144.871 66.1745 144.452 65.7977C144.026 65.4006 143.495 64.7912 142.859 63.9695C142.935 64.934 142.968 65.9021 142.956 66.8735C142.965 67.8382 142.768 68.7932 142.365 69.7386C142.339 69.7926 142.285 69.8332 142.204 69.8603C142.062 69.9079 141.887 69.888 141.677 69.8008C141.468 69.7135 141.34 69.5991 141.292 69.4575C141.245 69.316 141.116 68.9992 140.906 68.5072C140.709 67.9881 140.485 67.4219 140.234 66.8086C139.976 66.175 139.719 65.5414 139.461 64.9078C139.217 64.2472 139.023 63.7045 138.881 63.2798C138.813 63.0776 138.735 62.8113 138.646 62.4809C138.551 62.1303 138.513 61.8167 138.533 61.5401C138.539 61.4928 138.583 61.3882 138.664 61.2261C138.764 61.0572 138.896 60.9456 139.058 60.8913C139.199 60.8438 139.311 60.9076 139.392 61.0828C139.473 61.2581 139.551 61.4569 139.626 61.6794L141.235 66.4725C141.269 66.5736 141.327 66.7118 141.408 66.887C141.51 67.0554 141.604 67.1699 141.692 67.2304C141.752 66.6704 141.764 66.0362 141.728 65.3279C141.707 64.5926 141.688 63.9012 141.673 63.2536C141.652 62.5858 141.664 62.019 141.71 61.5535C141.75 61.0676 141.86 60.7942 142.042 60.7331C142.245 60.6652 142.42 60.6513 142.569 60.6915C142.717 60.7316 142.872 60.8595 143.035 61.075C143.333 61.6275 143.59 62.1262 143.807 62.571C144.017 62.9955 144.224 63.3763 144.427 63.7131C144.65 64.0432 144.897 64.3429 145.168 64.6122C145.451 64.8544 145.789 65.0561 146.181 65.2171C146.552 65.385 146.93 65.4719 147.315 65.4778C147.719 65.4769 148.053 65.4324 148.316 65.3441C148.438 65.3034 148.562 65.239 148.69 65.151C148.811 65.0428 148.902 64.9785 148.963 64.9582C149.044 64.931 149.138 64.978 149.247 65.0992C149.375 65.2136 149.446 65.2911 149.46 65.3315ZM155.712 52.1269C155.551 52.5185 155.279 52.9475 154.895 53.4138C154.505 53.8599 154.108 54.2858 153.704 54.6914C153.3 55.097 152.947 55.452 152.644 55.7562C152.334 56.0402 152.189 56.2126 152.21 56.2732C152.23 56.3339 152.332 56.5023 152.514 56.7785C152.697 57.0547 152.91 57.3882 153.154 57.779C153.411 58.1427 153.675 58.5267 153.946 58.9309C154.217 59.3351 154.45 59.6955 154.646 60.0121C154.755 60.2008 154.894 60.4467 155.063 60.7499C155.232 61.0532 155.391 61.3598 155.54 61.6698C155.71 61.973 155.859 62.2493 155.987 62.4986C156.109 62.7277 156.174 62.8524 156.181 62.8726C156.282 63.176 156.337 63.5064 156.345 63.8639C156.352 64.2215 156.245 64.4376 156.022 64.5123C155.901 64.553 155.773 64.5398 155.638 64.4726C155.502 64.4054 155.374 64.3248 155.252 64.2306C155.124 64.1162 155.019 64.0051 154.938 63.8973C154.857 63.7896 154.806 63.7053 154.786 63.6447C154.772 63.6042 154.752 63.5435 154.725 63.4626C154.718 63.375 154.697 63.2806 154.663 63.1794C154.534 62.7952 154.287 62.2594 153.921 61.5721C153.806 61.3632 153.61 61.0465 153.332 60.6221C153.055 60.1977 152.774 59.7632 152.489 59.3185C152.158 58.7998 151.789 58.2373 151.383 57.631C151.207 57.375 151.109 57.2504 151.089 57.2572C150.947 57.3047 150.735 57.4772 150.452 57.7747C150.183 58.0451 149.88 58.3831 149.544 58.7886C149.2 59.1738 148.847 59.5962 148.484 60.0558C148.114 60.4951 147.771 60.9141 147.454 61.3128C147.131 61.6913 146.859 62.019 146.637 62.2961C146.388 62.5597 146.233 62.7017 146.172 62.7221C145.909 62.8104 145.666 62.7907 145.444 62.663C145.221 62.5353 145.072 62.3602 144.997 62.1377C144.956 62.0164 145.071 61.7868 145.34 61.4489C145.582 61.0976 145.908 60.6954 146.319 60.2426C146.709 59.7965 147.146 59.3233 147.631 58.823C148.096 58.3296 148.53 57.88 148.934 57.4744C149.358 57.0619 149.704 56.7205 149.974 56.4501C150.263 56.1729 150.408 56.0342 150.408 56.0342C149.914 55.1651 149.484 54.3868 149.118 53.6995C148.806 53.1065 148.512 52.564 148.234 52.0722C147.976 51.5735 147.841 51.3039 147.827 51.2635C147.739 51.0006 147.725 50.7915 147.786 50.6362C147.859 50.4539 147.967 50.339 148.109 50.2914C148.331 50.2167 148.524 50.3209 148.686 50.6039C149.275 51.6213 149.803 52.5241 150.271 53.3124C150.758 54.094 151.181 54.7171 151.539 55.1818C151.708 55.0802 151.984 54.8638 152.368 54.5324C152.745 54.1808 153.139 53.8122 153.549 53.4268C153.96 53.0414 154.33 52.7033 154.66 52.4125C155.004 52.0947 155.206 51.9256 155.266 51.9052C155.388 51.8645 155.472 51.8812 155.52 51.9553C155.587 52.0226 155.651 52.0798 155.712 52.1269ZM179.205 44.6447C179.293 44.6378 179.354 44.6849 179.388 44.786C179.435 44.9275 179.415 45.103 179.328 45.3123C179.234 45.5014 179.218 45.687 179.279 45.869C179.292 45.9094 179.333 46.0645 179.401 46.3342C179.489 46.5971 179.588 46.8904 179.696 47.2139C179.805 47.5375 179.897 47.8443 179.972 48.1342C180.067 48.4173 180.121 48.5791 180.135 48.6196L181.143 51.6228C181.15 51.6431 181.187 51.788 181.255 52.0577C181.323 52.3274 181.388 52.6545 181.45 53.0389C181.531 53.4165 181.61 53.8177 181.685 54.2426C181.773 54.6404 181.835 54.9911 181.869 55.2946C181.876 55.3823 181.836 55.4633 181.748 55.5377C181.681 55.6053 181.593 55.6797 181.486 55.7609C181.391 55.8151 181.297 55.8693 181.203 55.9234C181.102 55.9574 181.041 55.9777 181.021 55.9845C180.798 56.0592 180.511 56.0092 180.16 55.8346C179.829 55.6532 179.498 55.438 179.167 55.1891C178.836 54.9402 178.542 54.7013 178.285 54.4725C178.028 54.2437 177.883 54.1125 177.849 54.0788C177.863 54.3891 177.871 54.7129 177.872 55.0502C177.866 55.3673 177.843 55.6676 177.803 55.951C177.763 56.2344 177.689 56.4842 177.582 56.7003C177.494 56.9096 177.36 57.0448 177.178 57.1059C176.935 57.1874 176.642 57.1509 176.297 56.9965C175.953 56.8421 175.575 56.6203 175.162 56.3311C174.77 56.0351 174.375 55.6953 173.976 55.3116C173.571 54.9077 173.202 54.5138 172.871 54.13C172.539 53.7462 172.248 53.3825 171.998 53.039C171.768 52.6887 171.616 52.4023 171.541 52.1798C171.514 52.099 171.52 51.9843 171.56 51.8357C171.601 51.6872 171.691 51.5892 171.833 51.5417C172.116 51.4466 172.349 51.4698 172.531 51.611C172.558 51.6245 172.68 51.7861 172.897 52.096C173.133 52.399 173.431 52.7492 173.789 53.1465C174.148 53.5437 174.543 53.951 174.976 54.3683C175.422 54.7587 175.875 55.068 176.334 55.2964C176.387 54.986 176.4 54.6554 176.372 54.3046C176.365 53.9471 176.34 53.6065 176.299 53.2827C176.258 52.959 176.207 52.6724 176.146 52.4229C176.078 52.1532 176.016 51.9375 175.962 51.7757C175.867 51.6275 175.783 51.4759 175.708 51.3209C175.64 51.1861 175.573 51.0513 175.505 50.9165C175.457 50.7749 175.417 50.6536 175.383 50.5525C175.213 50.0469 175.33 49.7262 175.735 49.5904C176.038 49.4885 176.305 49.5116 176.534 49.6595C176.757 49.7872 176.953 49.9689 177.122 50.2047C177.285 50.4202 177.417 50.6459 177.519 50.8818C177.64 51.1109 177.739 51.2693 177.813 51.3568C178.131 51.7676 178.419 52.1549 178.676 52.5187C178.953 52.8756 179.325 53.2121 179.791 53.5282C179.852 53.4404 179.878 53.3189 179.871 53.1637C179.878 52.9816 179.864 52.8062 179.83 52.6376C179.795 52.469 179.758 52.3241 179.717 52.2027C179.67 52.0612 179.636 51.96 179.615 51.8994L177.589 45.8625C177.548 45.7411 177.561 45.6129 177.628 45.4779C177.696 45.3428 177.786 45.2111 177.901 45.0826C178.015 44.9542 178.126 44.8494 178.234 44.7682C178.355 44.66 178.446 44.5957 178.507 44.5754C178.608 44.5414 178.709 44.5412 178.81 44.5747C178.932 44.6014 179.063 44.6248 179.205 44.6447ZM189.487 48.7541C189.636 49.199 189.718 49.6441 189.732 50.0893C189.747 50.5345 189.704 50.9428 189.604 51.314C189.503 51.6853 189.342 52.0094 189.12 52.2865C188.911 52.5366 188.645 52.7159 188.322 52.8246C187.755 53.0147 187.256 53.0022 186.824 52.7873C186.392 52.5724 186.013 52.2831 185.689 51.9195C185.384 51.5491 185.13 51.1617 184.927 50.7574C184.737 50.3261 184.605 49.9991 184.53 49.7767C184.408 49.4127 184.323 48.9912 184.275 48.5123C184.24 48.0064 184.249 47.5308 184.302 47.0854C184.375 46.6333 184.489 46.235 184.644 45.8906C184.798 45.5462 185.007 45.3299 185.27 45.2416C185.33 45.2213 185.428 45.2109 185.563 45.2107C185.718 45.2036 185.88 45.2167 186.049 45.2501C186.217 45.2835 186.373 45.3438 186.515 45.4312C186.677 45.5118 186.805 45.6262 186.9 45.7745C187.129 45.72 187.379 45.7262 187.649 45.7931C187.919 45.86 188.077 45.9305 188.125 46.0046C188.463 46.4761 188.741 46.9679 188.958 47.4802C189.195 47.9856 189.371 48.4103 189.487 48.7541ZM187.938 48.6663C187.836 48.363 187.701 48.0597 187.532 47.7565C187.355 47.433 187.119 47.13 186.821 46.8473C186.788 46.8811 186.74 46.9082 186.68 46.9285C186.599 46.9557 186.525 46.9693 186.457 46.9695C186.41 46.9628 186.366 46.9663 186.326 46.9799C186.083 47.0614 185.915 47.1967 185.821 47.3857C185.72 47.5546 185.666 47.7639 185.66 48.0135C185.667 48.2361 185.701 48.4721 185.763 48.7216C185.824 48.9711 185.892 49.2071 185.967 49.4295C186.041 49.652 186.136 49.9014 186.252 50.1778C186.36 50.4339 186.485 50.6731 186.628 50.8954C186.79 51.1109 186.962 51.2893 187.145 51.4306C187.32 51.5517 187.509 51.5783 187.712 51.5104C187.914 51.4425 188.052 51.2836 188.126 51.0339C188.192 50.7639 188.219 50.4737 188.205 50.1634C188.19 49.8531 188.149 49.5631 188.081 49.2934C188.027 48.9967 187.979 48.7877 187.938 48.6663ZM198.812 42.6192C198.859 42.7607 198.839 42.9025 198.752 43.0443C198.658 43.1659 198.54 43.2843 198.399 43.3992C198.257 43.5142 198.112 43.6191 197.964 43.7139C197.809 43.7884 197.681 43.8427 197.58 43.8766C197.277 43.9785 197.068 44.0261 196.953 44.0196C196.838 44.0131 196.75 44.0201 196.69 44.0404C196.184 44.2102 195.793 44.3864 195.517 44.5692C195.241 44.7519 195.042 44.9648 194.921 45.208C194.821 45.4443 194.788 45.7142 194.822 46.0177C194.87 46.2942 194.958 46.6246 195.087 47.0089C195.305 47.656 195.498 48.1649 195.667 48.5356C195.857 48.8995 196.013 49.196 196.135 49.4251C196.277 49.6474 196.392 49.8226 196.48 49.9506C196.581 50.0515 196.652 50.1627 196.693 50.2841C196.747 50.4458 196.714 50.6483 196.593 50.8914C196.493 51.1278 196.371 51.2697 196.23 51.3172C195.987 51.3987 195.693 51.261 195.349 50.9042C195.017 50.5204 194.682 50.059 194.344 49.52C194.019 48.9541 193.717 48.3914 193.44 47.8321C193.162 47.2727 192.972 46.8414 192.87 46.538C192.755 46.1942 192.676 45.8604 192.635 45.5367C192.587 45.1928 192.576 44.8926 192.603 44.6362C192.623 44.3595 192.669 44.1301 192.743 43.9477C192.817 43.7654 192.914 43.6539 193.036 43.6132C193.137 43.5792 193.231 43.5925 193.319 43.653C193.4 43.6933 193.478 43.7573 193.552 43.8448C193.62 43.9121 193.688 43.9794 193.755 44.0468C193.836 44.0871 193.917 44.0936 193.998 44.0665C194.18 44.0054 194.443 43.8159 194.786 43.4981C195.13 43.1803 195.595 42.9229 196.181 42.726C196.727 42.5427 197.138 42.4271 197.415 42.3793C197.705 42.3045 197.998 42.2735 198.295 42.2863C198.362 42.2862 198.45 42.313 198.558 42.3667C198.68 42.3935 198.764 42.4776 198.812 42.6192ZM214.037 44.1912C214.091 44.353 214.112 44.4812 214.098 44.5756C214.078 44.6499 213.994 44.7344 213.846 44.8292C213.684 44.951 213.476 45.0998 213.22 45.2758C212.977 45.4247 212.707 45.5939 212.411 45.7835C212.108 45.9528 211.795 46.1255 211.471 46.3016C211.161 46.4507 210.865 46.5727 210.581 46.6678C210.238 46.7832 209.847 46.892 209.408 46.9941C208.99 47.0895 208.575 47.1612 208.164 47.2093C207.746 47.2372 207.358 47.2549 207 47.2624C206.656 47.2429 206.386 47.176 206.19 47.0618C206.434 47.4525 206.668 47.8467 206.891 48.2442C207.115 48.6418 207.318 49.0461 207.501 49.4572C207.535 49.5584 207.535 49.6596 207.502 49.7608C207.482 49.8351 207.36 49.9095 207.138 49.9842C207.037 50.0182 206.929 50.0319 206.814 50.0254C206.713 49.9919 206.605 49.9044 206.49 49.763C206.172 49.4196 205.895 49.0964 205.658 48.7933C205.414 48.47 205.181 48.1434 204.958 47.8133C204.754 47.4764 204.534 47.1227 204.297 46.7522C204.061 46.3816 203.79 45.9774 203.485 45.5396C202.998 44.8255 202.484 44.0643 201.942 43.256C201.394 42.4273 200.883 41.6425 200.409 40.9015C199.929 40.1402 199.522 39.4664 199.191 38.8802C198.852 38.2738 198.638 37.8391 198.55 37.5762C198.509 37.4549 198.455 37.2931 198.387 37.0908C198.34 36.8818 198.305 36.6795 198.285 36.4839C198.278 36.2613 198.294 36.0757 198.334 35.9272C198.388 35.7517 198.495 35.6368 198.657 35.5825C198.758 35.5485 198.914 35.6764 199.124 35.966C199.347 36.2286 199.563 36.5385 199.773 36.8956C199.996 37.2257 200.196 37.5524 200.372 37.8759C200.562 38.1723 200.66 38.3306 200.667 38.3508C200.897 38.7686 201.154 39.2335 201.439 39.7456C201.737 40.2307 202.038 40.7259 202.343 41.2312C202.647 41.7365 202.955 42.2182 203.267 42.6763C203.571 43.1141 203.862 43.4778 204.139 43.7673C204.092 43.5583 204.064 43.2413 204.056 42.8163C204.049 42.3913 204.071 41.9224 204.124 41.4095C204.177 40.8967 204.247 40.367 204.333 39.8204C204.433 39.2467 204.55 38.7236 204.684 38.2511C204.838 37.7718 205.006 37.3667 205.187 37.0357C205.389 36.698 205.611 36.4884 205.854 36.4069C206.238 36.2779 206.518 36.2402 206.693 36.2938C206.889 36.3406 207.011 36.4347 207.058 36.5763C207.099 36.6977 207.009 36.9981 206.787 37.4775C206.559 37.9367 206.331 38.5309 206.103 39.26C205.868 39.9688 205.711 40.7754 205.632 41.6795C205.547 42.5635 205.663 43.4807 205.982 44.4312C206.098 44.775 206.291 45.0478 206.561 45.2496C206.845 45.4244 207.165 45.5418 207.523 45.6017C207.901 45.6549 208.299 45.6675 208.717 45.6396C209.149 45.5847 209.557 45.4928 209.941 45.3638C210.285 45.2484 210.656 45.1126 211.053 44.9566C211.451 44.8006 211.818 44.6548 212.155 44.5191C212.506 44.3564 212.799 44.2243 213.035 44.1226C213.291 44.0141 213.449 43.9496 213.51 43.9293C213.611 43.8953 213.712 43.8951 213.814 43.9286C213.915 43.9621 213.989 44.0497 214.037 44.1912Z" fill="black"/>
</svg>
