<svg width="24" height="24" viewBox="0 0 24 24" fill="none" xmlns="http://www.w3.org/2000/svg">
<g clip-path="url(#clip0_260_4)">
<mask id="mask0_260_4" style="mask-type:luminance" maskUnits="userSpaceOnUse" x="0" y="0" width="24" height="24">
<path d="M24 0H0V24H24V0Z" fill="white"/>
</mask>
<g mask="url(#mask0_260_4)">
<path fill-rule="evenodd" clip-rule="evenodd" d="M14 22.49C12.19 22.54 9.94999 22.37 7.78999 22.26C5.92999 22.17 2.78999 22.26 1.10999 21.95C1.03548 21.9445 0.961497 21.9662 0.901662 22.0109C0.841826 22.0557 0.800165 22.1205 0.784344 22.1935C0.768522 22.2665 0.779606 22.3428 0.815555 22.4083C0.851504 22.4738 0.909899 22.5241 0.979995 22.55C2.47468 22.9208 3.99593 23.1749 5.52999 23.31C8.36156 23.5125 11.2053 23.4724 14.03 23.19C14.1228 23.186 14.2103 23.1453 14.2731 23.0769C14.3359 23.0084 14.369 22.9178 14.365 22.825C14.361 22.7322 14.3203 22.6447 14.2519 22.5819C14.1834 22.5191 14.0928 22.486 14 22.49Z" fill="white"/>
<path fill-rule="evenodd" clip-rule="evenodd" d="M0.929996 20.82C0.929996 18.94 1.18 4.21 1.15 2.91C1.15 1.79 1.4 1.64 2.25 1.55C6.87792 1.25084 11.5197 1.23081 16.15 1.49C17.54 1.61 17.65 2.06 17.96 5.56C18.27 9.06 18.02 9.42 18.49 9.41C18.5307 9.40871 18.5708 9.39941 18.6079 9.38262C18.645 9.36584 18.6785 9.3419 18.7063 9.31218C18.7342 9.28246 18.7559 9.24754 18.7703 9.20942C18.7846 9.1713 18.7913 9.13072 18.79 9.09C18.79 7.33 18.68 4.85 18.49 3.09C18.32 1.58 17.87 0.780004 16.25 0.580004C11.5539 0.115394 6.82684 0.0518313 2.12 0.390004C0.619996 0.560004 -0.0600035 1.26 -3.51388e-06 3C-3.51388e-06 3.91 0.149996 18.76 0.229996 20.89C0.239279 20.9828 0.285056 21.0682 0.357258 21.1272C0.393008 21.1565 0.43417 21.1784 0.478393 21.1918C0.522616 21.2051 0.569034 21.2096 0.614996 21.205C0.660959 21.2004 0.705566 21.1868 0.746271 21.165C0.786977 21.1431 0.822982 21.1135 0.852233 21.0777C0.881483 21.042 0.903405 21.0008 0.916748 20.9566C0.930091 20.9124 0.934593 20.866 0.929996 20.82Z" fill="white"/>
<path fill-rule="evenodd" clip-rule="evenodd" d="M4.07999 6.26001C4.87999 6.26001 8.17999 6.37001 9.50999 6.36001C10.42 6.36001 14.3 6.19001 14.63 6.25001C14.6746 6.26183 14.7212 6.26474 14.767 6.25857C14.8127 6.2524 14.8568 6.23728 14.8968 6.21406C14.9367 6.19085 14.9717 6.16 14.9997 6.12327C15.0277 6.08654 15.0482 6.04466 15.06 6.00001C15.0718 5.95536 15.0747 5.90882 15.0686 5.86304C15.0624 5.81727 15.0473 5.77316 15.0241 5.73323C15.0008 5.6933 14.97 5.65834 14.9333 5.63033C14.8965 5.60232 14.8546 5.58183 14.81 5.57001C13.0487 5.34104 11.2759 5.21084 9.49999 5.18001C7.65632 5.18284 5.81628 5.34343 3.99999 5.66001C3.92042 5.67062 3.84833 5.7124 3.79957 5.77616C3.75081 5.83992 3.72938 5.92044 3.73999 6.00001C3.7506 6.07957 3.79238 6.15166 3.85614 6.20042C3.9199 6.24918 4.00042 6.27062 4.07999 6.26001Z" fill="white"/>
<path fill-rule="evenodd" clip-rule="evenodd" d="M14.74 9.82001C11.2205 9.43491 7.66949 9.43491 4.14999 9.82001C4.07857 9.833 4.01396 9.87064 3.96744 9.92638C3.92093 9.98212 3.89545 10.0524 3.89545 10.125C3.89545 10.1976 3.92093 10.2679 3.96744 10.3236C4.01396 10.3794 4.07857 10.417 4.14999 10.43C5.14999 10.52 8.20999 10.7 9.54999 10.71C10.63 10.71 14.07 10.56 14.71 10.51C14.7597 10.5204 14.8111 10.5199 14.8606 10.5085C14.91 10.4971 14.9565 10.4751 14.9966 10.4439C15.0367 10.4128 15.0696 10.3733 15.0929 10.3282C15.1162 10.2831 15.1294 10.2334 15.1316 10.1827C15.1338 10.1319 15.125 10.0813 15.1056 10.0344C15.0863 9.98741 15.057 9.9452 15.0198 9.91069C14.9825 9.87619 14.9382 9.8502 14.8899 9.83454C14.8416 9.81888 14.7904 9.81393 14.74 9.82001Z" fill="white"/>
<path fill-rule="evenodd" clip-rule="evenodd" d="M4.06001 14.44C5.06001 14.52 8.15001 14.7 9.46001 14.71C10.46 14.71 13.99 14.56 14.62 14.52C14.7128 14.52 14.8018 14.4831 14.8675 14.4175C14.9331 14.3519 14.97 14.2628 14.97 14.17C14.97 14.0772 14.9331 13.9882 14.8675 13.9225C14.8018 13.8569 14.7128 13.82 14.62 13.82C11.1005 13.434 7.54946 13.434 4.03001 13.82C3.94779 13.824 3.87052 13.8605 3.8152 13.9214C3.75987 13.9824 3.73103 14.0628 3.73501 14.145C3.73899 14.2272 3.77546 14.3045 3.83641 14.3598C3.89736 14.4151 3.97779 14.444 4.06001 14.44Z" fill="white"/>
<path fill-rule="evenodd" clip-rule="evenodd" d="M8.28001 20.14C8.24036 20.1461 8.20234 20.16 8.16817 20.181C8.13401 20.202 8.1044 20.2296 8.08109 20.2622C8.05778 20.2948 8.04125 20.3318 8.03248 20.3709C8.02371 20.4101 8.02286 20.4506 8.03001 20.49C8.03001 20.79 9.34 20.99 9.65 21C9.8 21 11.3 21 11.37 20.61C11.44 20.22 9.94001 19.85 9.71001 19.83C9.21583 19.8219 8.72645 19.928 8.28001 20.14Z" fill="white"/>
<path fill-rule="evenodd" clip-rule="evenodd" d="M24 21.33C23.9046 18 23.1144 14.7267 21.68 11.72C20.56 9.45003 17.32 9.28003 18 13.48C18.09 14.01 18.1 16.26 18.21 16.83C17.7952 16.5718 17.3565 16.3541 16.9 16.18C14.97 15.48 13.83 16.77 14.97 18.74C15.7159 19.8747 16.5955 20.9155 17.59 21.84C17.59 23.03 17.59 22.28 17.65 23.48C17.663 23.5514 17.7006 23.616 17.7564 23.6626C17.8121 23.7091 17.8824 23.7346 17.955 23.7346C18.0276 23.7346 18.0979 23.7091 18.1536 23.6626C18.2094 23.616 18.247 23.5514 18.26 23.48C18.2436 22.9865 18.2536 22.4925 18.29 22C18.311 21.7914 18.2765 21.581 18.19 21.39C17.3824 20.581 16.6494 19.7008 16 18.76C14.92 17.06 15.18 16.15 18.21 18.21C18.51 18.42 18.76 18.62 19.1 18.49C19.44 18.36 19.49 17.95 19.43 17.49C19.32 16.61 19.03 13.29 19.03 12.64C19.03 12.32 19.03 11.36 19.38 11.31C19.6543 11.3232 19.9189 11.4151 20.1424 11.5747C20.3658 11.7343 20.5385 11.9549 20.64 12.21C21.0495 12.9613 21.407 13.7398 21.71 14.54C22.71 17.19 23.52 22.05 23.19 23.4C23.17 23.4465 23.1602 23.4968 23.1615 23.5474C23.1628 23.598 23.1751 23.6478 23.1974 23.6932C23.2198 23.7386 23.2518 23.7786 23.2911 23.8105C23.3305 23.8424 23.3763 23.8653 23.4253 23.8778C23.4744 23.8902 23.5256 23.8919 23.5754 23.8826C23.6252 23.8734 23.6724 23.8534 23.7137 23.8242C23.755 23.7949 23.7895 23.757 23.8147 23.7132C23.84 23.6693 23.8554 23.6204 23.86 23.57C24.0076 22.8331 24.0547 22.0796 24 21.33Z" fill="white"/>
</g>
</g>
<defs>
<clipPath id="clip0_260_4">
<rect width="24" height="24" fill="white"/>
</clipPath>
</defs>
</svg>
