<svg width="9" height="12" viewBox="0 0 9 12" fill="none" xmlns="http://www.w3.org/2000/svg">
<path d="M1.71094 11.7158H7.28906C8.04492 11.7158 8.41406 11.3408 8.41406 10.5205V6.21973C8.41406 5.48145 8.10938 5.10059 7.48242 5.03613V3.55957C7.48242 1.35059 6.03516 0.28418 4.5 0.28418C2.96484 0.28418 1.51758 1.35059 1.51758 3.55957V5.06543C0.943359 5.15332 0.585938 5.52832 0.585938 6.21973V10.5205C0.585938 11.3408 0.955078 11.7158 1.71094 11.7158ZM2.46094 3.43652C2.46094 1.96582 3.4043 1.18652 4.5 1.18652C5.5957 1.18652 6.53906 1.96582 6.53906 3.43652V5.03027L2.46094 5.03613V3.43652Z" fill="#DBDBDC"/>
</svg>
