<svg  viewBox="0 0 51 51" fill="none" xmlns="http://www.w3.org/2000/svg">
<g clip-path="url(#clip0_251_5)">
<path d="M29.9528 25.383C29.9528 21.8924 26.173 19.6989 23.1655 21.4442C20.1581 23.1895 20.1581 27.5766 23.1655 29.3219C26.173 31.0672 29.9528 28.8737 29.9528 25.383ZM40.3132 16.9989C43.3075 2.686 36.72 -1.8055 25.5212 8.55489C14.9811 -1.3264 7.47535 1.7877 10.6693 16.939C-4.05907 21.3791 -3.08324 29.7374 10.7891 34.0067C7.61509 47.9603 13.5439 53.0507 25.5212 42.5106C37.1392 52.9309 43.3051 48.0521 40.1335 33.9468C55.2649 28.8165 53.9075 21.3906 40.3132 16.9989ZM38.277 16.4599C35.9033 15.9245 33.6064 15.5347 31.2703 15.3221C30.0395 13.5224 28.6059 11.7247 26.9585 10.0521C35.937 1.43979 41.2288 4.1308 38.277 16.4599ZM15.1009 28.1378C15.9892 30.0342 17.157 31.7709 18.0354 33.2282C16.6051 33.0819 15.0643 32.8598 13.4241 32.5694C13.9497 31.0983 14.5092 29.621 15.1009 28.1378ZM14.9811 22.9876C14.3278 21.4192 13.7315 19.9054 13.2444 18.4961C14.9377 18.1451 16.5969 17.8264 18.0354 17.7175C16.9648 19.3994 15.9479 21.1577 14.9811 22.9876ZM16.2388 25.6226C17.7032 22.6897 19.2523 19.9058 20.9698 17.4181C24.0173 17.2429 27.0323 17.2584 30.0127 17.478C31.6843 19.8071 33.2444 22.5909 34.7437 25.6226C33.6217 27.9412 32.0285 30.6133 30.1924 33.4677C27.1267 33.6999 23.9831 33.6678 20.7901 33.4677C19.1718 30.9884 17.652 28.3771 16.2388 25.6226ZM35.8816 28.1378C36.4631 29.5489 37.0005 30.9872 37.4985 32.4497C35.9615 32.7733 34.4452 33.0092 32.9471 33.1683C33.9725 31.5796 34.9453 29.8927 35.8816 28.1378ZM32.9471 17.7175C34.58 17.9411 36.1574 18.2202 37.6782 18.556C37.1694 20.0678 36.5914 21.5455 35.9415 22.9876C35.0145 21.1593 34.0193 19.3997 32.9471 17.7175ZM28.3359 15.0825C26.4707 15.0094 24.5733 15.0117 22.6466 15.0825C23.4901 13.9732 24.4302 12.8144 25.4613 11.6091C26.4661 12.6938 27.4182 13.8612 28.3359 15.0825ZM24.024 10.0521C22.3766 11.7247 20.943 13.4625 19.7122 15.2622C17.3761 15.4748 15.0193 15.8646 12.6456 16.4C9.83089 3.88373 15.0455 1.43979 24.024 10.0521ZM11.3281 32.0305C-1.14833 28.2776 -0.54946 22.4286 11.2083 18.9752C11.9275 21.1577 12.7982 23.3743 13.7834 25.5028C12.8261 27.7041 11.9787 29.965 11.3281 32.0305ZM12.8851 34.5457C15.0011 35.0647 17.2435 35.3139 19.5924 35.5638C21.0058 37.5584 22.4694 39.4127 24.024 41.0135C14.8813 49.7769 9.78458 46.5929 12.8851 34.5457ZM25.4613 39.5163C24.3779 38.3944 23.3664 37.1232 22.4071 35.7434C24.5454 35.7885 26.6106 35.7935 28.5754 35.7434C27.6239 37.0934 26.5846 38.3497 25.4613 39.5163ZM26.9585 41.0135C28.6266 39.201 30.0971 37.3637 31.3901 35.5039C33.5969 35.3415 35.8326 35.0025 38.0974 34.4858C41.2259 47.3089 35.5454 49.2024 26.9585 41.0135ZM39.5946 31.9107C38.9531 29.8453 38.143 27.7041 37.1991 25.5028C38.1705 23.3743 39.0052 21.2176 39.7143 19.0351C51.1926 22.5085 52.1109 28.058 39.5946 31.9107Z" fill="white"/>
</g>
<defs>
<clipPath id="clip0_251_5">
<rect width="51" height="51" fill="white"/>
</clipPath>
</defs>
</svg>
