<svg  viewBox="0 0 51 51" fill="none" xmlns="http://www.w3.org/2000/svg">
<path d="M25.5016 10.2008C18.7015 10.2008 14.4529 13.5995 12.7516 20.3996C15.3008 17.0005 18.2767 15.7259 21.6758 16.5758C23.6166 17.0595 25.0035 18.4668 26.5395 20.0263C29.0393 22.5631 31.9328 25.5 38.2516 25.5C45.0513 25.5 49.3003 22.1009 51.0016 15.2992C48.452 18.7003 45.4765 19.9749 42.077 19.125C40.1366 18.6409 38.7512 17.234 37.2133 15.6745C34.7151 13.1377 31.8224 10.2008 25.5016 10.2008ZM12.7516 25.5C5.95185 25.5 1.70292 28.8991 0.00158691 35.7008C2.55079 32.2997 5.52632 31.0251 8.92579 31.875C10.8666 32.3591 12.2535 33.766 13.7895 35.3255C16.2893 37.8623 19.1828 40.7992 25.5016 40.7992C32.3013 40.7992 36.5503 37.4005 38.2516 30.6004C35.702 33.9995 32.7265 35.2741 29.327 34.4242C27.3866 33.9405 26.0012 32.5332 24.4633 30.9737C21.9651 28.4369 19.0724 25.5 12.7516 25.5Z" fill="white"/>
</svg>
