<svg width="60" height="60" viewBox="0 0 60 60" fill="none" xmlns="http://www.w3.org/2000/svg">
<g clip-path="url(#clip0_255_4)">
<path fill-rule="evenodd" clip-rule="evenodd" d="M29.175 53.4C28.8434 50.2834 28.3005 47.193 27.55 44.15C27.5469 44.0526 27.5241 43.9567 27.4831 43.8683C27.4421 43.7798 27.3837 43.7006 27.3113 43.6352C27.239 43.5699 27.1542 43.5198 27.062 43.488C26.9699 43.4561 26.8722 43.4432 26.775 43.45C25.45 43.45 26.05 45.95 26.075 46.55C26.0287 48.9674 26.1876 51.3844 26.55 53.775C27.45 58.45 27.525 59.025 27.775 59.275C28.025 59.525 28.6 59.925 29.1 59.475C29.3878 57.4618 29.413 55.4197 29.175 53.4Z" fill="white"/>
<path fill-rule="evenodd" clip-rule="evenodd" d="M19.525 35C19.7438 35 19.9536 34.9131 20.1084 34.7583C20.2631 34.6036 20.35 34.3938 20.35 34.175C20.35 33.9562 20.2631 33.7463 20.1084 33.5916C19.9536 33.4369 19.7438 33.35 19.525 33.35C16.5267 32.866 13.4535 33.194 10.625 34.3C10.4067 34.3548 10.2125 34.48 10.0724 34.6563C9.93235 34.8325 9.85418 35.0499 9.84999 35.275C10.725 37.5 19.325 35.15 19.525 35Z" fill="white"/>
<path fill-rule="evenodd" clip-rule="evenodd" d="M16.45 15.25C16.45 16.6 17.125 16.575 18.1 15.25C17.9412 13.0946 17.9412 10.9304 18.1 8.77498C18.1 7.42498 18.3 3.77498 18.3 3.42498C19.45 2.39998 24.075 2.82498 26.7 2.87498C26.9 3.69998 26.7 2.24998 26.85 8.12498C26.8209 8.39085 26.8209 8.65911 26.85 8.92498C25.425 9.27498 21.85 8.92498 20.425 9.14998C20.3183 9.17132 20.2168 9.21346 20.1264 9.27401C20.036 9.33456 19.9584 9.41232 19.8981 9.50286C19.8377 9.5934 19.7958 9.69493 19.7747 9.80168C19.7535 9.90842 19.7537 10.0183 19.775 10.125C19.7963 10.2317 19.8385 10.3331 19.899 10.4235C19.9596 10.5139 20.0373 10.5915 20.1279 10.6519C20.2184 10.7123 20.32 10.7542 20.4267 10.7753C20.5334 10.7964 20.6433 10.7963 20.75 10.775C22.65 10.45 26.15 11.625 28.25 10.775C29.15 10.35 29.175 9.14998 29.2 8.27498C29.4979 5.96164 29.5399 3.6225 29.325 1.29998C29.1511 0.962853 28.8902 0.678414 28.5693 0.476191C28.2483 0.273968 27.8792 0.161332 27.5 0.149977C24.8205 -0.0516199 22.1295 -0.0516199 19.45 0.149977C14.8 0.974977 15.95 3.59998 15.925 4.54998C15.7911 8.12511 15.9667 11.7051 16.45 15.25Z" fill="white"/>
<path fill-rule="evenodd" clip-rule="evenodd" d="M54.325 27.7C53.05 21.95 52.55 18.5 47.3 17.125C43.625 16.15 20.45 13.525 9.79999 19.2C8.71778 19.8256 7.77121 20.6608 7.0157 21.6567C6.26019 22.6526 5.71091 23.7892 5.39999 25C4.60711 27.7291 4.21138 30.5581 4.22499 33.4C4.31685 36.5365 4.57555 39.6659 4.99999 42.775C5.02421 42.9015 5.0817 43.0193 5.16656 43.1163C5.25142 43.2132 5.36059 43.2858 5.48281 43.3265C5.60504 43.3673 5.73591 43.3747 5.86197 43.3481C5.98802 43.3214 6.1047 43.2617 6.19999 43.175C6.87499 42.675 4.39999 28.675 8.89999 23.325C10.3874 21.5296 12.483 20.3439 14.788 19.9935C17.093 19.6432 19.4463 20.1527 21.4 21.425C25.55 23.925 26.175 30.4 26.575 35.3C26.85 38.775 27.15 40.6 24.3 41.075C24.1 41.075 11.8 42.2 10.1 41.85C9.27499 41.675 8.82499 40.775 8.12499 41.475C8.04714 41.5517 7.98532 41.6432 7.94312 41.7441C7.90092 41.8449 7.87919 41.9532 7.87919 42.0625C7.87919 42.1718 7.90092 42.28 7.94312 42.3809C7.98532 42.4818 8.04714 42.5732 8.12499 42.65C8.66221 43.0756 9.28119 43.3862 9.94349 43.5625C10.6058 43.7388 11.2973 43.7771 11.975 43.675C15.225 43.675 24.475 43.3 24.625 43.275C29.25 42.7 29.325 39.3 29.1 35.125C28.7 27.625 27.8 20.925 21.025 18.1H21.825C37.475 18.7 38.425 17.325 46.6 19.725C50.125 20.75 50.325 22.225 51.6 28.3C52.425 31.85 54.825 39.4 51.075 40.525C48.325 41.35 30.75 41.575 30.1 41.6C29.8812 41.6 29.6713 41.6869 29.5166 41.8416C29.3619 41.9963 29.275 42.2062 29.275 42.425C29.275 42.6438 29.3619 42.8536 29.5166 43.0083C29.6713 43.1631 29.8812 43.25 30.1 43.25H36.325C35.3459 48.034 35.043 52.9318 35.425 57.8C35.425 58.75 35.425 60.025 36.375 59.9C36.5487 59.917 36.7228 59.8707 36.8652 59.7697C37.0076 59.6686 37.1087 59.5196 37.15 59.35C37.3 59.025 38.075 52.55 38.15 51.175C38.2389 49.8264 38.2389 48.4735 38.15 47.125C38.0565 45.835 38.0565 44.54 38.15 43.25C40.85 43.25 43.675 43.25 47.4 43.1C50.25 42.95 53.325 43.3 54.9 40.6C56.85 36.85 55.2 31.725 54.325 27.7Z" fill="white"/>
</g>
<defs>
<clipPath id="clip0_255_4">
<rect width="60" height="60" fill="white"/>
</clipPath>
</defs>
</svg>
