<svg width="60" height="60" viewBox="0 0 60 60" fill="none" xmlns="http://www.w3.org/2000/svg">
<g clip-path="url(#clip0_240_209)">
<path fill-rule="evenodd" clip-rule="evenodd" d="M6.87499 27.0188C6.87499 28.3188 7.34999 29.5188 7.49999 30.7188C7.49319 30.8411 7.51143 30.9635 7.5536 31.0786C7.59577 31.1936 7.66098 31.2988 7.74525 31.3877C7.82951 31.4767 7.93104 31.5475 8.04362 31.5958C8.15621 31.6441 8.27747 31.669 8.39999 31.6688C8.64781 31.6756 8.88849 31.5854 9.07066 31.4172C9.25282 31.249 9.36204 31.0163 9.37499 30.7688L9.74999 27.9188C12.5671 27.5149 15.4051 27.2728 18.25 27.1938C18.25 28.2188 18.5 29.2438 18.65 30.2688C18.6432 30.3903 18.6605 30.5119 18.7009 30.6267C18.7412 30.7416 18.8039 30.8473 18.8851 30.9379C18.9664 31.0284 19.0648 31.1021 19.1746 31.1546C19.2844 31.2071 19.4035 31.2374 19.525 31.2438C19.7754 31.2509 20.0189 31.1614 20.2051 30.9939C20.3913 30.8263 20.5058 30.5935 20.525 30.3438C20.7 29.2438 20.925 28.1938 21.075 27.1188H23.575C25.325 27.1188 27.05 27.1188 28.775 27.2688V29.4938V31.2688L27 31.4188C25.45 31.6688 23.975 32.0938 22.475 32.3938C22.2539 32.4067 22.0467 32.5054 21.8973 32.6688C21.7478 32.8322 21.6681 33.0475 21.675 33.2688C21.6941 33.4853 21.7954 33.6864 21.9581 33.8305C22.1209 33.9747 22.3327 34.051 22.55 34.0438C24.325 34.1938 26.025 34.4438 27.85 34.4438H28.95V34.7938C28.9212 35.0383 28.9886 35.2845 29.1378 35.4804C29.2871 35.6763 29.5066 35.8066 29.75 35.8438C29.8721 35.865 29.9972 35.8608 30.1176 35.8314C30.238 35.802 30.351 35.7481 30.4496 35.673C30.5482 35.5979 30.6302 35.5032 30.6905 35.3949C30.7508 35.2867 30.7881 35.1671 30.8 35.0438C30.8119 34.8106 30.8119 34.577 30.8 34.3438C32.35 34.3438 33.825 33.9938 35.35 34.0188C35.4716 34.0363 35.5955 34.0295 35.7145 33.9986C35.8334 33.9678 35.9451 33.9135 36.0428 33.839C36.1406 33.7646 36.2225 33.6714 36.2838 33.5649C36.3452 33.4584 36.3846 33.3407 36.4 33.2188C36.4176 33.0971 36.4107 32.9732 36.3799 32.8543C36.349 32.7353 36.2947 32.6237 36.2203 32.5259C36.1458 32.4282 36.0526 32.3463 35.9461 32.2849C35.8396 32.2236 35.7219 32.1841 35.6 32.1688C34.1663 31.7916 32.7024 31.5406 31.225 31.4188C31.4007 30.5938 31.526 29.759 31.6 28.9188V27.3938H34.375L39.1 27.7438C39.1 28.5688 39.325 29.4188 39.5 30.2438C39.5031 30.3674 39.5311 30.4892 39.5822 30.6019C39.6332 30.7146 39.7064 30.8159 39.7973 30.8998C39.8882 30.9838 39.995 31.0486 40.1114 31.0905C40.2278 31.1324 40.3515 31.1505 40.475 31.1438C40.7247 31.1246 40.9575 31.0101 41.1251 30.8239C41.2927 30.6377 41.3821 30.3942 41.375 30.1438C41.375 29.3938 41.55 28.6688 41.675 27.9188C42.925 27.9188 44.175 28.0438 45.45 28.1938L50.775 28.5938C50.775 29.4438 50.975 30.2688 51.025 31.0938C51.0178 31.3442 51.1073 31.5877 51.2749 31.7739C51.4424 31.9601 51.6752 32.0746 51.925 32.0938C52.0485 32.1005 52.1722 32.0824 52.2886 32.0405C52.405 31.9986 52.5118 31.9338 52.6027 31.8498C52.6936 31.7659 52.7668 31.6646 52.8178 31.5519C52.8689 31.4392 52.8968 31.3175 52.9 31.1938C53.2064 29.974 53.4484 28.739 53.625 27.4938C53.6748 26.9449 53.6748 26.3926 53.625 25.8438C53.7529 25.2854 53.8282 24.7162 53.85 24.1438C52.95 19.2938 52.875 19.6938 52.45 19.5938C51.6424 19.3981 50.8244 19.2479 50 19.1438C48.1 18.8188 46.125 18.6938 44.25 18.4438C40.6695 17.9392 37.0641 17.6304 33.45 17.5188C29.796 17.4531 26.141 17.5783 22.5 17.8938C19.575 18.2438 16.7 18.3938 13.875 18.7938C6.59999 19.7688 7.49999 20.3938 6.87499 24.4188C6.74985 25.2809 6.74985 26.1566 6.87499 27.0188ZM48.9 21.0688C49.6 21.0688 50.275 21.2188 50.975 21.3188C50.975 22.3438 50.975 23.3438 50.85 24.3938V25.9188V26.5688L46 25.8438C44.75 25.6438 43.5 25.5188 42.225 25.3188C42.2387 25.2276 42.2387 25.1349 42.225 25.0438V23.4938C42.225 22.5688 42.025 21.6938 41.9 20.7938H43.925C45.575 20.9438 47.225 20.9438 48.9 21.0688ZM40 20.7688C39.775 21.6188 39.5 22.4438 39.35 23.2688C39.2617 23.781 39.2116 24.2991 39.2 24.8188C37.775 24.6188 36.375 24.3438 34.95 24.2188C33.9 24.2188 32.85 24.2188 31.8 24.0938C31.8 22.9188 31.575 21.7438 31.525 20.5688H33.425C35.525 20.6188 37.725 20.6938 40 20.7688ZM22.825 20.7688C25.1 20.6188 27.375 20.7688 29.65 20.7688C29.4 21.8688 29.2 22.9938 29.05 24.1188H27.4C25.375 24.1188 23.375 24.3688 21.35 24.5438C21.3625 24.3273 21.3625 24.1103 21.35 23.8938C21.35 22.8938 21.125 21.9438 21 20.9938L22.825 20.7688ZM14.175 20.7688H19.175C18.8889 21.6627 18.6552 22.5726 18.475 23.4938V24.5188C15.7 24.8688 12.95 25.3938 10.225 26.0188V24.1438C10.0912 23.2413 10.016 22.331 9.99999 21.4188C11.3547 21.1653 12.7241 20.9983 14.1 20.9188L14.175 20.7688Z" fill="white"/>
<path fill-rule="evenodd" clip-rule="evenodd" d="M57.5 50.8219C55.8538 50.2868 54.4074 49.2674 53.35 47.8969C52.4245 46.5533 51.9436 44.9532 51.975 43.3219C51.8987 40.8747 51.5123 38.4469 50.825 36.0969C50.5189 35.2018 50.0063 34.3914 49.3288 33.7312C48.6512 33.071 47.8277 32.5797 46.925 32.2969C46.8055 32.2389 46.6752 32.2065 46.5424 32.202C46.4096 32.1974 46.2774 32.2208 46.1542 32.2705C46.031 32.3203 45.9196 32.3953 45.8272 32.4907C45.7348 32.5862 45.6635 32.7 45.6178 32.8247C45.5721 32.9495 45.5531 33.0824 45.562 33.215C45.5709 33.3476 45.6075 33.4768 45.6694 33.5943C45.7313 33.7118 45.8172 33.8151 45.9215 33.8973C46.0259 33.9796 46.1463 34.0391 46.275 34.0719C46.836 34.336 47.3259 34.73 47.7042 35.2213C48.0825 35.7126 48.3381 36.2871 48.45 36.8969C48.7133 38.1538 48.8141 39.4393 48.75 40.7219V43.5469C48.9171 45.8143 49.8518 47.9571 51.4 49.6219C52.9519 51.1547 54.9624 52.1379 57.125 52.4219C57.2338 52.458 57.3488 52.471 57.4629 52.4601C57.5769 52.4492 57.6875 52.4147 57.7875 52.3587C57.8874 52.3027 57.9747 52.2266 58.0436 52.135C58.1125 52.0435 58.1616 51.9386 58.1877 51.8271C58.2139 51.7155 58.2165 51.5997 58.1954 51.4871C58.1744 51.3745 58.1301 51.2675 58.0654 51.1729C58.0007 51.0784 57.917 50.9983 57.8196 50.9379C57.7223 50.8775 57.6134 50.838 57.5 50.8219Z" fill="white"/>
<path fill-rule="evenodd" clip-rule="evenodd" d="M23.175 41.2188C23.0607 41.2648 22.9571 41.3337 22.8706 41.4214C22.7841 41.509 22.7165 41.6135 22.6719 41.7283C22.6274 41.8431 22.6069 41.9659 22.6117 42.089C22.6166 42.212 22.6466 42.3328 22.7 42.4438C22.8988 42.9774 22.9479 43.5553 22.8422 44.1149C22.7365 44.6744 22.4798 45.1945 22.1 45.6188C21.4111 46.3605 20.6489 47.0306 19.825 47.6188C18.9163 48.3731 18.0793 49.21 17.325 50.1188C16.6198 51.1492 16.0169 52.2461 15.525 53.3938C14.875 55.0188 14.45 56.6938 13.925 58.3938C13.8489 58.5966 13.8531 58.8208 13.9368 59.0205C14.0204 59.2203 14.1771 59.3807 14.375 59.4688C14.5528 59.5446 14.7521 59.5534 14.9359 59.4937C15.1197 59.4339 15.2757 59.3096 15.375 59.1438C16.075 57.8188 16.725 56.6438 17.425 55.3688C18.0735 54.191 18.8445 53.0849 19.725 52.0688C20.3997 51.3029 21.1264 50.5845 21.9 49.9188C22.8005 49.0691 23.5825 48.1021 24.225 47.0438C24.7553 46.2506 25.0548 45.3256 25.0901 44.3721C25.1254 43.4186 24.8952 42.4741 24.425 41.6438C24.3079 41.4291 24.1144 41.2662 23.8829 41.1875C23.6513 41.1088 23.3987 41.12 23.175 41.2188Z" fill="white"/>
<path fill-rule="evenodd" clip-rule="evenodd" d="M40.95 50.1688C40.1956 49.2601 39.3587 48.4232 38.45 47.6688C37.6261 47.0806 36.8639 46.4106 36.175 45.6688C35.7952 45.2445 35.5385 44.7245 35.4328 44.1649C35.327 43.6053 35.3762 43.0275 35.575 42.4938C35.6284 42.3828 35.6584 42.2621 35.6632 42.139C35.6681 42.0159 35.6476 41.8932 35.6031 41.7784C35.5585 41.6635 35.4909 41.5591 35.4044 41.4714C35.3178 41.3838 35.2142 41.3148 35.1 41.2688C34.8703 41.1738 34.6131 41.17 34.3807 41.2583C34.1484 41.3466 33.9586 41.5203 33.85 41.7438C33.3897 42.5682 33.1649 43.5033 33.2002 44.4469C33.2354 45.3904 33.5294 46.3061 34.05 47.0938C34.6925 48.1521 35.4745 49.1191 36.375 49.9688C37.1486 50.6346 37.8753 51.353 38.55 52.1188C39.4303 53.1408 40.209 54.246 40.875 55.4188C41.55 56.6438 42.2 57.9188 42.9 59.1938C42.9897 59.3859 43.1498 59.5361 43.3473 59.6132C43.5447 59.6903 43.7642 59.6885 43.9604 59.6081C44.1565 59.5278 44.3142 59.375 44.4007 59.1815C44.4872 58.988 44.4959 58.7686 44.425 58.5688C43.9 56.7938 43.475 55.1188 42.825 53.5688C42.3166 52.375 41.6884 51.2358 40.95 50.1688Z" fill="white"/>
<path fill-rule="evenodd" clip-rule="evenodd" d="M15.625 37.2969C15.85 36.8719 16.025 36.4219 16.25 36.0219C16.4044 35.6165 16.6057 35.2305 16.85 34.8719C17.0834 34.5451 17.3921 34.2792 17.75 34.0969C17.8786 34.0914 18.0046 34.059 18.1199 34.002C18.2353 33.9449 18.3375 33.8644 18.42 33.7656C18.5024 33.6668 18.5634 33.5519 18.5989 33.4282C18.6345 33.3045 18.6438 33.1748 18.6263 33.0473C18.6089 32.9198 18.565 32.7973 18.4975 32.6877C18.43 32.5781 18.3404 32.4838 18.2344 32.4109C18.1284 32.3379 18.0083 32.2878 17.8818 32.2639C17.7554 32.24 17.6253 32.2427 17.5 32.2719C16.7577 32.3044 16.0336 32.5116 15.3863 32.8764C14.7391 33.2413 14.1871 33.7537 13.775 34.3719C13.2914 35.0026 12.9425 35.7259 12.75 36.4969C12.537 37.5832 12.453 38.6909 12.5 39.7969C12.4743 39.9021 12.4703 40.0114 12.4881 40.1182C12.5059 40.225 12.5453 40.3271 12.6037 40.4183C12.6621 40.5094 12.7385 40.5878 12.8281 40.6486C12.9177 40.7094 13.0187 40.7513 13.125 40.7719C13.337 40.8167 13.5582 40.7762 13.7406 40.6593C13.923 40.5423 14.0521 40.3583 14.1 40.1469C14.425 39.2969 15 38.3219 15.625 37.2969Z" fill="white"/>
<path fill-rule="evenodd" clip-rule="evenodd" d="M44.575 34.3719C44.1576 33.7531 43.6009 33.2408 42.9496 32.8761C42.2984 32.5114 41.5707 32.3045 40.825 32.2719C40.7052 32.2472 40.5817 32.2465 40.4615 32.2696C40.3414 32.2927 40.227 32.3392 40.1248 32.4066C40.0227 32.4739 39.9348 32.5607 39.8662 32.6619C39.7976 32.7632 39.7496 32.877 39.725 32.9969C39.7004 33.1167 39.6996 33.2402 39.7227 33.3603C39.7458 33.4805 39.7924 33.5949 39.8597 33.697C39.927 33.7992 40.0138 33.8871 40.1151 33.9557C40.2164 34.0243 40.3302 34.0723 40.45 34.0969C40.817 34.2758 41.1346 34.5419 41.375 34.8719C41.6193 35.2304 41.8206 35.6164 41.975 36.0219C42.175 36.4219 42.375 36.8719 42.6 37.2969C43.175 38.3719 43.8 39.2969 44.2 40.1469C44.2206 40.2532 44.2626 40.3542 44.3234 40.4438C44.3841 40.5334 44.4625 40.6097 44.5537 40.6682C44.6448 40.7266 44.7469 40.7659 44.8537 40.7838C44.9605 40.8016 45.0698 40.7975 45.175 40.7719C45.3863 40.724 45.5704 40.5949 45.6873 40.4125C45.8043 40.23 45.8447 40.0089 45.8 39.7969C45.8666 38.6918 45.791 37.5827 45.575 36.4969C45.3914 35.7273 45.051 35.0039 44.575 34.3719Z" fill="white"/>
<path fill-rule="evenodd" clip-rule="evenodd" d="M20.9 34.7219C20.0759 35.0682 19.3154 35.5499 18.65 36.1469C18.3616 36.3939 18.1092 36.68 17.9 36.9969C17.684 37.3122 17.5155 37.6576 17.4 38.0219C17.1796 38.8368 17.0703 39.6777 17.075 40.5219C17.0107 40.7308 17.0294 40.9565 17.1271 41.1521C17.2249 41.3476 17.3942 41.498 17.6 41.5719C17.8089 41.6362 18.0346 41.6175 18.2302 41.5198C18.4257 41.422 18.5761 41.2526 18.65 41.0469C19.15 40.2969 19.75 39.7969 20.25 39.1219C20.75 38.4469 20.7 38.3719 20.925 37.9969C21.2403 37.367 21.6083 36.7648 22.025 36.1969C22.2074 36.0408 22.324 35.8214 22.3513 35.5829C22.3785 35.3443 22.3144 35.1043 22.1719 34.9111C22.0294 34.7178 21.8189 34.5858 21.583 34.5414C21.347 34.497 21.103 34.5436 20.9 34.6719V34.7219Z" fill="white"/>
<path fill-rule="evenodd" clip-rule="evenodd" d="M36 35.7688C35.8592 35.9695 35.8014 36.2168 35.8386 36.4591C35.8759 36.7013 36.0054 36.9198 36.2 37.0688C36.6167 37.6368 36.9847 38.2389 37.3 38.8688C37.525 39.2438 37.725 39.6438 37.975 39.9938C38.225 40.3438 39.075 41.1688 39.575 41.9188C39.5981 42.0338 39.6455 42.1425 39.7139 42.2376C39.7823 42.3328 39.8703 42.4124 39.9718 42.4709C40.0734 42.5294 40.1863 42.5656 40.303 42.5771C40.4196 42.5886 40.5374 42.5751 40.6485 42.5375C40.7595 42.4999 40.8612 42.439 40.9469 42.359C41.0326 42.279 41.1002 42.1816 41.1453 42.0734C41.1904 41.9652 41.2119 41.8486 41.2084 41.7314C41.2049 41.6143 41.1765 41.4992 41.125 41.3938C41.1379 40.5508 41.037 39.7099 40.825 38.8938C40.698 38.5342 40.5302 38.1903 40.325 37.8688C40.108 37.558 39.8564 37.2728 39.575 37.0188C38.9058 36.4269 38.1462 35.9458 37.325 35.5938C37.1256 35.4426 36.8746 35.3762 36.6265 35.4089C36.3784 35.4417 36.1533 35.571 36 35.7688Z" fill="white"/>
<path fill-rule="evenodd" clip-rule="evenodd" d="M59.85 30.3969C59.85 28.6469 60.025 26.7219 60 24.8219C60.022 21.4077 59.6529 18.0021 58.9 14.6719C58.9216 14.5573 58.9171 14.4394 58.8868 14.3269C58.8565 14.2143 58.8012 14.1101 58.725 14.0219C58.225 12.4469 59.15 13.5469 53.05 12.6469L46.65 11.7969C46.855 10.6719 47.208 9.57911 47.7 8.54688C48.0004 7.85661 48.3778 7.20246 48.825 6.59688C49.1323 6.09577 49.5568 5.6769 50.0621 5.37639C50.5673 5.07587 51.138 4.90273 51.725 4.87188C51.8466 4.88945 51.9705 4.88261 52.0895 4.85175C52.2085 4.82089 52.3201 4.76664 52.4178 4.69216C52.5156 4.61768 52.5975 4.52446 52.6588 4.41797C52.7202 4.31147 52.7597 4.19381 52.775 4.07188C52.7926 3.95025 52.7857 3.82634 52.7549 3.70738C52.724 3.58842 52.6698 3.47681 52.5953 3.37905C52.5208 3.2813 52.4276 3.19936 52.3211 3.13804C52.2146 3.07671 52.0969 3.03723 51.975 3.02188C51.004 2.75442 49.9784 2.75744 49.0091 3.03063C48.0397 3.30381 47.1634 3.83677 46.475 4.57188C46.142 4.93102 45.8487 5.32495 45.6 5.74688C45.2279 6.33945 44.9575 6.9901 44.8 7.67188C44.5241 8.94882 44.5241 10.2699 44.8 11.5469L43.35 11.3719C40.675 11.0969 38.025 10.9219 35.35 10.8719C31.4 10.8719 27.425 11.0219 23.475 11.0969C18.85 11.3469 14.25 11.6219 9.7 12.1969C1.05 13.3219 1.675 14.0719 1.375 19.0469C1.225 21.3969 0.824999 24.1969 0.599999 26.8719C0.399999 28.5469 0.274999 30.1969 0.199999 31.6219C0.124999 33.0469 0.199999 34.1219 0.199999 34.8969C0.229376 36.3562 0.499684 37.8007 0.999999 39.1719C1.25305 39.9244 1.74455 40.5739 2.4 41.0219C2.73137 41.2092 3.09689 41.3282 3.475 41.3719H6.175H6.425C6.425 42.0219 6.425 42.7219 6.25 43.2719C6.25221 44.9141 5.73603 46.5152 4.775 47.8469C3.72475 49.2358 2.27762 50.2732 0.624999 50.8219C0.518216 50.8451 0.417312 50.8899 0.32851 50.9535C0.239708 51.0172 0.164891 51.0984 0.108673 51.1921C0.0524543 51.2858 0.0160264 51.39 0.00163556 51.4983C-0.0127553 51.6066 -0.00480411 51.7168 0.0249989 51.8219C0.0781321 52.034 0.213305 52.2163 0.400815 52.3289C0.588325 52.4414 0.812831 52.4748 1.025 52.4219C3.20327 52.1036 5.21564 51.0755 6.75 49.4969C8.30881 47.7991 9.24339 45.6214 9.4 43.3219V40.4969C9.33943 39.2155 9.43174 37.9314 9.675 36.6719C9.78745 36.0588 10.0461 35.4818 10.4291 34.99C10.8121 34.4982 11.3081 34.1061 11.875 33.8469C12.0867 33.744 12.2526 33.5663 12.3407 33.3481C12.4289 33.1299 12.4328 32.8867 12.3519 32.6657C12.271 32.4447 12.1109 32.2617 11.9027 32.152C11.6945 32.0422 11.453 32.0137 11.225 32.0719C10.3398 32.3809 9.54061 32.8955 8.89304 33.5735C8.24548 34.2515 7.76805 35.0735 7.5 35.9719C7.05064 37.2042 6.76487 38.4902 6.65 39.7969C6.2 39.7969 5.325 39.6719 4.55 39.5969C4.29573 39.5897 4.04697 39.5211 3.825 39.3969C3.49352 39.0246 3.30715 38.5453 3.3 38.0469C3.17344 37.0258 3.17344 35.993 3.3 34.9719C3.3 33.5719 3.575 31.4969 3.75 29.1469C3.875 27.2469 3.925 25.1719 3.95 23.1719C4.02614 20.562 3.85875 17.9507 3.45 15.3719C5.61511 14.946 7.80162 14.6372 10 14.4469C14.525 14.1219 19.075 14.1469 23.625 14.1969C28.175 14.2469 32.8 13.9219 37.4 13.9469H43.25L52.85 14.6719C53.825 14.6719 54.9 14.6719 55.95 14.9219C56.3914 14.9831 56.8264 15.0835 57.25 15.2219C57.25 16.0719 57.375 16.9969 57.375 18.0969C57.375 20.5969 57.025 23.8469 56.9 26.8469C56.7 30.4219 56.725 33.7719 56.9 35.7719L57.25 39.7469C57.0064 39.9968 56.674 40.1406 56.325 40.1469C55.7293 40.2395 55.1278 40.2896 54.525 40.2969C54.3026 40.3333 54.1005 40.4476 53.9546 40.6193C53.8087 40.7911 53.7286 41.0091 53.7286 41.2344C53.7286 41.4597 53.8087 41.6777 53.9546 41.8494C54.1005 42.0212 54.3026 42.1355 54.525 42.1719C55.4954 42.3055 56.4796 42.3055 57.45 42.1719C58.0546 42.0431 58.5996 41.7179 59 41.2469C59.2963 40.8072 59.4769 40.2999 59.525 39.7719C59.6063 38.4815 59.6063 37.1873 59.525 35.8969C59.525 34.5219 59.725 32.5969 59.85 30.3969Z" fill="white"/>
<path fill-rule="evenodd" clip-rule="evenodd" d="M29.65 40.8218L28.75 40.6718C28.4421 40.6476 28.1329 40.6476 27.825 40.6718C27.275 40.7968 24.95 41.4718 25 42.3218C25 42.5968 25 43.0718 27.825 43.6968H28.65H29.475C32.35 43.3218 32.5 43.0718 32.5 42.5218C32.5 41.9718 32.5 41.4468 29.65 40.8218Z" fill="white"/>
</g>
<defs>
<clipPath id="clip0_240_209">
<rect width="60" height="60" fill="white"/>
</clipPath>
</defs>
</svg>
