<svg xmlns="http://www.w3.org/2000/svg" width="17" height="16" viewBox="0 0 17 16" fill="none">
<path d="M3.86152 10.1104C3.86152 11.0355 3.10583 11.7912 2.18076 11.7912C1.25569 11.7912 0.5 11.0355 0.5 10.1104C0.5 9.18538 1.25569 8.42969 2.18076 8.42969H3.86152V10.1104Z" fill="#E01E5A"/>
<path d="M4.70703 10.1104C4.70703 9.18538 5.46272 8.42969 6.38779 8.42969C7.31286 8.42969 8.06855 9.18538 8.06855 10.1104V14.3189C8.06855 15.2439 7.31286 15.9996 6.38779 15.9996C5.46272 15.9996 4.70703 15.2439 4.70703 14.3189V10.1104Z" fill="#E01E5A"/>
<path d="M6.38779 3.36152C5.46272 3.36152 4.70703 2.60583 4.70703 1.68076C4.70703 0.75569 5.46272 0 6.38779 0C7.31286 0 8.06855 0.75569 8.06855 1.68076V3.36152H6.38779Z" fill="#36C5F0"/>
<path d="M6.38917 4.20898C7.31424 4.20898 8.06993 4.96467 8.06993 5.88974C8.06993 6.81481 7.31424 7.5705 6.38917 7.5705H2.18076C1.25569 7.5705 0.5 6.81481 0.5 5.88974C0.5 4.96467 1.25569 4.20898 2.18076 4.20898H6.38917Z" fill="#36C5F0"/>
<path d="M13.1367 5.88974C13.1367 4.96467 13.8924 4.20898 14.8175 4.20898C15.7425 4.20898 16.4982 4.96467 16.4982 5.88974C16.4982 6.81481 15.7425 7.5705 14.8175 7.5705H13.1367V5.88974Z" fill="#2EB67D"/>
<path d="M12.2912 5.88917C12.2912 6.81424 11.5355 7.56993 10.6104 7.56993C9.68538 7.56993 8.92969 6.81424 8.92969 5.88917V1.68076C8.92969 0.75569 9.68538 0 10.6104 0C11.5355 0 12.2912 0.75569 12.2912 1.68076V5.88917Z" fill="#2EB67D"/>
<path d="M10.6104 12.6387C11.5355 12.6387 12.2912 13.3944 12.2912 14.3194C12.2912 15.2445 11.5355 16.0002 10.6104 16.0002C9.68538 16.0002 8.92969 15.2445 8.92969 14.3194V12.6387H10.6104Z" fill="#ECB22E"/>
<path d="M10.6104 11.7912C9.68538 11.7912 8.92969 11.0355 8.92969 10.1104C8.92969 9.18538 9.68538 8.42969 10.6104 8.42969H14.8189C15.7439 8.42969 16.4996 9.18538 16.4996 10.1104C16.4996 11.0355 15.7439 11.7912 14.8189 11.7912H10.6104Z" fill="#ECB22E"/>
</svg>