<svg width="60" height="60" viewBox="0 0 60 60" fill="none" xmlns="http://www.w3.org/2000/svg">
<g clip-path="url(#clip0_239_200)">
<path fill-rule="evenodd" clip-rule="evenodd" d="M22.775 52.9689C22.2966 52.3066 21.7335 51.7099 21.1 51.1939C20.1748 50.5228 19.1554 49.992 18.075 49.6189C18.303 49.4767 18.5202 49.3179 18.725 49.1439C19.8886 48.2646 20.708 47.0059 21.0413 45.586C21.3746 44.166 21.2008 42.6742 20.55 41.3689C19.9469 39.9845 18.8905 38.8465 17.5547 38.1422C16.2188 37.438 14.6831 37.2093 13.2 37.4939C11.8783 37.7919 10.6398 38.3813 9.57499 39.2189C8.40461 40.0609 7.52974 41.2508 7.07499 42.6189C6.76614 43.6424 6.70481 44.7246 6.89605 45.7765C7.08729 46.8283 7.52564 47.8197 8.17499 48.6689C8.54623 49.0866 8.97563 49.4486 9.44999 49.7439C8.88013 49.8955 8.32725 50.1049 7.79999 50.3689C6.90675 50.9155 6.11919 51.6184 5.47499 52.4439C4.88299 53.2566 4.42704 54.16 4.12499 55.1189C3.52997 57.0425 3.59154 59.1092 4.29999 60.9939C4.36334 61.1849 4.49628 61.3449 4.67234 61.4422C4.84839 61.5395 5.05464 61.5669 5.24999 61.5189C5.44447 61.4609 5.6084 61.3288 5.70657 61.1512C5.80474 60.9736 5.82931 60.7645 5.77499 60.5689C5.65487 59.3359 5.835 58.0922 6.29999 56.9439C6.62586 56.059 7.06268 55.219 7.59999 54.4439C8.03392 53.6895 8.60149 53.0202 9.27499 52.4689C9.70091 52.1167 10.1717 51.8224 10.675 51.5939C11.5427 51.227 12.4369 50.9261 13.35 50.6939C13.4726 50.6648 13.5874 50.6095 13.6867 50.5318C13.7859 50.4541 13.8672 50.3559 13.925 50.2439C14.1063 50.1966 14.2633 50.0831 14.3651 49.9257C14.4668 49.7684 14.5061 49.5787 14.475 49.3939C14.4328 49.1964 14.3151 49.023 14.147 48.911C13.9789 48.7989 13.7736 48.7569 13.575 48.7939C12.9196 48.9187 12.2427 48.8663 11.6143 48.6421C10.9858 48.418 10.4286 48.0303 9.99999 47.5189C9.64068 46.9211 9.4304 46.2456 9.38689 45.5495C9.34338 44.8533 9.46791 44.1569 9.74999 43.5189C10.0991 42.7651 10.6427 42.1179 11.325 41.6439C12.073 41.0972 12.9231 40.7062 13.825 40.4939C14.7039 40.3004 15.6223 40.4071 16.4335 40.7968C17.2446 41.1865 17.9018 41.8369 18.3 42.6439C18.7732 43.4608 18.9519 44.4152 18.8063 45.3479C18.6607 46.2806 18.1996 47.1352 17.5 47.7689C17.2809 47.9661 17.0372 48.1342 16.775 48.2689L15.875 48.5939C15.45 48.5939 15 49.5689 14.975 49.5939C14.9132 49.816 14.9416 50.0535 15.054 50.2548C15.1663 50.4561 15.3535 50.6049 15.575 50.6689C16.9584 51.2281 18.2038 52.0811 19.225 53.1689C19.6499 53.5999 20.0348 54.0684 20.375 54.5689C20.7216 55.0618 21.0308 55.5799 21.3 56.1189C21.9863 57.4255 22.2977 58.8964 22.2 60.3689C22.1787 60.4658 22.1766 60.5659 22.1939 60.6635C22.2113 60.7612 22.2477 60.8545 22.3011 60.938C22.4089 61.1068 22.5794 61.2258 22.775 61.2689C22.9706 61.312 23.1753 61.2757 23.3441 61.1678C23.5129 61.06 23.6319 60.8895 23.675 60.6939C24.3439 58.9074 24.4227 56.9536 23.9 55.1189C23.6442 54.346 23.2642 53.6198 22.775 52.9689Z" fill="white"/>
<path fill-rule="evenodd" clip-rule="evenodd" d="M47.675 52.9689C47.1947 52.3002 46.6224 51.7027 45.975 51.1939C45.0588 50.5227 44.0477 49.9919 42.975 49.6189C43.175 49.4939 43.425 49.3939 43.625 49.2439C44.7847 48.3615 45.6011 47.1029 45.9341 45.6842C46.2671 44.2656 46.0959 42.7752 45.45 41.4689C44.8432 40.0873 43.7863 38.9521 42.4514 38.2484C41.1166 37.5447 39.5828 37.314 38.1 37.5939C36.7766 37.887 35.5371 38.4769 34.475 39.3189C33.307 40.1634 32.4328 41.3523 31.975 42.7189C31.6696 43.7444 31.6124 44.8277 31.808 45.8796C32.0036 46.9315 32.4464 47.9218 33.1 48.7689C33.4624 49.1859 33.8834 49.5481 34.35 49.8439C33.7829 50.004 33.2308 50.2131 32.7 50.4689C31.8195 51.0229 31.0414 51.7249 30.4 52.5439C29.789 53.3448 29.3314 54.2517 29.05 55.2189C28.4414 57.1406 28.5031 59.2119 29.225 61.0939C29.2831 61.2884 29.4151 61.4523 29.5928 61.5505C29.7704 61.6487 29.9795 61.6732 30.175 61.6189C30.3695 61.5609 30.5334 61.4288 30.6316 61.2512C30.7298 61.0735 30.7543 60.8645 30.7 60.6689C30.5727 59.4358 30.7531 58.1903 31.225 57.0439C31.542 56.1598 31.9705 55.3197 32.5 54.5439C32.9504 53.7938 33.5253 53.1259 34.2 52.5689C34.6181 52.2059 35.0905 51.9107 35.6 51.6939C36.4592 51.3271 37.3451 51.0262 38.25 50.7939C38.374 50.7681 38.4903 50.714 38.59 50.636C38.6897 50.558 38.7701 50.458 38.825 50.3439C39.0094 50.302 39.1702 50.1896 39.2729 50.0308C39.3757 49.872 39.4123 49.6794 39.375 49.4939C39.357 49.3971 39.32 49.3047 39.2663 49.2221C39.2126 49.1395 39.1431 49.0684 39.0618 49.0126C38.9806 48.9569 38.8891 48.9178 38.7927 48.8974C38.6963 48.877 38.5969 48.8758 38.5 48.8939C37.7994 49.0305 37.0743 48.9642 36.4101 48.7029C35.7458 48.4416 35.1699 47.9962 34.75 47.4189C34.3907 46.8211 34.1804 46.1456 34.1369 45.4494C34.0934 44.7533 34.2179 44.0569 34.5 43.4189C34.8541 42.6324 35.4269 41.9642 36.15 41.4939C36.8955 40.943 37.7465 40.5515 38.65 40.3439C39.5289 40.1504 40.4473 40.2571 41.2585 40.6468C42.0697 41.0365 42.7268 41.6869 43.125 42.4939C43.6638 43.3043 43.8968 44.2799 43.7823 45.2463C43.6678 46.2127 43.2133 47.1069 42.5 47.7689C42.2851 47.96 42.0504 48.1276 41.8 48.2689C41.1 48.5939 40.35 48.5189 40 49.5939C39.9382 49.816 39.9666 50.0535 40.079 50.2548C40.1913 50.4561 40.3786 50.6049 40.6 50.6689C41.9801 51.2343 43.2242 52.0864 44.25 53.1689C44.6674 53.6065 45.0518 54.0745 45.4 54.5689C45.7385 55.0623 46.0393 55.5804 46.3 56.1189C46.9949 57.423 47.3151 58.894 47.225 60.3689C47.1992 60.466 47.1939 60.5673 47.2094 60.6665C47.2248 60.7657 47.2607 60.8606 47.3148 60.9452C47.3688 61.0299 47.4399 61.1023 47.5234 61.158C47.6069 61.2138 47.7011 61.2515 47.8 61.2689C47.9951 61.3068 48.1974 61.2682 48.3649 61.1612C48.5324 61.0542 48.6523 60.8869 48.7 60.6939C49.3607 58.9047 49.4307 56.9509 48.9 55.1189C48.6135 54.3394 48.1996 53.6128 47.675 52.9689Z" fill="white"/>
<path fill-rule="evenodd" clip-rule="evenodd" d="M16.55 12.9189C15.575 13.3689 14.65 13.7689 13.75 14.2939C13.1293 14.6619 12.5285 15.0625 11.95 15.4939C11.6008 15.758 11.2669 16.0418 10.95 16.3439C10.6672 16.6287 10.4831 16.9968 10.425 17.3939C10.3776 17.7145 10.4099 18.0419 10.5189 18.347C10.6279 18.6522 10.8103 18.9259 11.05 19.1439C11.7596 19.6645 12.5222 20.1086 13.325 20.4689L15.2 21.1689C15.4155 21.2386 15.6498 21.2197 15.8515 21.1166C16.0531 21.0134 16.2054 20.8344 16.275 20.6189C16.3447 20.4035 16.3258 20.1691 16.2227 19.9675C16.1195 19.7659 15.9405 19.6136 15.725 19.5439L14.5 18.5189C14.5 18.5189 13.95 18.1439 13.55 17.8439L13.9 17.6689L17.5 14.1439C17.6284 14.015 17.7073 13.8451 17.723 13.6639C17.7386 13.4827 17.69 13.3017 17.5857 13.1527C17.4814 13.0037 17.328 12.8961 17.1524 12.8488C16.9768 12.8015 16.7901 12.8175 16.625 12.8939L16.55 12.9189Z" fill="white"/>
<path fill-rule="evenodd" clip-rule="evenodd" d="M24.1 8.469C23.25 9.919 22.3 11.269 21.6 12.744C21.25 13.369 20.925 14.044 20.625 14.719C20.325 15.394 19.975 16.419 19.725 17.219C19.175 19.219 18.825 21.244 18.225 23.244C18.1588 23.3523 18.1171 23.4736 18.1025 23.5997C18.088 23.7257 18.101 23.8534 18.1407 23.9739C18.1804 24.0944 18.2459 24.2048 18.3325 24.2975C18.4191 24.3902 18.5249 24.4629 18.6424 24.5107C18.76 24.5584 18.8865 24.5801 19.0132 24.574C19.1399 24.568 19.2638 24.5345 19.3763 24.4759C19.4888 24.4172 19.5872 24.3348 19.6647 24.2343C19.7421 24.1338 19.7968 24.0177 19.825 23.894C20.525 22.544 21.15 21.169 21.725 19.769C22.3 18.369 22.75 17.019 23.325 15.669L25.5 9.144C25.541 9.05229 25.5631 8.95328 25.5651 8.85285C25.5671 8.75241 25.549 8.6526 25.5116 8.55933C25.4743 8.46606 25.4187 8.38123 25.348 8.30989C25.2772 8.23854 25.1929 8.18213 25.1 8.144C24.924 8.05624 24.7205 8.04112 24.5335 8.10191C24.3464 8.1627 24.1908 8.29453 24.1 8.469Z" fill="white"/>
<path fill-rule="evenodd" clip-rule="evenodd" d="M30.7 19.519C31.0331 19.3018 31.3357 19.0411 31.6 18.744C31.8486 18.4741 32.0589 18.1712 32.225 17.844C32.3285 17.6003 32.3669 17.3338 32.3362 17.0708C32.3055 16.8078 32.2069 16.5573 32.05 16.344C31.6226 15.7961 31.1073 15.323 30.525 14.944C29.2986 14.3474 28.0282 13.8459 26.725 13.444C26.5488 13.3432 26.3401 13.3155 26.1438 13.367C25.9474 13.4184 25.7791 13.5448 25.675 13.719C25.6217 13.8053 25.5865 13.9016 25.5715 14.002C25.5565 14.1023 25.562 14.2047 25.5877 14.3028C25.6134 14.401 25.6588 14.4929 25.721 14.573C25.7833 14.6532 25.8612 14.7198 25.95 14.769L28.125 16.519L29.05 17.294L28.1 18.294L26.325 19.719C26.228 19.7798 26.1443 19.8596 26.0789 19.9535C26.0135 20.0475 25.9678 20.1537 25.9444 20.2657C25.9211 20.3778 25.9206 20.4934 25.943 20.6057C25.9655 20.7179 26.0103 20.8245 26.075 20.919C26.1334 21.0152 26.2108 21.0984 26.3026 21.1635C26.3943 21.2286 26.4984 21.2743 26.6085 21.2977C26.7185 21.3212 26.8322 21.3218 26.9425 21.2997C27.0528 21.2775 27.1575 21.233 27.25 21.169L29.3 20.269C29.7942 20.0743 30.2641 19.8226 30.7 19.519Z" fill="white"/>
<path fill-rule="evenodd" clip-rule="evenodd" d="M36.525 25.4939C38.9827 21.6733 39.9359 17.0768 39.2 12.5939C38.7832 10.7771 37.9892 9.06823 36.8694 7.57806C35.7496 6.0879 34.3291 4.84975 32.7 3.94393C29.5037 2.09256 25.7925 1.32928 22.125 1.76893C17.7202 2.14346 13.4728 3.58499 9.75001 5.96893C7.25285 7.74707 5.35278 10.2398 4.30001 13.1189C3.14104 16.2227 3.23065 19.6549 4.55001 22.6939C5.82439 25.6928 8.18048 28.1025 11.15 29.4439C12.0062 29.8118 12.9047 30.0721 13.825 30.2189C15.1411 30.4212 16.4688 30.5381 17.8 30.5689C18.5579 30.6069 19.3171 30.6069 20.075 30.5689H20.925C21.1 31.1189 21.3 31.6439 21.425 32.1939C21.7 33.3689 21.925 34.5439 22.1 35.7439L22.5 37.7689L22.85 38.9689C22.8249 39.0504 22.8249 39.1375 22.85 39.2189C22.9358 39.3826 23.0543 39.5269 23.1981 39.6429C23.3419 39.759 23.508 39.8442 23.6862 39.8934C23.8643 39.9427 24.0506 39.9548 24.2336 39.9291C24.4166 39.9033 24.5924 39.8403 24.75 39.7439C25.2746 39.4558 25.7209 39.0438 26.05 38.5439C26.5194 37.7494 26.9128 36.9124 27.225 36.0439L28.15 33.1439L29.175 30.0689C30.6739 29.9392 32.1209 29.4572 33.3982 28.6622C34.6755 27.8671 35.7469 26.7816 36.525 25.4939ZM26.1 32.3439L24.875 34.8439L24.7 35.1939C24.35 34.1939 24 33.2189 23.575 32.2439C23.15 31.2689 22.8 30.5439 22.35 29.7439C21.9 28.9439 22.35 29.7439 22.35 29.5939C22.35 29.4439 22.35 29.5939 22.2 29.5939C22.1038 29.4897 21.9781 29.4171 21.8397 29.3858C21.7013 29.3546 21.5567 29.3661 21.425 29.4189C20.9404 29.3868 20.4618 29.2944 20 29.1439C19.275 29.1439 18.55 29.0189 17.825 28.9689C16.5755 28.893 15.3316 28.7427 14.1 28.5189C13.3318 28.3558 12.5852 28.1042 11.875 27.7689C9.45858 26.5177 7.60203 24.4023 6.67501 21.8439C5.71388 19.3622 5.74072 16.6065 6.75001 14.1439C7.9358 11.1776 10.1685 8.74919 13.025 7.31893C16.0041 5.88388 19.2103 4.97869 22.5 4.64393C25.5532 4.24334 28.6544 4.83029 31.35 6.31893C32.693 7.00238 33.877 7.96118 34.8246 9.13283C35.7723 10.3045 36.4624 11.6627 36.85 13.1189C37.4711 16.3458 37.0962 19.6852 35.775 22.6939C35.2757 24.1684 34.3789 25.4762 33.1833 26.4732C31.9878 27.4702 30.5401 28.1176 29 28.3439C28.7844 28.2623 28.5454 28.269 28.3347 28.3626C28.1241 28.4562 27.9589 28.6292 27.875 28.8439L26.1 32.3439Z" fill="white"/>
<path fill-rule="evenodd" clip-rule="evenodd" d="M56.125 17.594C55.6579 15.7149 54.8067 13.9529 53.625 12.419C52.4585 10.8755 50.8987 9.6737 49.1088 8.93926C47.3189 8.20482 45.3645 7.96469 43.45 8.24398C43.3418 8.24899 43.2359 8.2774 43.1397 8.32724C43.0435 8.37709 42.9592 8.44719 42.8927 8.53272C42.8262 8.61825 42.779 8.71718 42.7544 8.82271C42.7297 8.92823 42.7283 9.03783 42.75 9.14398C42.7526 9.2461 42.7767 9.34654 42.8208 9.4387C42.8648 9.53086 42.9279 9.61267 43.0058 9.67876C43.0837 9.74485 43.1746 9.79374 43.2727 9.82221C43.3709 9.85068 43.4739 9.8581 43.575 9.84398C45.1482 9.81429 46.702 10.1953 48.0829 10.9493C49.4639 11.7034 50.6245 12.8045 51.45 14.144C52.2953 15.4467 52.9124 16.884 53.275 18.394C53.6908 19.8985 53.8013 21.4711 53.6 23.019C53.4165 24.6719 52.8236 26.2529 51.875 27.619C50.9411 28.9892 49.5496 29.9819 47.95 30.419C47.7302 30.4726 47.5396 30.6093 47.4184 30.8005C47.2972 30.9916 47.2548 31.2222 47.3 31.444C47.3 31.444 47.3 31.594 47.45 31.669C47.2554 31.5839 47.0365 31.5725 46.8341 31.6369C46.6317 31.7013 46.4597 31.8371 46.35 32.019L45.025 33.994L44.8 34.244C44.7577 33.6932 44.6571 33.1485 44.5 32.619C44.3987 32.1487 44.1934 31.707 43.8993 31.3264C43.6051 30.9457 43.2296 30.6357 42.8 30.419C42.4219 30.2579 42.0062 30.2059 41.6 30.269C41.025 30.269 40.25 30.719 39.875 30.769C39.2219 30.8891 38.5625 30.9726 37.9 31.019L34.775 31.169C34.6745 31.1622 34.5736 31.1758 34.4784 31.2089C34.3833 31.2419 34.2957 31.2939 34.221 31.3615C34.1464 31.4292 34.0861 31.5112 34.0438 31.6027C34.0016 31.6942 33.9782 31.7933 33.975 31.894C33.9742 32.0938 34.0481 32.2867 34.1822 32.4347C34.3164 32.5828 34.5011 32.6752 34.7 32.694L40.025 33.319C42.1 33.319 41.15 30.994 42.525 37.244C42.525 37.494 43.625 38.769 44.725 37.794C45.1 37.444 46.025 36.444 46.075 36.369L46.85 35.144L47.95 32.869C48.0299 32.7416 48.0723 32.5943 48.0723 32.444C48.0723 32.2936 48.0299 32.1463 47.95 32.019C48.1218 32.067 48.3033 32.067 48.475 32.019C50.5488 31.637 52.4188 30.5292 53.75 28.894C55.0998 27.2987 56.0281 25.3906 56.45 23.344C56.7451 21.4257 56.6343 19.4668 56.125 17.594Z" fill="white"/>
</g>
<defs>
<clipPath id="clip0_239_200">
<rect width="60" height="60" fill="white"/>
</clipPath>
</defs>
</svg>
