<svg width="18" height="18" viewBox="0 0 18 18" fill="none" xmlns="http://www.w3.org/2000/svg">
<g clip-path="url(#clip0_256_12)">
<path d="M17.2029 12.2143C17.1514 12.1629 13.8343 8.97429 13.8343 8.97429C13.8343 8.97429 16.3543 6.3 17.0229 5.63143C17.2286 5.42571 17.4086 5.22 17.5371 4.96286C18.4629 3.39429 17.9229 1.38857 16.3543 0.462857C15.1971 -0.205714 13.7571 -0.102857 12.7286 0.668572C12.5486 0.797143 12.3943 0.925715 12.24 1.08C12.1629 1.18286 8.66572 4.37143 5.63143 7.14857L11.3143 10.7486L5.34857 17.46C4.98857 17.7171 4.62857 17.8714 4.24286 17.9486C4.32 17.9486 4.37143 17.9486 4.44857 17.9229C5.63143 17.7429 15.7371 16.0457 16.2257 15.9429C16.8171 15.84 17.3571 15.48 17.6914 14.94C18.2571 14.0143 18 12.8571 17.2029 12.2143Z" fill="url(#paint0_linear_256_12)"/>
<path d="M11.8029 7.8428C11.7 7.14852 11.34 6.5828 10.8257 6.17137C10.2857 5.75995 6.12 1.43995 5.65715 0.951375C4.93715 0.257089 3.90858 -0.128625 2.85429 0.0513748C1.05429 0.308518 -0.20571 2.00566 0.0771471 3.80566C0.205719 4.70566 0.720004 5.47709 1.38858 5.96566C2.05715 6.47995 7.30286 10.0799 7.63715 10.3371C8.17715 10.7485 8.89715 10.9799 9.61715 10.8514C11.0314 10.5942 12.0343 9.25709 11.8029 7.8428Z" fill="url(#paint1_linear_256_12)"/>
<path d="M5.91429 17.4343C5.94001 17.4343 11.9057 10.7228 11.9057 10.7228L5.88858 6.91711C3.75429 8.8714 1.77429 10.6457 1.31144 11.0828C1.02858 11.34 0.745721 11.6743 0.540007 12.0343C-0.565708 13.9371 0.0771494 16.3543 1.98001 17.46C2.75143 17.8971 4.50001 18.4371 5.91429 17.4343Z" fill="url(#paint2_linear_256_12)"/>
<path d="M14.5543 3.44568H3.44572V14.5542H14.5543V3.44568Z" fill="black"/>
<path d="M8.64 12.4714H4.47429V13.1657H8.64V12.4714Z" fill="white"/>
<path d="M6.12002 7.68852L4.37144 4.91138H5.5543L6.6343 6.73709L7.76573 4.91138H8.92287L7.14859 7.66281V9.51423H6.12002V7.68852Z" fill="white"/>
<path d="M10.6972 5.83709H9.28287V4.91138H13.1143V5.83709H11.7V9.51423H10.6972V5.83709Z" fill="white"/>
</g>
<defs>
<linearGradient id="paint0_linear_256_12" x1="1.82134" y1="14.0792" x2="16.4844" y2="7.39525" gradientUnits="userSpaceOnUse">
<stop stop-color="#905CFB"/>
<stop offset="0.1649" stop-color="#6677F8"/>
<stop offset="0.3776" stop-color="#3596F5"/>
<stop offset="0.5401" stop-color="#17A9F3"/>
<stop offset="0.6317" stop-color="#0CB0F2"/>
</linearGradient>
<linearGradient id="paint1_linear_256_12" x1="7.794" y1="7.23361" x2="0.274607" y2="0.592121" gradientUnits="userSpaceOnUse">
<stop stop-color="#905CFB"/>
<stop offset="0.0717604" stop-color="#A554E6"/>
<stop offset="0.2523" stop-color="#D641B5"/>
<stop offset="0.3901" stop-color="#F43597"/>
<stop offset="0.4677" stop-color="#FF318C"/>
</linearGradient>
<linearGradient id="paint2_linear_256_12" x1="1.28132" y1="15.0905" x2="19.0344" y2="3.90425" gradientUnits="userSpaceOnUse">
<stop stop-color="#905CFB"/>
<stop offset="0.1649" stop-color="#6677F8"/>
<stop offset="0.3776" stop-color="#3596F5"/>
<stop offset="0.5401" stop-color="#17A9F3"/>
<stop offset="0.6317" stop-color="#0CB0F2"/>
</linearGradient>
<clipPath id="clip0_256_12">
<rect width="18" height="18" fill="white"/>
</clipPath>
</defs>
</svg>
