<svg width="24" height="24" viewBox="0 0 24 24" fill="none" xmlns="http://www.w3.org/2000/svg">
<g clip-path="url(#clip0_224_244)">
<path fill-rule="evenodd" clip-rule="evenodd" d="M22.74 9.33001C22.26 8.93001 19.74 7.00001 17.86 5.67001C17.795 5.62227 17.7137 5.6023 17.634 5.61449C17.5543 5.62668 17.4827 5.67003 17.435 5.73501C17.3873 5.79999 17.3673 5.88127 17.3795 5.96097C17.3917 6.04067 17.435 6.11227 17.5 6.16001C18.34 6.80001 19.16 7.45001 19.88 8.03001C22.58 10.19 22.35 9.89001 22.5 10.94C20.7835 11.4746 19.1117 12.1434 17.5 12.94C15.71 13.82 14.5 14.61 13.24 15.3C12.6015 14.8726 11.8842 14.5769 11.13 14.43C10.4713 14.5449 9.84628 14.8044 9.30001 15.19C8.74001 14.75 8.00001 14.19 7.19001 13.55C5.55146 12.3852 3.81495 11.3647 2.00001 10.5C2.10001 9.77001 2.22001 9.89001 2.14001 9.83001C3.00001 9.00001 4.73001 7.50001 6.52001 6.13001C6.59294 6.07696 6.64182 5.99712 6.65588 5.90804C6.66995 5.81896 6.64805 5.72794 6.59501 5.65501C6.54196 5.58207 6.46212 5.5332 6.37304 5.51913C6.28396 5.50507 6.19294 5.52696 6.12001 5.58001C4.69001 6.58001 2.56001 8.09001 1.35001 9.13001C0.310006 10 0.290006 20.08 0.640006 22.46C0.650019 22.5379 0.690193 22.6088 0.751897 22.6574C0.813601 22.706 0.891912 22.7285 0.970006 22.72C0.970006 22.72 1.64001 22.36 1.66001 22.35C4.13096 20.042 6.83554 17.9977 9.73001 16.25C11.1 15.45 11 15.42 12.25 16.1C15.4819 18.0829 18.6063 20.2359 21.61 22.55C21.61 22.84 21.9 22.79 19.5 22.84C17.1 22.89 3.07001 22.93 1.71001 22.84C1.62858 22.8539 1.5547 22.8962 1.50144 22.9593C1.44817 23.0225 1.41895 23.1024 1.41895 23.185C1.41895 23.2676 1.44817 23.3476 1.50144 23.4107C1.5547 23.4738 1.62858 23.5161 1.71001 23.53C3.39001 23.63 21.36 24.26 22.25 23.78C22.3753 23.7123 22.4766 23.6075 22.54 23.48C23.15 22.31 24.4 10.71 22.74 9.33001ZM1.22001 21.81C1.22001 19.34 1.89001 11.37 1.90001 11.29C4.01447 12.9084 6.2474 14.3658 8.58001 15.65C5.9212 17.4446 3.45479 19.5088 1.22001 21.81ZM21.74 21.86C19.2502 19.6769 16.6358 17.6401 13.91 15.76C19.14 13.76 21.14 12.15 22.57 11.61C22.6221 15.0454 22.3442 18.4778 21.74 21.86Z" fill="white"/>
<path fill-rule="evenodd" clip-rule="evenodd" d="M6.59001 8.33C6.94001 9.8 10.53 13.17 12.24 13.33C13.95 13.49 17 8.81 16.85 7.86C16.7 6.91 15.52 7 14.63 6.79H14.26C13.874 4.5745 13.3564 2.38396 12.71 0.230004C12.6795 0.145134 12.6165 0.0758571 12.535 0.0374122C12.4534 -0.00103277 12.3599 -0.00549626 12.275 0.0250036C12.1901 0.0555035 12.1209 0.118468 12.0824 0.200047C12.044 0.281625 12.0395 0.375134 12.07 0.460004C12.77 2.53 13.33 6.93 13.46 7.22C13.67 7.68 14.19 7.65 14.46 7.71C14.85 7.81 15.52 7.85 15.82 7.95C15.76 8.03 15.75 8.25 15.66 8.42C15 9.73 13 12.24 12.34 12.18C11.11 12.07 8.00001 9.05 7.72001 8.25C7.80701 8.19418 7.90121 8.15044 8.00001 8.12C10.25 7.55 10.28 8.06 10.61 6.12C10.61 6.04 11.44 0.390004 11.42 0.310004C11.31 -0.0899964 10.93 0.0100036 10.8 0.250004C10.67 0.490004 10.59 1.33 10.15 4C9.65001 7.1 9.55001 6.63 9.49001 6.89C8.13001 7.16 6.28001 7.05 6.59001 8.33Z" fill="white"/>
</g>
<defs>
<clipPath id="clip0_224_244">
<rect width="24" height="24" fill="white"/>
</clipPath>
</defs>
</svg>
