<svg width="16" height="16" viewBox="0 0 16 16" fill="none" xmlns="http://www.w3.org/2000/svg">
<path d="M11.4076 9.05032C11.668 9.31067 12.0901 9.31067 12.3504 9.05032L14.0004 7.40041C15.4323 5.96849 15.4323 3.64688 14.0004 2.21496C12.5684 0.783041 10.2468 0.783041 8.8149 2.21496L7.16499 3.86487C6.90464 4.12522 6.90464 4.54733 7.16499 4.80768C7.42534 5.06803 7.84745 5.06803 8.1078 4.80768L9.75771 3.15777C10.6689 2.24654 12.1463 2.24654 13.0576 3.15777C13.9688 4.06899 13.9688 5.54638 13.0576 6.4576L11.4076 8.10752C11.1473 8.36786 11.1473 8.78998 11.4076 9.05032Z" fill="#A1A1A1"/>
<path d="M3.86497 7.16471C4.12532 6.90436 4.54743 6.90436 4.80777 7.16471C5.06812 7.42506 5.06812 7.84717 4.80777 8.10752L3.15786 9.75743C2.24664 10.6686 2.24664 12.146 3.15786 13.0573C4.06908 13.9685 5.54647 13.9685 6.45769 13.0573L8.10761 11.4073C8.36796 11.147 8.79007 11.147 9.05042 11.4073C9.31076 11.6677 9.31076 12.0898 9.05042 12.3501L7.4005 14.0001C5.96858 15.432 3.64697 15.432 2.21505 14.0001C0.783133 12.5681 0.783133 10.2465 2.21505 8.81462L3.86497 7.16471Z" fill="#A1A1A1"/>
<path d="M5.98628 10.2288C5.72593 9.96848 5.72593 9.54637 5.98628 9.28602L9.28611 5.98619C9.54646 5.72584 9.96857 5.72584 10.2289 5.98619C10.4893 6.24653 10.4893 6.66864 10.2289 6.92899L6.92909 10.2288C6.66874 10.4892 6.24663 10.4892 5.98628 10.2288Z" fill="#A1A1A1"/>
</svg>
