<svg width="17" height="17" viewBox="0 0 17 17" fill="none" xmlns="http://www.w3.org/2000/svg">
<path d="M16.8969 6.28965C16.8428 6.12606 16.7404 5.98163 16.6026 5.87435C16.4647 5.76707 16.2975 5.70169 16.1218 5.68637L11.2322 5.25387L9.29857 0.844998C9.22919 0.68707 9.11376 0.552456 8.96658 0.457846C8.8194 0.363237 8.64695 0.312795 8.47062 0.312775C8.29418 0.312793 8.12164 0.363325 7.97444 0.458089C7.82724 0.552854 7.71187 0.687673 7.64267 0.845789L5.70909 5.25387L0.818733 5.68645C0.643239 5.70211 0.476322 5.76761 0.338676 5.87481C0.20103 5.98202 0.0987094 6.12623 0.0444001 6.28956C-0.0103364 6.45292 -0.0145581 6.62836 0.0322603 6.79404C0.0790787 6.95972 0.17487 7.10833 0.307717 7.22139L4.00372 10.3792L2.91389 15.0563C2.87458 15.2241 2.88681 15.3994 2.94906 15.5604C3.01131 15.7215 3.12082 15.8611 3.26396 15.9619C3.41724 16.0705 3.60182 16.129 3.79131 16.1292C3.954 16.129 4.11358 16.0857 4.25295 16.004L8.47071 13.5482L12.6869 16.004C12.8379 16.0924 13.0123 16.1356 13.1883 16.1281C13.3643 16.1207 13.5342 16.0628 13.6767 15.9619C13.8197 15.861 13.9292 15.7214 13.9915 15.5604C14.0538 15.3994 14.0661 15.2241 14.0269 15.0563L12.937 10.3792L16.633 7.22209C16.7659 7.10895 16.8618 6.96025 16.9088 6.79446C16.9557 6.62867 16.9516 6.4531 16.897 6.28956L16.8969 6.28965Z" fill="#FBBF24"/>
</svg>
