<svg viewBox="0 0 33 27" fill="none" xmlns="http://www.w3.org/2000/svg"><path d="M27.055 19.264c-.762 2.398-1.905 4.177-3.505 5.492-1.6 1.316-3.735 2.012-6.402 2.244l-.534-3.559c1.753-.232 3.049-.619 3.887-1.238.305-.232.915-.928.915-.928L15.09.696h5.259l3.658 15.396L27.894.696H33l-5.945 18.568zM8.688 0c1.22 0 2.363.155 3.277.542.991.387 1.906.928 2.82 1.702l-2.134 2.94a8.329 8.329 0 00-1.753-1.006c-.533-.232-1.22-.31-1.829-.31-2.591 0-3.887 2.012-3.887 6.112 0 2.089.305 3.559.991 4.41.686.928 1.6 1.315 2.896 1.315.61 0 1.22-.078 1.753-.31a15.54 15.54 0 001.905-1.005l2.134 3.094c-1.753 1.47-3.734 2.166-6.02 2.166-1.83 0-3.354-.386-4.726-1.16a7.746 7.746 0 01-3.048-3.404C.38 13.616 0 11.914 0 9.903c0-1.934.38-3.714 1.067-5.184.686-1.547 1.753-2.707 3.048-3.558A9.552 9.552 0 018.688 0z" fill="#fff"></path></svg>