<svg viewBox="0 0 28 28" fill="none" xmlns="http://www.w3.org/2000/svg">
<path d="M2.56696 11.3867H5.18028V13.93H2.56696V11.3867ZM5.77528 11.3867H8.40028V13.93H5.77528V11.3867ZM5.77528 8.11999H8.40028V10.6633H5.77528V8.11999ZM8.99528 11.3867H11.6086V13.93H8.99528V11.3867ZM8.99528 8.11999H11.6086V10.6633H8.99528V8.11999ZM12.2036 11.3867H14.8286V13.93H12.2036V11.3867ZM12.2036 8.11999H14.8286V10.6633H12.2036V8.11999ZM15.4236 11.3867H18.0369V13.93H15.4236V11.3867ZM12.2036 4.85333H14.8286V7.39666H12.2036V4.85333ZM6.21861 17.605C6.62696 17.605 6.95361 17.92 6.95361 18.3166C6.95361 18.7016 6.62696 19.0283 6.21861 19.0283C5.83361 19.0283 5.49528 18.7016 5.49528 18.3166C5.49528 17.92 5.83361 17.605 6.21861 17.605ZM26.4719 12.705L26.8337 12.9033L26.6469 13.265C25.9002 14.6767 24.3487 15.1083 22.8319 15.0383C20.5569 20.5333 15.5986 23.1466 9.60194 23.1466C6.49861 23.1466 3.65196 22.015 2.03028 19.3433L2.00696 19.2966L1.75028 18.83C1.22528 17.6516 1.03861 16.3683 1.16695 15.0733L1.20195 14.6883H18.4337C19.0519 14.6883 19.6819 14.5833 20.2537 14.3967L21.1402 14C20.7787 13.5333 20.5802 12.9383 20.5337 12.355C20.4519 11.5617 20.6152 10.5 21.1752 9.91666L21.4552 9.58999L21.7819 9.84666C22.6102 10.5 23.2987 11.3983 23.4269 12.425C24.4187 12.145 25.5969 12.2033 26.4719 12.705ZM6.23028 19.6583C7.00028 19.6583 7.58361 19.0516 7.58361 18.3166C7.58361 17.57 7.00028 16.9633 6.21861 16.9633C5.46028 16.9633 4.84196 17.57 4.84196 18.3166C4.84196 19.0633 5.46028 19.6583 6.23028 19.6583Z" fill="#1E9CEF"/>
</svg>
