<svg width="128" height="128" viewBox="0 0 128 128" fill="none" xmlns="http://www.w3.org/2000/svg">
<path d="M40.5299 77.8201V50.7401H41.9999V55.0001C42.1735 54.8114 42.3339 54.6109 42.4799 54.4001C43.0806 53.1532 44.0242 52.1034 45.2002 51.3737C46.3763 50.644 47.7359 50.2646 49.1199 50.2801C52.4699 50.1801 55.1899 51.4201 56.7899 54.4001C57.8079 56.2513 58.3682 58.3193 58.4239 60.4313C58.4795 62.5432 58.029 64.6378 57.1099 66.5401C55.6199 69.8801 51.9399 71.5401 47.9999 70.9301C46.7738 70.8257 45.5934 70.4159 44.5663 69.7382C43.5392 69.0604 42.6982 68.1363 42.1199 67.0501V77.8201H40.5299ZM41.9999 60.3201C42.1299 61.6401 42.1799 62.5801 42.3299 63.5001C42.9099 67.1201 45.0499 69.2701 48.4099 69.6601C49.9876 69.9195 51.6063 69.6237 52.9904 68.8232C54.3744 68.0226 55.438 66.767 55.9999 65.2701C56.6456 63.7305 56.9563 62.0711 56.9115 60.4021C56.8667 58.7332 56.4673 57.0929 55.7399 55.5901C55.1401 54.2485 54.12 53.1385 52.8338 52.4277C51.5475 51.7169 50.0649 51.444 48.6099 51.6501C47.2438 51.7491 45.9424 52.2713 44.8868 53.1441C43.8312 54.0169 43.0738 55.1969 42.7199 56.5201C42.4067 57.7718 42.1663 59.0406 41.9999 60.3201ZM88.4099 64.0001C88.1871 65.9067 87.2795 67.6676 85.8558 68.9552C84.4321 70.2428 82.5892 70.9695 80.6699 71.0001C74.5099 71.3101 71.6199 67.2201 71.1599 62.5001C70.8406 59.9369 71.2568 57.3357 72.3599 55.0001C73.1281 53.398 74.3862 52.0819 75.952 51.2424C77.5179 50.4028 79.3104 50.0833 81.0699 50.3301C82.7427 50.4719 84.3285 51.1363 85.6027 52.2293C86.877 53.3223 87.7751 54.7884 88.1699 56.4201C88.4829 57.9062 88.7132 59.4085 88.8599 60.9201H72.6699C72.3699 65.2001 74.6699 68.6401 77.9299 69.4701C81.9899 70.4701 85.4599 68.7101 86.7199 64.8501C86.9999 63.8601 87.5099 63.7201 88.4099 64.0001ZM72.6699 59.5501H87.1399C87.0499 54.9901 84.2099 51.6901 80.3599 51.6401C75.9999 51.5701 72.8599 54.7501 72.6699 59.5501ZM91.3899 64.1001H92.8099C92.8623 65.145 93.2019 66.1552 93.7911 67.0196C94.3803 67.8841 95.1965 68.5694 96.1499 69.0001C97.3471 69.5389 98.6504 69.8007 99.9627 69.766C101.275 69.7314 102.563 69.4013 103.73 68.8001C104.366 68.5134 104.899 68.0385 105.256 67.4394C105.614 66.8404 105.779 66.146 105.73 65.4501C105.766 64.7789 105.583 64.1141 105.208 63.5565C104.832 62.9989 104.285 62.5788 103.65 62.3601C102.09 61.7801 100.43 61.4601 98.8399 60.9501C97.1855 60.479 95.5679 59.8874 93.9999 59.1801C91.4399 57.9301 91.2799 53.0601 94.1799 51.5201C95.6648 50.6822 97.336 50.2294 99.0408 50.2032C100.746 50.177 102.43 50.5782 103.94 51.3701C104.855 51.8756 105.593 52.648 106.058 53.5842C106.523 54.5204 106.691 55.5759 106.54 56.6101H105.32C105.32 56.5501 105.21 56.5001 105.21 56.4401C105.06 52.5501 101.8 51.3501 98.2999 51.6901C97.2551 51.819 96.2402 52.1268 95.2999 52.6001C94.7349 52.8585 94.2641 53.2858 93.9525 53.8232C93.6408 54.3606 93.5036 54.9815 93.5599 55.6001C93.5616 56.2191 93.7548 56.8223 94.1128 57.3272C94.4709 57.832 94.9763 58.2138 95.5599 58.4201C97.0999 58.9801 98.7099 59.3401 100.29 59.7801C101.56 60.1301 102.88 60.3601 104.11 60.7801C104.978 61.0647 105.739 61.6062 106.293 62.333C106.846 63.0598 107.166 63.9376 107.21 64.8501C107.358 65.85 107.188 66.8712 106.723 67.7687C106.258 68.6663 105.522 69.3945 104.62 69.8501C101.28 71.7401 95.7799 71.2401 93.3299 68.8501C92.709 68.2256 92.2178 67.4844 91.8849 66.6691C91.5519 65.8539 91.3837 64.9807 91.3899 64.1001ZM125.21 56.6101H123.88C123.88 56.4301 123.81 56.2701 123.79 56.1201C123.768 55.1232 123.405 54.1639 122.76 53.403C122.116 52.642 121.23 52.1256 120.25 51.9401C118.401 51.4097 116.429 51.5046 114.64 52.2101C113.933 52.4129 113.31 52.839 112.865 53.4247C112.42 54.0104 112.176 54.7244 112.17 55.4601C112.145 56.1826 112.37 56.8916 112.807 57.4673C113.245 58.043 113.867 58.4502 114.57 58.6201C116.57 59.2401 118.62 59.6201 120.65 60.1801C121.308 60.338 121.956 60.535 122.59 60.7701C123.537 61.109 124.36 61.7258 124.951 62.5398C125.542 63.3539 125.874 64.3273 125.903 65.3329C125.933 66.3386 125.658 67.3296 125.115 68.1765C124.572 69.0235 123.786 69.6869 122.86 70.0801C121.449 70.7209 119.919 71.0599 118.369 71.0754C116.82 71.0909 115.284 70.7826 113.86 70.1701C112.689 69.6651 111.701 68.8136 111.029 67.7302C110.357 66.6468 110.032 65.3834 110.1 64.1101H111.4C111.64 65.2704 112.16 66.3546 112.914 67.2688C113.668 68.1829 114.633 68.8996 115.727 69.3566C116.82 69.8136 118.008 69.9972 119.188 69.8915C120.369 69.7858 121.505 69.3941 122.5 68.7501C123.106 68.4353 123.609 67.9533 123.949 67.3613C124.289 66.7693 124.453 66.0922 124.42 65.4101C124.45 64.7385 124.26 64.0754 123.88 63.5214C123.499 62.9674 122.948 62.5526 122.31 62.3401C120.75 61.7601 119.09 61.4501 117.5 60.9401C115.836 60.4763 114.208 59.8914 112.63 59.1901C110.13 57.9601 109.93 53.1301 112.78 51.5901C114.283 50.717 115.987 50.248 117.725 50.2288C119.464 50.2095 121.178 50.6406 122.7 51.4801C123.571 51.9999 124.271 52.7615 124.717 53.6723C125.163 54.5831 125.334 55.6038 125.21 56.6101ZM38.0999 70.5101C37.5763 70.7084 36.9983 70.708 36.475 70.509C35.9517 70.31 35.5194 69.9262 35.2599 69.4301C33.6299 66.9901 31.8299 64.6601 30.0999 62.2801L29.3499 61.2801C27.2899 64.0401 25.2299 66.6901 23.3499 69.4401C23.1049 69.9142 22.696 70.2831 22.1993 70.4781C21.7026 70.6731 21.1519 70.6809 20.6499 70.5001L28.3799 60.1301L21.1899 50.7601C21.7074 50.5732 22.2736 50.5707 22.7929 50.7529C23.3121 50.935 23.7526 51.2908 24.0399 51.7601C25.7099 54.2001 27.5599 56.5301 29.3999 59.0001C31.2499 56.5501 33.0799 54.2101 34.7899 51.7901C35.0362 51.3237 35.4453 50.9641 35.9394 50.7798C36.4336 50.5954 36.9783 50.5991 37.4699 50.7901L34.6799 54.4901C33.4299 56.1401 32.1999 57.8001 30.8999 59.4101C30.7951 59.5039 30.7113 59.6187 30.654 59.7471C30.5966 59.8755 30.5669 60.0145 30.5669 60.1551C30.5669 60.2957 30.5966 60.4347 30.654 60.5631C30.7113 60.6915 30.7951 60.8063 30.8999 60.9001C33.2899 64.0701 35.6599 67.2501 38.0999 70.5101ZM70.9199 50.6601V52.0601C69.9085 51.9938 68.8944 52.1403 67.9431 52.4901C66.9918 52.8399 66.1244 53.3853 65.397 54.0911C64.6695 54.7969 64.0981 55.6474 63.7197 56.5877C63.3412 57.528 63.1642 58.5372 63.1999 59.5501V70.5501H61.7699V50.7401H63.1699V54.8001C64.8999 51.8401 67.5699 50.7401 70.9199 50.6601ZM2.12988 60.0001C2.33988 59.0001 2.46988 57.9101 2.75988 56.8901C4.48988 50.7401 11.5399 48.1801 16.3899 51.9901C19.2299 54.2201 19.9399 57.3801 19.7999 60.9401H3.79988C3.53988 67.3001 8.12988 71.1401 13.9999 69.1801C14.9521 68.8395 15.8045 68.2671 16.4801 67.5147C17.1558 66.7622 17.6334 65.8534 17.8699 64.8701C18.1799 63.8701 18.6799 63.7001 19.6299 63.9901C19.4734 65.2075 19.043 66.3736 18.3709 67.4007C17.6989 68.4278 16.8028 69.2892 15.7499 69.9201C14.0103 70.8714 12.0144 71.2483 10.0477 70.9968C8.08102 70.7454 6.24418 69.8785 4.79988 68.5201C3.37104 66.9136 2.50709 64.8836 2.33988 62.7401C2.33988 62.4001 2.20988 62.0601 2.13988 61.7401C2.13322 61.1468 2.12988 60.5668 2.12988 60.0001ZM3.81988 59.5701H18.2899C18.1999 54.9601 15.2899 51.6901 11.4099 51.6601C7.08988 51.6001 3.99988 54.8001 3.80988 59.5501L3.81988 59.5701Z" fill="black"/>
</svg>
