<svg viewBox="0 0 28 28" fill="none" xmlns="http://www.w3.org/2000/svg">
<path d="M9.95312 28C12.5562 28 14.6562 25.9163 14.6562 23.3334V18.6667H9.95312C7.35 18.6667 5.25 20.7504 5.25 23.3334C5.25 25.9163 7.35 28 9.95312 28Z" fill="#0ACF83"/>
<path d="M5.25 14C5.25 11.417 7.35 9.33331 9.95312 9.33331H14.6562V18.6666H9.95312C7.35 18.6666 5.25 16.5829 5.25 14Z" fill="#A259FF"/>
<path d="M5.25 4.66667C5.25 2.08372 7.35 0 9.95312 0H14.6562V9.33333H9.95312C7.35 9.33333 5.25 7.24961 5.25 4.66667Z" fill="#F24E1E"/>
<path d="M14.6562 0H19.3594C21.9625 0 24.0625 2.08372 24.0625 4.66667C24.0625 7.24961 21.9625 9.33333 19.3594 9.33333H14.6562V0Z" fill="#FF7262"/>
<path d="M24.0625 14C24.0625 16.5829 21.9625 18.6666 19.3594 18.6666C16.7563 18.6666 14.6562 16.5829 14.6562 14C14.6562 11.417 16.7563 9.33331 19.3594 9.33331C21.9625 9.33331 24.0625 11.417 24.0625 14Z" fill="#1ABCFE"/>
</svg>
