<svg viewBox="0 0 21 29" fill="none" xmlns="http://www.w3.org/2000/svg">
<path d="M0.15918 23.0073L0.329187 22.7703L8.34956 7.55558L8.36656 7.39457L4.83139 0.754267C4.76668 0.632839 4.66541 0.534834 4.54193 0.474119C4.41845 0.413403 4.27901 0.393051 4.14333 0.415941C4.00765 0.438831 3.8826 0.503805 3.78587 0.60167C3.68914 0.699535 3.62564 0.825336 3.60434 0.961277L0.15918 23.0073Z" fill="#FFC24A"/>
<path d="M0.259277 22.8273L0.387283 22.5773L8.32465 7.52057L4.79849 0.854265C4.74034 0.738332 4.64619 0.644362 4.53015 0.586433C4.4141 0.528503 4.28241 0.509732 4.15481 0.532934C4.0272 0.556135 3.91055 0.620058 3.82232 0.715128C3.7341 0.810197 3.67905 0.931293 3.66543 1.06027L0.259277 22.8273Z" fill="#FFA712"/>
<path d="M10.9439 12.4168L13.5761 9.71664L10.9429 4.69541C10.885 4.58735 10.7988 4.49702 10.6936 4.43405C10.5884 4.37108 10.468 4.33783 10.3454 4.33783C10.2228 4.33783 10.1025 4.37108 9.99724 4.43405C9.89202 4.49702 9.80584 4.58735 9.74788 4.69541L8.34082 7.37754V7.60655L10.9439 12.4168Z" fill="#F4BD62"/>
<path d="M10.8968 12.3068L13.4559 9.68665L10.8968 4.80643C10.8549 4.70079 10.7834 4.60952 10.6908 4.54363C10.5982 4.47774 10.4885 4.44004 10.375 4.43507C10.2615 4.4301 10.1489 4.45808 10.051 4.51563C9.95297 4.57318 9.87372 4.65785 9.82277 4.75942L8.4087 7.48855L8.3667 7.62756L10.8968 12.3068Z" fill="#FFA50E"/>
<path d="M0.161133 23.0083L0.238136 22.9303L0.517149 22.8173L10.7776 12.5948L10.9076 12.2408L8.34851 7.36255L0.161133 23.0083Z" fill="#F6820C"/>
<path d="M11.2717 28.1635L20.5601 22.9843L17.906 6.65253C17.887 6.5374 17.8366 6.42974 17.7604 6.34136C17.6842 6.25299 17.5851 6.18732 17.474 6.15157C17.3629 6.11582 17.2442 6.11137 17.1307 6.1387C17.0173 6.16603 16.9136 6.22409 16.8309 6.30651L0.15918 23.0073L9.3926 28.1625C9.67966 28.3227 10.0029 28.4068 10.3316 28.4068C10.6604 28.4068 10.9836 28.3227 11.2707 28.1625" fill="#FDE068"/>
<path d="M20.4752 22.9413L17.8431 6.73251C17.8384 6.62239 17.8012 6.51613 17.7362 6.42717C17.6711 6.3382 17.5811 6.27054 17.4776 6.23275C17.374 6.19495 17.2616 6.18872 17.1545 6.21485C17.0475 6.24097 16.9505 6.29827 16.876 6.3795L0.259277 22.9763L9.3907 28.0765C9.67547 28.2354 9.99615 28.3188 10.3222 28.3188C10.6483 28.3188 10.969 28.2354 11.2538 28.0765L20.4752 22.9413Z" fill="#FCCA3F"/>
<path d="M11.2717 28.0075C10.9846 28.1677 10.6614 28.2517 10.3326 28.2517C10.0039 28.2517 9.68066 28.1677 9.3936 28.0075L0.235183 22.9292L0.15918 23.0072L9.3926 28.1625C9.67966 28.3227 10.0029 28.4068 10.3316 28.4068C10.6604 28.4068 10.9836 28.3227 11.2707 28.1625L20.5601 22.9842L20.5371 22.8442L11.2717 28.0075Z" fill="#EEAB37"/>
</svg>
