<svg viewBox="0 0 28 28" fill="none" xmlns="http://www.w3.org/2000/svg">
<path d="M27.4702 12.7527L15.2468 0.529347C15.0796 0.361562 14.8809 0.228434 14.6622 0.137596C14.4434 0.0467592 14.2089 0 13.972 0C13.7351 0 13.5006 0.0467592 13.2818 0.137596C13.0631 0.228434 12.8644 0.361562 12.6972 0.529347L10.1585 3.068L13.3781 6.28756C13.7577 6.15836 14.1661 6.1384 14.5565 6.22996C14.9469 6.32152 15.3038 6.52092 15.5865 6.80543C15.8691 7.08995 16.0661 7.44813 16.1551 7.83917C16.2441 8.23022 16.2214 8.63839 16.0897 9.01718L19.1893 12.1168C19.6526 11.9576 20.1565 11.962 20.6169 12.1292C21.0774 12.2965 21.4666 12.6164 21.7198 13.0358C21.973 13.4552 22.0748 13.9487 22.0083 14.4341C21.9418 14.9194 21.711 15.3673 21.3544 15.7032C20.9977 16.039 20.5367 16.2425 20.0483 16.2797C19.5598 16.317 19.0733 16.1857 18.6699 15.9078C18.2665 15.6298 17.9704 15.2221 17.8312 14.7524C17.6919 14.2827 17.7178 13.7795 17.9045 13.3266L15.0099 10.432V18.0479C15.4483 18.2652 15.7992 18.6261 16.0039 19.0706C16.2086 19.5151 16.2548 20.0163 16.1349 20.4907C16.015 20.9651 15.7362 21.3842 15.3448 21.678C14.9535 21.9718 14.4733 22.1227 13.9843 22.1055C13.4952 22.0883 13.0268 21.9041 12.6571 21.5835C12.2874 21.2629 12.0386 20.8254 11.9523 20.3437C11.866 19.862 11.9473 19.3653 12.1828 18.9363C12.4182 18.5073 12.7935 18.1719 13.2461 17.986V10.3C12.9842 10.1926 12.7462 10.0344 12.5457 9.83454C12.3453 9.63471 12.1863 9.39718 12.078 9.13565C11.9698 8.87412 11.9143 8.59376 11.9149 8.3107C11.9154 8.02765 11.972 7.7475 12.0813 7.48639L8.9117 4.31483L0.529849 12.6997C0.361914 12.8669 0.228658 13.0656 0.137732 13.2845C0.0468064 13.5034 0 13.738 0 13.975C0 14.212 0.0468064 14.4467 0.137732 14.6655C0.228658 14.8844 0.361914 15.0831 0.529849 15.2503L12.7532 27.4697C12.9204 27.6374 13.1191 27.7706 13.3378 27.8614C13.5566 27.9522 13.7911 27.999 14.028 27.999C14.2649 27.999 14.4994 27.9522 14.7182 27.8614C14.9369 27.7706 15.1356 27.6374 15.3028 27.4697L27.4702 15.2993C27.6381 15.1321 27.7713 14.9334 27.8623 14.7145C27.9532 14.4956 28 14.261 28 14.024C28 13.787 27.9532 13.5523 27.8623 13.3335C27.7713 13.1146 27.6381 12.9159 27.4702 12.7487" fill="#DD4C35"/>
<path d="M10.1584 3.06805L13.378 6.28761C13.7577 6.15841 14.166 6.13846 14.5564 6.23002C14.9469 6.32158 15.3037 6.52098 15.5864 6.80549C15.869 7.09 16.066 7.44819 16.155 7.83923C16.244 8.23027 16.2213 8.63845 16.0896 9.01724L19.1892 12.1168C19.6525 11.9576 20.1564 11.9621 20.6168 12.1293C21.0773 12.2965 21.4666 12.6165 21.7197 13.0359C21.9729 13.4553 22.0747 13.9488 22.0082 14.4341C21.9417 14.9195 21.7109 15.3674 21.3543 15.7032C20.9976 16.0391 20.5367 16.2426 20.0482 16.2798C19.5597 16.317 19.0732 16.1857 18.6698 15.9078C18.2664 15.6299 17.9704 15.2221 17.8311 14.7525C17.6918 14.2828 17.7177 13.7796 17.9044 13.3266L15.0098 10.432V18.048C15.4483 18.2653 15.7991 18.6262 16.0038 19.0707C16.2085 19.5151 16.2548 20.0163 16.1348 20.4908C16.0149 20.9652 15.7361 21.3842 15.3448 21.678C14.9534 21.9719 14.4733 22.1227 13.9842 22.1056C13.4952 22.0884 13.0268 21.9041 12.657 21.5836C12.2873 21.263 12.0386 20.8254 11.9523 20.3437C11.8659 19.8621 11.9473 19.3654 12.1827 18.9363C12.4181 18.5073 12.7934 18.1719 13.246 17.986V10.3001C12.9842 10.1926 12.7461 10.0344 12.5457 9.83459C12.3452 9.63476 12.1862 9.39724 12.078 9.13571C11.9697 8.87418 11.9142 8.59381 11.9148 8.31076C11.9153 8.0277 11.9719 7.74755 12.0812 7.48645L8.91162 4.31488" fill="white"/>
</svg>
