<svg viewBox="0 0 128 128" fill="none" xmlns="http://www.w3.org/2000/svg">
<path d="M124.129 63.0198C124.129 55.3278 118.301 48.8548 110.477 47.0078L128 0.112793H41.1598L58.7228 47.1558C51.1448 49.1518 45.5588 55.5118 45.5588 63.0588C45.5588 68.6048 48.6168 73.5228 53.2618 76.5548C51.4298 78.9218 49.3088 81.1048 46.9058 83.1748C42.3828 87.0228 37.3668 89.9798 31.9488 91.9408C27.0588 88.9448 24.9408 83.6558 26.8548 78.9208C34.3118 76.8508 39.7348 70.5268 39.7348 63.0938C39.7348 53.9608 31.5428 46.5618 21.5148 46.5618C11.4488 46.5618 3.2618 53.9958 3.2618 63.1318C3.2618 67.6448 5.2968 71.7848 8.5588 74.7418C8.2728 75.2618 7.9888 75.7768 7.7028 76.3318C4.9728 81.4378 1.8748 87.2068 0.690801 93.6798C-1.6722 106.621 2.1988 117.016 11.5308 122.895C16.7888 126.188 22.5778 127.852 28.8128 127.852C39.5268 127.852 50.4098 122.969 60.9218 118.234C68.4218 114.871 76.1638 111.355 83.7848 109.656C86.5978 109.027 89.5308 108.656 92.6288 108.25C98.9018 107.437 105.383 106.586 111.211 103.516C118.016 99.9298 122.661 93.9368 124.008 87.0588C125.023 81.7688 124.008 76.4448 121.398 71.7848C123.181 69.21 124.133 66.1515 124.128 63.0198H124.129ZM116.184 63.0198C116.184 68.1598 111.578 72.3398 105.914 72.3398C100.25 72.3398 95.6438 68.1598 95.6438 63.0198C95.6438 61.3548 96.1328 59.7658 96.9878 58.3978C97.3128 57.8778 97.7228 57.3628 98.1278 56.9178C98.5571 56.4601 99.0357 56.0513 99.5548 55.6988L99.5978 55.6598C99.9218 55.4378 100.289 55.2148 100.656 54.9958C100.656 54.9958 100.696 54.9958 100.696 54.9568C100.859 54.8828 101.023 54.7728 101.188 54.6988C101.227 54.6988 101.266 54.6598 101.308 54.6598C101.473 54.5898 101.676 54.5158 101.878 54.4408C102.071 54.3735 102.261 54.2994 102.449 54.2188C102.489 54.2188 102.531 54.1788 102.57 54.1788C102.734 54.1448 102.898 54.0698 103.059 54.0348C103.102 54.0348 103.184 53.9958 103.223 53.9958C103.426 53.9608 103.59 53.9218 103.793 53.8858H103.836L104.446 53.7728C104.488 53.7728 104.566 53.7728 104.609 53.7378C104.773 53.7378 104.934 53.6988 105.098 53.6988H105.301C105.504 53.6988 105.711 53.6638 105.953 53.6638H106.484C106.644 53.6638 106.77 53.6638 106.93 53.6988H107.012C107.34 53.7388 107.664 53.7728 107.992 53.8478C112.637 54.7338 116.184 58.5078 116.184 63.0198ZM52.5268 7.50779H116.629L101.918 46.8948C101.308 47.0078 100.695 47.1908 100.086 47.3748L84.6018 18.7148L69.0738 47.1898C68.4608 47.0068 67.8088 46.8938 67.1598 46.7838L52.5268 7.50779ZM81.6638 59.7998C80.8908 56.3228 78.9338 53.2178 76.1638 50.9248L84.6018 35.4678L93.1168 51.2568C90.5898 53.5498 88.7568 56.4718 88.0228 59.7998H81.6638ZM61.2498 53.9598C61.4528 53.9198 61.6168 53.8858 61.8198 53.8468H61.9408C62.1048 53.8118 62.2698 53.8118 62.4298 53.7718H62.5938C62.7578 53.7718 62.8788 53.7368 63.0428 53.7368H64.6328C64.7928 53.7368 64.9178 53.7718 65.0388 53.7718C65.1208 53.7718 65.1598 53.7718 65.2418 53.8118C65.4058 53.8468 65.5268 53.8468 65.6918 53.8858C65.7298 53.8858 65.7728 53.8858 65.8548 53.9208C66.0588 53.9598 66.2618 53.9948 66.4248 54.0338H66.4648C66.6288 54.0688 66.7928 54.1038 66.9528 54.1788C66.9958 54.1788 67.0348 54.2178 67.1168 54.2178C67.2378 54.2528 67.4018 54.2918 67.5228 54.3658C67.5658 54.3658 67.6048 54.4008 67.6478 54.4008C67.8078 54.4758 67.9728 54.5148 68.1368 54.5888H68.1758C68.3788 54.6588 68.5428 54.7328 68.7068 54.8468H68.7468C68.9098 54.9208 69.0738 55.0298 69.2378 55.1038C69.2778 55.1038 69.2778 55.1438 69.3158 55.1438C69.4798 55.2138 69.6018 55.3268 69.7658 55.4008L69.8088 55.4358C70.2968 55.7688 70.7458 56.1398 71.1908 56.5108L71.2338 56.5458C71.6408 56.9518 72.0468 57.3968 72.3748 57.8778C73.4338 59.3578 74.0468 61.0968 74.0468 62.9828C74.0468 68.1238 69.4408 72.2998 63.7768 72.2998C58.1128 72.2998 53.5068 68.1238 53.5068 62.9828C53.4648 58.6548 56.7658 54.9948 61.2498 53.9598ZM21.1478 53.6978C26.8128 53.6978 31.4178 57.8778 31.4178 63.0178C31.4178 68.1588 26.8128 72.3378 21.1478 72.3378C15.4838 72.3378 10.8778 68.1588 10.8778 63.0178C10.8778 57.8778 15.4838 53.6978 21.1478 53.6978ZM115.938 85.7648C115.043 90.4948 111.82 94.6398 107.094 97.1158C102.652 99.4478 97.1908 100.186 91.4448 100.925C88.3088 101.331 85.0078 101.776 81.8278 102.479C73.3518 104.366 65.2028 108.065 57.2968 111.612C47.1908 116.163 37.6518 120.452 28.8128 120.452C24.2068 120.452 20.0898 119.269 16.1798 116.792C7.2148 111.171 7.6598 100.632 8.7228 94.8618C9.6988 89.4598 12.4298 84.3938 15.0388 79.5498C15.1988 79.2528 15.3238 78.9948 15.4838 78.6978C16.3828 78.9948 17.3198 79.2178 18.2968 79.3658C16.7498 87.2058 21.1478 95.3038 29.7068 99.2998L31.2568 100.038L32.9258 99.4828C40.0588 97.1898 46.6598 93.4558 52.4878 88.4628C55.7888 85.6508 58.6018 82.6198 60.9648 79.3268C61.9018 79.4758 62.8398 79.5148 63.7768 79.5148C72.2538 79.5148 79.3828 74.2248 81.4218 67.1238H88.2658C90.3048 74.2608 97.4368 79.5138 105.914 79.5138C109.297 79.5138 112.434 78.6638 115.121 77.2218C116.184 79.9948 116.508 82.8778 115.938 85.7648Z" fill="#99425B"/>
</svg>
