<svg viewBox="0 0 28 28" fill="none" xmlns="http://www.w3.org/2000/svg">
<g clip-path="url(#clip0_168_33)">
<mask id="mask0_168_33" style="mask-type:luminance" maskUnits="userSpaceOnUse" x="0" y="0" width="28" height="28">
<path d="M28 0H0V28H28V0Z" fill="white"/>
</mask>
<g mask="url(#mask0_168_33)">
<path d="M14.0089 28.0175C13.6366 28.0168 13.2713 27.9171 12.9502 27.7288L9.56917 25.6988C9.06517 25.4135 9.31192 25.3103 9.47817 25.2525C10.015 25.0849 10.5284 24.8497 11.0059 24.5525C11.0463 24.5336 11.0909 24.5254 11.1353 24.5289C11.1798 24.5322 11.2226 24.5469 11.2597 24.5718L13.8549 26.1363C13.9032 26.1625 13.9574 26.1764 14.0124 26.1764C14.0675 26.1764 14.1216 26.1625 14.1699 26.1363L24.292 20.2073C24.3392 20.1779 24.3783 20.1369 24.4052 20.0883C24.4322 20.0395 24.4462 19.9847 24.446 19.929V8.06401C24.446 8.00744 24.4318 7.95175 24.4047 7.90217C24.3774 7.85258 24.338 7.81072 24.2902 7.78051L14.1752 1.85676C14.1278 1.82959 14.0741 1.81531 14.0194 1.81531C13.9648 1.81531 13.9111 1.82959 13.8637 1.85676L3.74167 7.78401C3.69309 7.81327 3.65291 7.85459 3.62499 7.90396C3.5971 7.95331 3.58243 8.00906 3.58242 8.06576V19.9255C3.58224 19.9814 3.59691 20.0361 3.62489 20.0844C3.65287 20.1327 3.69317 20.1726 3.74167 20.2003L6.51542 21.826C8.02042 22.589 8.94092 21.6895 8.94092 20.7865V9.07726C8.94069 9.0385 8.94813 9.00009 8.96279 8.96421C8.97746 8.92834 8.99909 8.89572 9.0264 8.86824C9.05374 8.84075 9.08622 8.81895 9.12201 8.80405C9.15779 8.78918 9.19615 8.78151 9.23492 8.78151H10.5177C10.5563 8.78174 10.5945 8.78956 10.6301 8.80456C10.6656 8.81954 10.6979 8.8414 10.725 8.86886C10.7522 8.89631 10.7736 8.92886 10.7882 8.96462C10.8028 9.00037 10.8101 9.03866 10.8099 9.07726V20.7848C10.867 21.2013 10.8307 21.6251 10.7034 22.0257C10.5762 22.4265 10.3614 22.7936 10.0744 23.1009C9.78753 23.408 9.43578 23.6474 9.04478 23.8016C8.65376 23.956 8.23329 24.0211 7.81392 23.9925C6.99056 24.0069 6.18057 23.7832 5.48117 23.3485L2.82642 21.798C2.50198 21.6047 2.23345 21.3301 2.04719 21.0014C1.86096 20.673 1.76341 20.3014 1.76417 19.9238V8.06401C1.7632 7.68649 1.86066 7.31524 2.04695 6.98687C2.23322 6.65852 2.50188 6.38438 2.82642 6.19151L12.9502 0.255511C13.2755 0.074378 13.6418 -0.0206909 14.0142 -0.0206909C14.3866 -0.0206909 14.7528 0.074378 15.0782 0.255511L25.2002 6.19151C25.5249 6.38442 25.7937 6.65852 25.9802 6.98684C26.1668 7.31515 26.2646 7.6864 26.2642 8.06401V19.922C26.2642 20.2999 26.1662 20.671 25.9797 20.9997C25.7931 21.3282 25.5245 21.6027 25.2002 21.7963L15.0782 27.7288C14.755 27.9183 14.3871 28.0181 14.0124 28.0175H14.0089ZM17.1362 19.8468C12.7052 19.8468 11.7777 17.7818 11.7777 16.051C11.7765 16.0115 11.7833 15.9721 11.7978 15.9353C11.8123 15.8984 11.8341 15.8649 11.8619 15.8368C11.8898 15.8086 11.923 15.7864 11.9596 15.7715C11.9963 15.7566 12.0356 15.7493 12.0752 15.75H13.3789C13.4495 15.7501 13.5177 15.7757 13.5711 15.8219C13.6244 15.8682 13.6593 15.9321 13.6694 16.002C13.8672 17.3548 14.4552 18.0373 17.1344 18.0373C19.266 18.0373 20.1742 17.5473 20.1742 16.3993C20.1742 15.736 19.9187 15.246 16.6024 14.9153C13.8339 14.637 12.1189 14.0158 12.1189 11.7653C12.1189 9.69151 13.8409 8.45601 16.7267 8.45601C19.9695 8.45601 21.5742 9.59876 21.7772 12.0505C21.7806 12.0917 21.7755 12.1331 21.7622 12.1722C21.7489 12.2114 21.7279 12.2474 21.7002 12.278C21.6729 12.3081 21.6397 12.3322 21.6028 12.3488C21.5657 12.3654 21.5256 12.3741 21.485 12.3743H20.1725C20.1056 12.3737 20.0412 12.3502 19.9896 12.3079C19.938 12.2656 19.9025 12.2068 19.889 12.1415C19.574 10.7188 18.8057 10.2638 16.7284 10.2638C14.3992 10.2638 14.1297 11.0863 14.1297 11.704C14.1297 12.453 14.4499 12.67 17.593 13.0918C20.7045 13.5083 22.1832 14.0998 22.1832 16.3188C22.1832 18.5378 20.3457 19.8398 17.1379 19.8398L17.1362 19.8468Z" fill="#73B923"/>
</g>
</g>
<defs>
<clipPath id="clip0_168_33">
<rect width="28" height="28" fill="white"/>
</clipPath>
</defs>
</svg>
