<svg viewBox="0 0 28 28" fill="none" xmlns="http://www.w3.org/2000/svg">
<g clip-path="url(#clip0_109_186)">
<path d="M16.4447 13.9358C16.4447 12.0193 14.3695 10.815 12.7183 11.7733C11.0672 12.7315 11.0672 15.14 12.7183 16.0983C14.3695 17.0565 16.4447 15.8522 16.4447 13.9358ZM22.1327 9.33272C23.7767 1.47465 20.16 -0.991272 14.0116 4.69678C8.22494 -0.728241 4.10411 0.981464 5.85766 9.29984C-2.22851 11.7375 -1.69276 16.3264 5.92342 18.6703C4.18083 26.3311 7.43585 29.1258 14.0116 23.3391C20.3902 29.0601 23.7754 26.3815 22.0341 18.6375C30.3415 15.8208 29.5963 11.7438 22.1327 9.33272ZM21.0149 9.0368C19.7116 8.74284 18.4506 8.52885 17.168 8.4121C16.4923 7.42403 15.7052 6.43704 14.8007 5.51876C19.7301 0.790456 22.6354 2.26787 21.0149 9.0368ZM8.2907 15.4482C8.77841 16.4894 9.41955 17.4429 9.90177 18.2429C9.11653 18.1626 8.27059 18.0406 7.37009 17.8812C7.65863 17.0736 7.96583 16.2625 8.2907 15.4482ZM8.22494 12.6206C7.86622 11.7595 7.53888 10.9284 7.27145 10.1547C8.20107 9.962 9.11202 9.78704 9.90177 9.72726C9.314 10.6506 8.75571 11.616 8.22494 12.6206ZM8.9154 14.0673C9.71941 12.4571 10.5699 10.9287 11.5128 9.56287C13.1859 9.46665 14.8413 9.47518 16.4776 9.59575C17.3953 10.8745 18.2518 12.4028 19.075 14.0673C18.459 15.3403 17.5843 16.8073 16.5762 18.3744C14.8931 18.5019 13.1672 18.4843 11.4142 18.3744C10.5257 17.0132 9.69129 15.5795 8.9154 14.0673ZM19.6997 15.4482C20.019 16.2229 20.314 17.0126 20.5874 17.8155C19.7436 17.9932 18.9111 18.1227 18.0886 18.21C18.6516 17.3378 19.1857 16.4117 19.6997 15.4482ZM18.0886 9.72726C18.9851 9.84999 19.8511 10.0032 20.6861 10.1876C20.4067 11.0176 20.0894 11.8289 19.7326 12.6206C19.2237 11.6169 18.6773 10.6508 18.0886 9.72726ZM15.5569 8.28059C14.5329 8.24042 13.4912 8.24171 12.4334 8.28059C12.8965 7.67155 13.4127 7.03536 13.9788 6.37361C14.5304 6.9691 15.0531 7.61005 15.5569 8.28059ZM13.1897 5.51876C12.2852 6.43704 11.4981 7.39116 10.8224 8.37923C9.53982 8.49597 8.24591 8.70996 6.94266 9.00393C5.39735 2.13223 8.26025 0.790456 13.1897 5.51876ZM6.21933 17.5853C-0.630454 15.5249 -0.301664 12.3137 6.15357 10.4177C6.54845 11.616 7.02649 12.8329 7.56736 14.0015C7.0418 15.2101 6.57652 16.4514 6.21933 17.5853ZM7.07418 18.9662C8.2359 19.2512 9.46702 19.388 10.7566 19.5252C11.5326 20.6203 12.3361 21.6383 13.1897 22.5172C8.17015 27.3285 5.37193 25.5804 7.07418 18.9662ZM13.9788 21.6952C13.3839 21.0793 12.8286 20.3813 12.3019 19.6238C13.4759 19.6486 14.6098 19.6513 15.6885 19.6238C15.166 20.365 14.5955 21.0547 13.9788 21.6952ZM14.8007 22.5172C15.7166 21.5221 16.5239 20.5134 17.2338 19.4923C18.4453 19.4032 19.6728 19.217 20.9162 18.9334C22.6338 25.9735 19.5151 27.0131 14.8007 22.5172ZM21.7382 17.5196C21.386 16.3856 20.9412 15.2101 20.423 14.0015C20.9563 12.8329 21.4146 11.6489 21.8039 10.4506C28.1057 12.3576 28.6099 15.4044 21.7382 17.5196Z" fill="#26A2C1"/>
</g>
<defs>
<clipPath id="clip0_109_186">
<rect width="28" height="28" fill="white"/>
</clipPath>
</defs>
</svg>
