<svg viewBox="0 0 28 28" fill="none" xmlns="http://www.w3.org/2000/svg">
<path d="M7.875 11.9875C8.69167 8.72079 10.7333 7.08746 14 7.08746C18.9 7.08746 19.5125 10.7625 21.9625 11.375C23.5958 11.7833 25.025 11.1708 26.25 9.53746C25.4333 12.8041 23.3917 14.4375 20.125 14.4375C15.225 14.4375 14.6125 10.7625 12.1625 10.15C10.5292 9.74162 9.1 10.3541 7.875 11.9875ZM1.75 19.3375C2.56667 16.0708 4.60833 14.4375 7.875 14.4375C12.775 14.4375 13.3875 18.1125 15.8375 18.725C17.4708 19.1333 18.9 18.5208 20.125 16.8875C19.3083 20.1542 17.2667 21.7875 14 21.7875C9.1 21.7875 8.4875 18.1125 6.0375 17.5C4.40417 17.0916 2.975 17.7042 1.75 19.3375Z" fill="#44A8B3"/>
</svg>
