<svg viewBox="0 0 28 28" fill="none" xmlns="http://www.w3.org/2000/svg">
<path fill-rule="evenodd" clip-rule="evenodd" d="M2.57617 2.57599V25.424H25.4241V2.57599H2.57617ZM19.9373 13.6735C20.1564 13.6742 20.4054 13.6858 20.5927 13.7061C21.3553 13.7886 21.9493 14.1177 22.4545 14.7374C22.7062 15.0461 22.7923 15.1812 22.7739 15.239C22.7622 15.2763 22.5894 15.3999 22.0405 15.7643C21.5013 16.1223 21.3277 16.2295 21.2873 16.2295C21.2463 16.2295 21.1613 16.1418 21.0384 15.9734C20.8018 15.6493 20.5603 15.5013 20.1869 15.4519C19.7854 15.3988 19.4251 15.5253 19.2487 15.7817C19.098 16.0007 19.0753 16.3532 19.1951 16.6093C19.3339 16.906 19.5852 17.07 20.5484 17.4924C21.6591 17.9793 22.2221 18.3127 22.6321 18.7266C23.0735 19.1721 23.2971 19.6865 23.3659 20.4141C23.3995 20.7689 23.3586 21.1892 23.2571 21.531C23.008 22.3689 22.3364 22.9822 21.3518 23.271C21.0797 23.3508 20.8265 23.3986 20.5761 23.4168C20.1937 23.4449 19.6463 23.4295 19.3168 23.3816C18.4832 23.2601 17.5424 22.775 17.0732 22.2252C16.8429 21.9552 16.5489 21.5109 16.5489 21.4328C16.5489 21.395 16.5675 21.3736 16.6416 21.3266C16.8612 21.1869 18.1196 20.4675 18.1441 20.4675C18.1588 20.4675 18.2246 20.545 18.29 20.6397C18.4386 20.8541 18.8037 21.2225 18.9892 21.3455C19.1409 21.4459 19.3346 21.5264 19.5647 21.5847C19.6967 21.6176 19.7665 21.6234 20.054 21.6234C20.3479 21.6232 20.4082 21.6183 20.5397 21.583C20.8874 21.4895 21.1588 21.2958 21.274 21.0592C21.3244 20.957 21.3252 20.9442 21.3252 20.6962V20.4393L21.2635 20.3166C21.1138 20.0195 20.7911 19.8156 19.7714 19.3739C19.3029 19.1709 18.7291 18.8848 18.5051 18.7425C17.9939 18.4175 17.6397 18.0462 17.4072 17.5916C17.1759 17.1395 17.1414 16.9712 17.1408 16.2915C17.1403 15.7593 17.1394 15.7658 17.2496 15.4262C17.3495 15.118 17.5542 14.7737 17.7801 14.5336C18.2309 14.0543 18.8896 13.7464 19.5948 13.6851C19.685 13.6766 19.8057 13.6731 19.9373 13.6735ZM13.8691 13.7786C15.2273 13.7793 16.0061 13.784 16.0186 13.7919C16.0421 13.8064 16.045 13.9246 16.045 14.679V15.5493L14.6898 15.5542L13.3345 15.5592V19.407C13.3345 21.5234 13.3302 23.2677 13.3244 23.2831C13.3148 23.309 13.2105 23.3109 12.3287 23.3109H11.3438L11.3336 23.2712C11.327 23.2493 11.3223 21.5051 11.3221 19.3951L11.3218 15.5589L9.96656 15.5541L8.61131 15.5492V14.6892C8.61131 14.0071 8.61602 13.8245 8.63416 13.8063C8.65282 13.7871 9.34447 13.7821 12.3247 13.7792C12.8993 13.7786 13.4164 13.7784 13.8691 13.7786Z" fill="#0288D1"/>
</svg>
