<svg viewBox="0 0 128 128" fill="none" xmlns="http://www.w3.org/2000/svg">
<path fill-rule="evenodd" clip-rule="evenodd" d="M64.0938 126.224C98.3688 126.172 126.115 98.291 126.115 63.899C126.115 30.066 98.4968 2.20202 65.5018 1.61302C30.8498 0.995024 1.89377 29.113 1.88477 63.21C1.87477 98.289 29.4968 126.274 64.0938 126.224ZM63.9928 4.63002C96.8998 4.61902 123.119 31.355 123.109 64.91C123.098 96.589 96.1838 123.09 64.0168 123.097C31.2458 123.104 4.89177 96.534 4.89277 63.489C4.89477 31.296 31.6588 4.64102 63.9928 4.63002ZM39.1568 35.896C39.6948 37.689 38.1888 38.313 36.5878 38.438C34.9028 38.568 33.2188 38.695 31.2628 38.844C37.7188 58.078 44.0778 77.027 50.5878 96.417C51.0518 95.658 51.2428 95.444 51.3268 95.194C54.9008 84.512 58.4948 73.837 61.9778 63.125C62.2958 62.148 62.1378 60.854 61.7898 59.85C59.9468 54.53 57.7388 49.326 56.1228 43.942C55.0178 40.256 53.5518 37.871 49.1948 38.298C48.4528 38.371 47.5468 36.774 46.7158 35.949C47.7208 35.349 48.7188 34.245 49.7328 34.23C58.6049 34.0937 67.4787 34.0964 76.3508 34.238C77.3688 34.255 78.3668 35.388 79.3718 36.003C78.4918 36.807 77.7328 38.013 76.7038 38.324C75.0528 38.822 73.2218 38.728 71.2458 38.904L90.5948 96.464C93.5258 86.728 96.2528 77.788 98.9048 68.825C101.271 60.824 99.8608 53.352 95.5828 46.305C94.2968 44.186 92.7168 42.13 91.9878 39.819C91.1598 37.19 90.4718 34.197 90.9108 31.56C91.6558 27.091 95.0848 24.872 99.7248 24.447C74.3328 0.881025 34.4308 9.31702 19.7278 34.922C25.3878 34.661 30.7918 34.318 36.1998 34.244C37.2218 34.231 38.9168 35.095 39.1568 35.896ZM49.2738 113.867C49.1558 114.212 49.1488 114.596 49.0558 115.169C59.9988 118.203 70.7308 117.984 81.7148 114.283L64.9348 68.323C59.5648 83.934 54.4148 98.898 49.2738 113.867ZM40.8178 111.789L15.5368 42.439C4.13177 64.717 12.8078 98.707 40.8178 111.789ZM117.246 67.227C118.048 56.693 114.414 42.108 111.276 40.102C110.926 43.977 111.17 48.288 110.058 52.216C107.441 61.471 104.241 70.565 101.159 79.684C97.8088 89.596 94.3268 99.463 90.9018 109.35C106.994 99.811 115.837 85.732 117.246 67.227Z" fill="#494949"/>
</svg>
