<svg viewBox="0 0 26 26" fill="none" xmlns="http://www.w3.org/2000/svg">
<path fill-rule="evenodd" clip-rule="evenodd" d="M13.0108 0C5.81614 0 0 5.85902 0 13.1074C0 18.9015 3.7266 23.806 8.89639 25.5419C9.54275 25.6724 9.77951 25.2598 9.77951 24.9128C9.77951 24.609 9.7582 23.5674 9.7582 22.4821C6.13892 23.2635 5.38524 20.9196 5.38524 20.9196C4.8036 19.4006 3.94179 19.0101 3.94179 19.0101C2.7572 18.2072 4.02808 18.2072 4.02808 18.2072C5.3421 18.294 6.0316 19.5526 6.0316 19.5526C7.19461 21.5489 9.0687 20.9849 9.82265 20.6376C9.93024 19.7912 10.2751 19.2053 10.6413 18.8799C7.75468 18.576 4.71758 17.4476 4.71758 12.4129C4.71758 10.9806 5.23424 9.8088 6.0529 8.89746C5.92374 8.57201 5.47126 7.2263 6.18233 5.42519C6.18233 5.42519 7.2809 5.07791 9.75793 6.77063C10.8184 6.48372 11.9121 6.33776 13.0108 6.33653C14.1093 6.33653 15.2292 6.4886 16.2633 6.77063C18.7406 5.07791 19.8392 5.42519 19.8392 5.42519C20.5503 7.2263 20.0975 8.57201 19.9683 8.89746C20.8086 9.8088 21.3039 10.9806 21.3039 12.4129C21.3039 17.4476 18.2668 18.5542 15.3586 18.8799C15.8327 19.2922 16.2417 20.0733 16.2417 21.3103C16.2417 23.068 16.2204 24.4787 16.2204 24.9126C16.2204 25.2598 16.4575 25.6724 17.1035 25.5421C22.2733 23.8057 25.9999 18.9015 25.9999 13.1074C26.0212 5.85902 20.1838 0 13.0108 0Z" fill="black"/>
</svg>
